<?xml version="1.0" encoding="UTF-8" standalone="no"?>
<svg
   xmlns:dc="http://purl.org/dc/elements/1.1/"
   xmlns:cc="http://creativecommons.org/ns#"
   xmlns:rdf="http://www.w3.org/1999/02/22-rdf-syntax-ns#"
   xmlns:svg="http://www.w3.org/2000/svg"
   xmlns="http://www.w3.org/2000/svg"
   width="82.127403mm"
   height="56.194515mm"
   viewBox="0 0 82.127403 56.194515"
   version="1.1"
   id="svg1230">
  <defs
     id="defs1224" />
  <metadata
     id="metadata1227">
    <rdf:RDF>
      <cc:Work
         rdf:about="">
        <dc:format>image/svg+xml</dc:format>
        <dc:type
           rdf:resource="http://purl.org/dc/dcmitype/StillImage" />
        <dc:title></dc:title>
      </cc:Work>
    </rdf:RDF>
  </metadata>
  <path
     d="m 3.871511,37.7374 -2.776802,2.45157 0.303996,0.34432 q 0.127483,0.1444 0.284335,0.15415 0.156852,0.01 0.367888,-0.17656 L 4.07244,38.72613 q 0.211038,-0.18631 0.220793,-0.34317 0.0098,-0.15685 -0.117726,-0.30124 z m 0.01601,-1.10122 0.853147,0.96633 q 0.406961,0.46095 0.35873,0.89883 -0.04333,0.44344 -0.515384,0.86021 L 2.618036,41.09726 Q 2.145981,41.51403 1.700592,41.50207 1.260107,41.49607 0.853146,41.03471 L 0,40.06839 Z"
     style="font-variant:normal;font-weight:normal;font-stretch:normal;font-size:medium;font-family:'Bebas Neue';-inkscape-font-specification:BebasNeue;writing-mode:lr-tb;fill:#fffffe;fill-opacity:1;fill-rule:nonzero;stroke:none;stroke-width:0.35277775"
     id="path1024" />
  <path
     d="M 4.886961,40.89637 5.703278,41.66124 5.196742,42.20185 4.380425,41.43698 3.342027,42.54523 4.369179,43.50764 3.862642,44.04825 2.240821,42.52864 5.786573,38.74439 7.408394,40.264 6.901858,40.80461 5.874707,39.84218 Z"
     style="font-variant:normal;font-weight:normal;font-stretch:normal;font-size:medium;font-family:'Bebas Neue';-inkscape-font-specification:BebasNeue;writing-mode:lr-tb;fill:#fffffe;fill-opacity:1;fill-rule:nonzero;stroke:none;stroke-width:0.35277775"
     id="path1021" />
  <path
     d="M 7.850841,41.57249 6.76049,42.94867 7.062436,43.1879 q 0.150971,0.11962 0.296672,0.10274 0.145704,-0.0169 0.320527,-0.23754 L 8.162704,42.4434 Q 8.33753,42.22275 8.320642,42.07705 8.303742,41.93134 8.152787,41.81173 Z m 0.762011,-0.34143 q 0.48195,0.38185 0.511788,0.82137 0.03565,0.44412 -0.355409,0.93769 l -0.418659,0.5284 Q 7.959518,44.01209 7.519015,44.07895 7.084322,44.15045 6.602371,43.76857 L 6.300425,43.52933 5.090454,45.05648 4.451721,44.55041 7.672173,40.48576 Z"
     style="font-variant:normal;font-weight:normal;font-stretch:normal;font-size:medium;font-family:'Bebas Neue';-inkscape-font-specification:BebasNeue;writing-mode:lr-tb;fill:#fffffe;fill-opacity:1;fill-rule:nonzero;stroke:none;stroke-width:0.35277775"
     id="path1018" />
  <path
     d="m 8.340056,45.42991 0.651178,0.43891 1.140178,-2.39415 z m 0.62273,2.40308 -0.681895,-0.4596 0.409134,-0.85886 -0.829331,-0.55898 -0.642574,0.70152 -0.620466,-0.41821 3.586452,-3.83649 0.989055,0.66664 z"
     style="font-variant:normal;font-weight:normal;font-stretch:normal;font-size:medium;font-family:'Bebas Neue';-inkscape-font-specification:BebasNeue;writing-mode:lr-tb;fill:#fffffe;fill-opacity:1;fill-rule:nonzero;stroke:none;stroke-width:0.35277775"
     id="path1105" />
  <path
     d="m 12.402736,44.69152 -0.78887,1.38371 0.276743,0.15778 q 0.199513,0.11374 0.36763,0.0731 0.174554,-0.0369 0.328658,-0.30724 l 0.253174,-0.44407 q 0.139429,-0.24457 0.111701,-0.40535 -0.02131,-0.1571 -0.207931,-0.26352 z m -1.429194,4.30184 q 0.01281,-0.0524 0.02194,-0.0983 0.0091,-0.046 0.02928,-0.11122 0.0266,-0.0616 0.07152,-0.15536 0.05137,-0.0901 0.128422,-0.22526 l 0.403609,-0.70795 q 0.17979,-0.31536 0.143761,-0.50645 -0.03603,-0.1911 -0.280589,-0.33053 l -0.244567,-0.13943 -1.045714,1.83424 -0.707948,-0.40361 2.56842,-4.50513 1.06836,0.60908 q 0.553487,0.31555 0.651284,0.71241 0.104235,0.40054 -0.19297,0.92185 l -0.201803,0.35397 q -0.396272,0.69508 -0.984409,0.64972 0.207935,0.26351 0.161375,0.56955 -0.03646,0.30327 -0.238259,0.65725 l -0.396271,0.69507 q -0.0954,0.16734 -0.155911,0.30339 -0.05684,0.12963 -0.07874,0.2877 z"
     style="font-variant:normal;font-weight:normal;font-stretch:normal;font-size:medium;font-family:'Bebas Neue';-inkscape-font-specification:BebasNeue;writing-mode:lr-tb;fill:#fffffe;fill-opacity:1;fill-rule:nonzero;stroke:none;stroke-width:0.35277775"
     id="path1102" />
  <path
     d="m 14.355485,44.94372 2.262791,1.10649 -0.325442,0.66553 -0.765351,-0.37426 -1.952625,3.99316 -0.732081,-0.35799 1.952625,-3.99315 -0.765355,-0.37425 z"
     style="font-variant:normal;font-weight:normal;font-stretch:normal;font-size:medium;font-family:'Bebas Neue';-inkscape-font-specification:BebasNeue;writing-mode:lr-tb;fill:#fffffe;fill-opacity:1;fill-rule:nonzero;stroke:none;stroke-width:0.35277775"
     id="path1099" />
  <path
     d="m 17.012025,50.20679 1.901959,-3.20124 1.049937,0.42708 -1.953923,4.80363 -0.713684,-0.29029 1.401244,-3.4449 -1.92278,3.23276 -0.713683,-0.2903 0.818991,-3.62575 -1.381703,3.39686 -0.658785,-0.26797 1.953923,-4.80363 1.049938,0.42707 z"
     style="font-variant:normal;font-weight:normal;font-stretch:normal;font-size:medium;font-family:'Bebas Neue';-inkscape-font-specification:BebasNeue;writing-mode:lr-tb;fill:#fffffe;fill-opacity:1;fill-rule:nonzero;stroke:none;stroke-width:0.35277775"
     id="path1096" />
  <path
     d="m 20.492961,49.90631 1.061028,0.35443 -0.234724,0.70267 -1.061028,-0.35444 -0.481182,1.44047 1.335062,0.44597 -0.234724,0.70267 -2.107998,-0.70417 1.643069,-4.91867 2.107999,0.70418 -0.234724,0.70266 -1.335063,-0.44597 z"
     style="font-variant:normal;font-weight:normal;font-stretch:normal;font-size:medium;font-family:'Bebas Neue';-inkscape-font-specification:BebasNeue;writing-mode:lr-tb;fill:#fffffe;fill-opacity:1;fill-rule:nonzero;stroke:none;stroke-width:0.35277775"
     id="path1093" />
  <path
     d="m 23.216441,49.9691 -1.003004,3.61963 -0.70679,-0.19585 1.384815,-4.99752 0.985223,0.27301 -0.02215,3.21492 0.828911,-2.99137 0.69965,0.19387 -1.384815,4.99752 -0.806743,-0.22355 z"
     style="font-variant:normal;font-weight:normal;font-stretch:normal;font-size:medium;font-family:'Bebas Neue';-inkscape-font-specification:BebasNeue;writing-mode:lr-tb;fill:#fffffe;fill-opacity:1;fill-rule:nonzero;stroke:none;stroke-width:0.35277775"
     id="path1090" />
  <path
     d="m 25.647051,49.15049 2.457303,0.55332 -0.16274,0.72273 -0.831149,-0.18715 -0.976439,4.33641 -0.79501,-0.17901 0.97644,-4.33641 -0.831145,-0.18716 z"
     style="font-variant:normal;font-weight:normal;font-stretch:normal;font-size:medium;font-family:'Bebas Neue';-inkscape-font-specification:BebasNeue;writing-mode:lr-tb;fill:#fffffe;fill-opacity:1;fill-rule:nonzero;stroke:none;stroke-width:0.35277775"
     id="path1087" />
  <path
     d="m 29.179731,51.17512 q 0.09955,-0.62179 0.466797,-0.90062 0.368424,-0.28614 0.960953,-0.19128 0.592532,0.0949 0.853218,0.48171 0.261853,0.37954 0.162311,1.00133 L 31.196735,54.229 q -0.09954,0.62179 -0.467963,0.90793 -0.367253,0.27883 -0.959784,0.18397 -0.59253,-0.0949 -0.854385,-0.4744 -0.260686,-0.38685 -0.161142,-1.00864 z m 0.370203,2.84276 q -0.0445,0.27798 0.04649,0.41259 0.09948,0.12846 0.289671,0.15891 0.190198,0.0305 0.317489,-0.0617 0.135782,-0.0983 0.180285,-0.37628 l 0.442666,-2.76515 q 0.0445,-0.27797 -0.05498,-0.40644 -0.09099,-0.13461 -0.281189,-0.16506 -0.190193,-0.0305 -0.325972,0.0679 -0.127293,0.0922 -0.171796,0.37014 z"
     style="font-variant:normal;font-weight:normal;font-stretch:normal;font-size:medium;font-family:'Bebas Neue';-inkscape-font-specification:BebasNeue;writing-mode:lr-tb;fill:#fffffe;fill-opacity:1;fill-rule:nonzero;stroke:none;stroke-width:0.35277775"
     id="path1084" />
  <path
     d="m 32.798411,52.77547 1.044829,0.12247 -0.08625,0.7358 -1.044829,-0.12247 -0.249253,2.12644 -0.809376,-0.0949 0.603731,-5.15057 2.141162,0.25099 -0.08625,0.73579 -1.331788,-0.15611 z"
     style="font-variant:normal;font-weight:normal;font-stretch:normal;font-size:medium;font-family:'Bebas Neue';-inkscape-font-specification:BebasNeue;writing-mode:lr-tb;fill:#fffffe;fill-opacity:1;fill-rule:nonzero;stroke:none;stroke-width:0.35277775"
     id="path1081" />
  <path
     d="m 36.595227,51.55539 -0.07948,1.36823 0.318024,0.0185 q 0.229272,0.0133 0.361876,-0.0977 0.140002,-0.1106 0.158046,-0.42123 l 0.01675,-0.28844 q 0.01632,-0.28104 -0.07991,-0.41278 -0.08884,-0.13132 -0.303324,-0.14378 z m -0.122449,2.10782 -0.09237,1.59011 0.46594,0.0271 q 0.207084,0.012 0.317071,-0.0929 0.117385,-0.10449 0.134138,-0.39293 l 0.02622,-0.45115 q 0.02106,-0.36239 -0.09694,-0.50282 -0.110601,-0.14 -0.391646,-0.15633 z m 0.579585,-2.82335 q 0.636046,0.037 0.899901,0.34911 0.271254,0.31259 0.236453,0.91166 l -0.01077,0.1849 q -0.0232,0.39937 -0.163968,0.65092 -0.140764,0.25155 -0.421717,0.36139 0.325509,0.14506 0.441878,0.44123 0.124196,0.28921 0.100137,0.70338 l -0.02447,0.42157 q -0.03482,0.59906 -0.363905,0.89904 -0.328673,0.29258 -0.942531,0.25692 l -1.279485,-0.0743 0.300752,-5.17711 z"
     style="font-variant:normal;font-weight:normal;font-stretch:normal;font-size:medium;font-family:'Bebas Neue';-inkscape-font-specification:BebasNeue;writing-mode:lr-tb;fill:#fffffe;fill-opacity:1;fill-rule:nonzero;stroke:none;stroke-width:0.35277775"
     id="path1078" />
  <path
     d="m 38.75813,50.91754 0.814644,0.0211 -0.133943,5.18411 -0.814644,-0.0211 z"
     style="font-variant:normal;font-weight:normal;font-stretch:normal;font-size:medium;font-family:'Bebas Neue';-inkscape-font-specification:BebasNeue;writing-mode:lr-tb;fill:#fffffe;fill-opacity:1;fill-rule:nonzero;stroke:none;stroke-width:0.35277775"
     id="path1075" />
  <path
     d="m 40.039597,52.20098 q -0.0035,-0.62969 0.313145,-0.96486 0.316637,-0.34256 0.916707,-0.34594 0.600064,-0.004 0.920533,0.33562 0.320426,0.33158 0.323964,0.96128 l 0.01516,2.69659 q 0.0035,0.6297 -0.3131,0.97227 -0.316682,0.33516 -0.916749,0.33853 -0.600065,0.004 -0.920494,-0.32821 -0.320466,-0.33898 -0.324003,-0.96868 z m 0.830352,2.74388 q 0.0013,0.28151 0.113371,0.39941 0.119155,0.11046 0.311767,0.10938 0.192617,-0.001 0.303114,-0.11283 0.117867,-0.1192 0.116287,-0.40071 l -0.01574,-2.80031 q -0.0013,-0.28151 -0.120738,-0.39197 -0.111789,-0.11791 -0.304403,-0.11682 -0.192616,10e-4 -0.310478,0.12028 -0.1105,0.11174 -0.108918,0.39325 z"
     style="font-variant:normal;font-weight:normal;font-stretch:normal;font-size:medium;font-family:'Bebas Neue';-inkscape-font-specification:BebasNeue;writing-mode:lr-tb;fill:#fffffe;fill-opacity:1;fill-rule:nonzero;stroke:none;stroke-width:0.35277775"
     id="path1072" />
  <path
     d="m 44.850862,54.52124 0.348549,-3.70727 1.131692,-0.0635 0.290433,5.17769 -0.769258,0.0431 -0.20828,-3.71314 -0.353867,3.74467 -0.769257,0.0431 -0.811903,-3.62734 0.205374,3.66136 -0.710083,0.0398 -0.290433,-5.17768 1.131694,-0.0635 z"
     style="font-variant:normal;font-weight:normal;font-stretch:normal;font-size:medium;font-family:'Bebas Neue';-inkscape-font-specification:BebasNeue;writing-mode:lr-tb;fill:#fffffe;fill-opacity:1;fill-rule:nonzero;stroke:none;stroke-width:0.35277775"
     id="path1069" />
  <path
     d="m 47.865347,52.78144 1.112369,-0.11849 0.07847,0.73667 -1.112367,0.11849 0.160862,1.51016 1.399667,-0.14909 0.07847,0.73667 -2.210001,0.2354 -0.549281,-5.15666 2.210002,-0.23541 0.07847,0.73667 -1.399667,0.14908 z"
     style="font-variant:normal;font-weight:normal;font-stretch:normal;font-size:medium;font-family:'Bebas Neue';-inkscape-font-specification:BebasNeue;writing-mode:lr-tb;fill:#fffffe;fill-opacity:1;fill-rule:nonzero;stroke:none;stroke-width:0.35277775"
     id="path1066" />
  <path
     d="m 50.361727,51.0187 0.55329,3.66261 0.45416,-0.0686 q 0.19046,-0.0288 0.28374,-0.15525 0.0933,-0.12648 0.0512,-0.40484 l -0.4028,-2.66638 q -0.0421,-0.27836 -0.16853,-0.37163 -0.12648,-0.0933 -0.31693,-0.0645 z m -0.916436,-0.6108 1.274586,-0.19255 q 0.608,-0.0918 0.94969,0.1862 0.34903,0.27694 0.44309,0.89959 l 0.39173,2.59312 q 0.0941,0.62264 -0.15758,0.99032 -0.24432,0.36658 -0.85231,0.45842 l -1.274591,0.19255 z"
     style="font-variant:normal;font-weight:normal;font-stretch:normal;font-size:medium;font-family:'Bebas Neue';-inkscape-font-specification:BebasNeue;writing-mode:lr-tb;fill:#fffffe;fill-opacity:1;fill-rule:nonzero;stroke:none;stroke-width:0.35277775"
     id="path1063" />
  <path
     d="m 52.366607,49.94307 0.80105,-0.14968 0.95253,5.09759 -0.80105,0.14969 z"
     style="font-variant:normal;font-weight:normal;font-stretch:normal;font-size:medium;font-family:'Bebas Neue';-inkscape-font-specification:BebasNeue;writing-mode:lr-tb;fill:#fffffe;fill-opacity:1;fill-rule:nonzero;stroke:none;stroke-width:0.35277775"
     id="path1060" />
  <path
     d="m 56.697317,52.36161 0.14977,0.6725 q 0.13687,0.61465 -0.0928,1.01492 -0.22402,0.39143 -0.80974,0.52187 -0.58573,0.13043 -0.96191,-0.12734 -0.37055,-0.26661 -0.50743,-0.88126 l -0.58616,-2.63216 q -0.13688,-0.61465 0.0871,-1.00608 0.22964,-0.40027 0.81536,-0.53071 0.58573,-0.13043 0.95628,0.13618 0.37618,0.25777 0.51306,0.87242 l 0.1095,0.49173 -0.75205,0.16747 -0.12077,-0.54234 q -0.0612,-0.27479 -0.20104,-0.35749 -0.13424,-0.0915 -0.32225,-0.0497 -0.18801,0.0419 -0.27795,0.18333 -0.0843,0.13263 -0.0231,0.40741 l 0.60871,2.7334 q 0.0612,0.27478 0.19381,0.35909 0.13986,0.0827 0.32787,0.0408 0.18801,-0.0419 0.27232,-0.17449 0.0915,-0.13423 0.0303,-0.40902 l -0.16103,-0.72312 z"
     style="font-variant:normal;font-weight:normal;font-stretch:normal;font-size:medium;font-family:'Bebas Neue';-inkscape-font-specification:BebasNeue;writing-mode:lr-tb;fill:#fffffe;fill-opacity:1;fill-rule:nonzero;stroke:none;stroke-width:0.35277775"
     id="path1057" />
  <path
     d="m 58.067507,52.29879 0.75718,-0.20823 -1.07402,-2.42455 z m 2.22904,1.09269 -0.79289,0.21805 -0.3852,-0.86984 -0.96432,0.2652 0.11377,0.9445 -0.72146,0.19841 -0.57511,-5.2202 1.15005,-0.31628 z"
     style="font-variant:normal;font-weight:normal;font-stretch:normal;font-size:medium;font-family:'Bebas Neue';-inkscape-font-specification:BebasNeue;writing-mode:lr-tb;fill:#fffffe;fill-opacity:1;fill-rule:nonzero;stroke:none;stroke-width:0.35277775"
     id="path1054" />
  <path
     d="m 59.183887,48.30097 0.77429,-0.25407 1.38589,4.22343 1.27407,-0.41808 0.23098,0.7039 -2.04837,0.67215 z"
     style="font-variant:normal;font-weight:normal;font-stretch:normal;font-size:medium;font-family:'Bebas Neue';-inkscape-font-specification:BebasNeue;writing-mode:lr-tb;fill:#fffffe;fill-opacity:1;fill-rule:nonzero;stroke:none;stroke-width:0.35277775"
     id="path1051" />
  <path
     d="m 62.887747,48.34649 q -0.23874,-0.5827 -0.0909,-1.00354 0.15186,-0.4305 0.70713,-0.658 0.55528,-0.2275 0.95869,-0.0245 0.40746,0.19333 0.6462,0.77602 l 0.0758,0.18509 -0.71295,0.29211 -0.0955,-0.23307 q -0.10673,-0.26051 -0.25169,-0.3212 -0.14091,-0.0704 -0.31914,0.003 -0.17824,0.073 -0.23613,0.22484 -0.0538,0.14215 0.0529,0.40265 0.10111,0.24679 0.28944,0.3938 0.18552,0.14015 0.42026,0.24412 0.23194,0.0971 0.48725,0.19266 0.25935,0.0859 0.50533,0.21728 0.24598,0.13139 0.45959,0.34009 0.2136,0.20871 0.35404,0.55147 0.23874,0.5827 0.08,1.016 -0.15468,0.42365 -0.70995,0.65115 -0.55527,0.22751 -0.96959,0.037 -0.41026,-0.20018 -0.649,-0.78288 l -0.13482,-0.32905 0.71294,-0.2921 0.15448,0.37703 q 0.10673,0.2605 0.25169,0.3212 0.15182,0.0579 0.33005,-0.0151 0.17824,-0.073 0.23894,-0.21798 0.0675,-0.14777 -0.0392,-0.40827 -0.10112,-0.24679 -0.28664,-0.38694 -0.18832,-0.14701 -0.42026,-0.24413 -0.23474,-0.10397 -0.4941,-0.18985 -0.25531,-0.0956 -0.50129,-0.22694 -0.24598,-0.1314 -0.45958,-0.3401 -0.21361,-0.2087 -0.35404,-0.55146 z"
     style="font-variant:normal;font-weight:normal;font-stretch:normal;font-size:medium;font-family:'Bebas Neue';-inkscape-font-specification:BebasNeue;writing-mode:lr-tb;fill:#fffffe;fill-opacity:1;fill-rule:nonzero;stroke:none;stroke-width:0.35277775"
     id="path1048" />
  <path
     d="m 68.504967,48.04808 0.29769,0.62135 q 0.27208,0.56789 0.13872,1.00966 -0.12989,0.4319 -0.67105,0.69117 -0.54117,0.25928 -0.96582,0.0931 -0.42117,-0.17609 -0.69326,-0.74398 l -1.16515,-2.43193 q -0.27208,-0.5679 -0.1422,-0.99978 0.13336,-0.44178 0.67454,-0.70105 0.54116,-0.25928 0.96233,-0.0832 0.42466,0.1662 0.69674,0.7341 l 0.21766,0.45432 -0.69483,0.3329 -0.24008,-0.50109 q -0.12163,-0.25388 -0.27654,-0.30288 -0.15144,-0.0589 -0.32515,0.0243 -0.17371,0.0832 -0.22939,0.24134 -0.0522,0.14823 0.0694,0.40211 l 1.20997,2.52546 q 0.12163,0.25388 0.26986,0.30609 0.15492,0.049 0.32863,-0.0342 0.17371,-0.0832 0.22591,-0.23146 0.0589,-0.15143 -0.0627,-0.40531 l -0.3201,-0.66811 z"
     style="font-variant:normal;font-weight:normal;font-stretch:normal;font-size:medium;font-family:'Bebas Neue';-inkscape-font-specification:BebasNeue;writing-mode:lr-tb;fill:#fffffe;fill-opacity:1;fill-rule:nonzero;stroke:none;stroke-width:0.35277775"
     id="path1045" />
  <path
     d="m 67.449347,44.91661 0.7176,-0.38618 2.45754,4.56654 -0.7176,0.38619 z"
     style="font-variant:normal;font-weight:normal;font-stretch:normal;font-size:medium;font-family:'Bebas Neue';-inkscape-font-specification:BebasNeue;writing-mode:lr-tb;fill:#fffffe;fill-opacity:1;fill-rule:nonzero;stroke:none;stroke-width:0.35277775"
     id="path1042" />
  <path
     d="m 70.444897,45.74272 0.95786,-0.57785 0.38268,0.63434 -0.95785,0.57785 0.7845,1.3004 1.20524,-0.7271 0.38269,0.63434 -1.90302,1.14805 -2.67878,-4.44038 1.90302,-1.14805 0.38268,0.63434 -1.20525,0.7271 z"
     style="font-variant:normal;font-weight:normal;font-stretch:normal;font-size:medium;font-family:'Bebas Neue';-inkscape-font-specification:BebasNeue;writing-mode:lr-tb;fill:#fffffe;fill-opacity:1;fill-rule:nonzero;stroke:none;stroke-width:0.35277775"
     id="path1039" />
  <path
     d="m 72.231007,43.70603 2.1783,3.05985 -0.59749,0.42535 -3.00751,-4.22465 0.83286,-0.59292 2.48219,2.04326 -1.80021,-2.52875 0.59145,-0.42105 3.00752,4.22465 -0.68198,0.4855 z"
     style="font-variant:normal;font-weight:normal;font-stretch:normal;font-size:medium;font-family:'Bebas Neue';-inkscape-font-specification:BebasNeue;writing-mode:lr-tb;fill:#fffffe;fill-opacity:1;fill-rule:nonzero;stroke:none;stroke-width:0.35277775"
     id="path1036" />
  <path
     d="m 77.144937,42.15558 0.44599,0.52515 q 0.40762,0.47997 0.39105,0.94114 -0.0157,0.45072 -0.4731,0.83916 -0.45739,0.38844 -0.91035,0.33575 -0.45212,-0.0631 -0.85974,-0.54311 l -1.74558,-2.05543 q -0.40763,-0.47997 -0.39191,-0.93069 0.0166,-0.46117 0.47396,-0.84961 0.45739,-0.38844 0.9095,-0.3253 0.45297,0.0527 0.86059,0.53266 l 0.3261,0.38398 -0.58727,0.49874 -0.35966,-0.42351 q -0.18224,-0.21457 -0.34452,-0.22255 -0.16143,-0.0184 -0.30824,0.10627 -0.14682,0.12469 -0.16044,0.29177 -0.0128,0.15663 0.16946,0.37121 l 1.81272,2.13448 q 0.18223,0.21458 0.33887,0.22734 0.16228,0.008 0.30909,-0.11671 0.14682,-0.12468 0.15959,-0.28132 0.0184,-0.16143 -0.16381,-0.37601 l -0.47956,-0.56468 z"
     style="font-variant:normal;font-weight:normal;font-stretch:normal;font-size:medium;font-family:'Bebas Neue';-inkscape-font-specification:BebasNeue;writing-mode:lr-tb;fill:#fffffe;fill-opacity:1;fill-rule:nonzero;stroke:none;stroke-width:0.35277775"
     id="path1033" />
  <path
     d="m 77.402957,40.40723 0.78645,-0.79555 0.52685,0.52083 -0.78644,0.79554 1.08004,1.0677 0.98957,-1.00102 0.52686,0.52083 -1.56248,1.58055 -3.68797,-3.64579 1.56248,-1.58055 0.52685,0.52082 -0.98957,1.00102 z"
     style="font-variant:normal;font-weight:normal;font-stretch:normal;font-size:medium;font-family:'Bebas Neue';-inkscape-font-specification:BebasNeue;writing-mode:lr-tb;fill:#fffffe;fill-opacity:1;fill-rule:nonzero;stroke:none;stroke-width:0.35277775"
     id="path1030" />
  <path
     d="m 77.951697,38.49667 q -0.48747,-0.39863 -0.55795,-0.83907 -0.0715,-0.45086 0.30834,-0.91538 0.37987,-0.46454 0.83127,-0.4782 0.45035,-0.0241 0.93782,0.37453 l 0.15485,0.12663 -0.48774,0.59643 -0.19499,-0.15945 q -0.21793,-0.17821 -0.3743,-0.16254 -0.15741,0.005 -0.27935,0.15437 -0.12193,0.1491 -0.10052,0.31016 0.0204,0.15064 0.2383,0.32885 0.20646,0.16883 0.44207,0.20839 0.22988,0.0348 0.48581,0.0145 0.25019,-0.0251 0.52019,-0.0627 0.26894,-0.048 0.54781,-0.0497 0.27887,-0.002 0.5661,0.0801 0.28723,0.0818 0.57397,0.31625 0.48747,0.39862 0.55431,0.85522 0.0658,0.44617 -0.31408,0.9107 -0.37987,0.46453 -0.83491,0.49436 -0.45608,0.0194 -0.94355,-0.37923 l -0.27528,-0.22511 0.48773,-0.59643 0.31543,0.25794 q 0.21792,0.17821 0.37429,0.16253 0.16106,-0.0214 0.28299,-0.17052 0.12194,-0.14911 0.10626,-0.30548 -0.011,-0.1621 -0.22891,-0.34031 -0.20646,-0.16883 -0.43634,-0.2037 -0.23561,-0.0396 -0.48581,-0.0145 -0.25592,0.0204 -0.52488,0.0684 -0.26999,0.0376 -0.54886,0.0392 -0.27887,0.002 -0.56609,-0.0801 -0.28723,-0.0818 -0.57398,-0.31625 z"
     style="font-variant:normal;font-weight:normal;font-stretch:normal;font-size:medium;font-family:'Bebas Neue';-inkscape-font-specification:BebasNeue;writing-mode:lr-tb;fill:#fffffe;fill-opacity:1;fill-rule:nonzero;stroke:none;stroke-width:0.35277775"
     id="path1027" />
  <path
     d="m 29.777041,41.86795 0.01799,0.005 c -0.09172,-0.0437 -0.17921,-0.0709 -0.267406,-0.0977 -2.036937,-0.6096 -3.873852,-1.27248 -5.614458,-2.02601 C 22.02475,38.93219 20.243575,37.99768 18.618328,36.97251 16.758836,35.79882 15.208731,34.61137 13.879817,33.34101 12.358639,31.88792 11.142614,30.34734 10.162245,28.63143 9.29547,27.11307 8.703861,25.5538 8.403647,23.99593 8.091439,22.37492 8.085089,20.7031 8.385307,19.0267 c 0.297391,-1.66158 0.855486,-3.20604 1.706033,-4.72263 0.767292,-1.36737 1.751895,-2.67335 3.0099,-3.99239 1.512711,-1.58574 3.199342,-2.97109 5.156906,-4.23545 1.754011,-1.13242 3.680177,-2.13713 5.888566,-3.07128 0.968728,-0.40923 1.928636,-0.76765 2.740376,-1.06433 0.345723,-0.1263 0.691446,-0.25118 1.036108,-0.37571 0.369359,-0.13335 0.73519,-0.26811 1.101725,-0.40217 0.204613,-0.0723 0.41134,-0.14323 0.61454,-0.2166 -0.0011,0 -0.0088,-0.002 -0.01376,-0.003 l 0.01376,-0.005 -0.01622,0.005 c -0.01482,-0.003 -0.03563,-0.007 -0.05891,-0.003 -4.183603,0.82445 -8.181281,2.1777 -11.913317,4.25944 -3.260725,1.81857 -6.159147,4.07952 -8.360128,7.13705 -2.989438,4.15325 -3.994149,8.68468 -2.37878,13.62851 1.222022,3.74015 3.661834,6.62552 6.70807,9.02194 4.341988,3.41595 9.327091,5.44301 14.666735,6.67808 0.564444,0.13053 1.13524,0.23495 1.702858,0.35137 -0.06703,-0.0677 -0.138641,-0.1136 -0.212725,-0.14781"
     style="fill:#fffffe;fill-opacity:1;fill-rule:nonzero;stroke:none;stroke-width:0.35277775"
     id="path142" />
  <path
     d="M 31.334591,41.99022 C 32.257105,28.35359 32.310022,14.69227 31.258041,1.09657 h -0.25894 c -0.666044,12.07029 -0.55739,26.47491 0.02611,40.89365 z"
     style="fill:#fffffe;fill-opacity:1;fill-rule:nonzero;stroke:none;stroke-width:0.35277775"
     id="path146" />
  <path
     d="m 76.525277,25.3873 c -0.99412,2.93087 -2.70404,5.4737 -5.22746,7.77381 -4.15254,3.78495 -9.34437,6.97335 -15.02198,8.45044 0.11853,-6.63893 0.28434,-13.38792 0.40323,-20.06812 6.8072,0.054 13.61475,0.0515 20.52919,0.10054 -0.0311,1.25236 -0.2547,2.48109 -0.68298,3.74333 M 44.107475,43.4347 c -0.02752,0.002 -0.211666,0.004 -0.239537,0.006 0.218371,-0.006 0.591608,-0.0145 0.809979,-0.0138 3.151717,0.007 6.29108,-0.11677 9.4107,-0.59619 4.21216,-0.64735 8.28781,-1.75119 12.12709,-3.6322 4.66054,-2.28283 8.55062,-5.41937 11.15659,-10.01078 2.58304,-4.54977 3.00038,-9.2075 0.80046,-14.00492 -1.32433,-2.88744 -3.38914,-5.20483 -5.84659,-7.17475 -3.62267,-2.90371 -7.735,-4.82388 -12.14896,-6.11504 l -0.0204,-0.0109 -0.0868,-0.0194 c -0.24483,-0.0709 -0.48966,-0.14111 -0.73661,-0.2085 -0.94509,-0.25752 -2.92946,-0.69603 -4.05165,-0.86606 0,0 1.45415,0.49141 1.79105,0.58561 5.7143,1.45203 10.04994,4.3762 14.22506,8.14458 2.52342,2.27753 4.23333,4.79531 5.22746,7.69761 0.37536,1.09537 0.59337,2.16535 0.66252,3.24802 -6.87917,0.29598 -13.66626,0.53517 -20.48263,0.83432 -0.26035,-6.70454 -0.59267,-13.25209 -0.8502,-19.87021 -0.0699,10e-4 -0.1397,0.003 -0.2099,0.005 -0.51576,9.12778 -0.45614,18.26366 -0.29704,27.41013 0,0 0.21273,4.68454 0.28928,6.18278 0.13441,2.17488 0.14993,4.3621 0.29351,6.68761 -5.1315,1.02729 -12.062882,1.7272 -12.062882,1.7272"
     style="fill:#ffffff;fill-opacity:1;fill-rule:nonzero;stroke:none;stroke-width:0.35277775"
     id="path150" />
  <path
     d="m 76.525277,25.3873 c -0.99412,2.93087 -2.70404,5.4737 -5.22746,7.77381 -4.15254,3.78495 -9.34437,6.97335 -15.02198,8.45044 0.11853,-6.63893 0.28434,-13.38792 0.40323,-20.06812 6.8072,0.054 13.61475,0.0515 20.52919,0.10054 -0.0311,1.25236 -0.2547,2.48109 -0.68298,3.74333 z M 44.107475,43.4347 c -0.02752,0.002 -0.211666,0.004 -0.239537,0.006 0.218371,-0.006 0.591608,-0.0145 0.809979,-0.0138 3.151717,0.007 6.29108,-0.11677 9.4107,-0.59619 4.21216,-0.64735 8.28781,-1.75119 12.12709,-3.6322 4.66054,-2.28283 8.55062,-5.41937 11.15659,-10.01078 2.58304,-4.54977 3.00038,-9.2075 0.80046,-14.00492 -1.32433,-2.88744 -3.38914,-5.20483 -5.84659,-7.17475 -3.62267,-2.90371 -7.735,-4.82388 -12.14896,-6.11504 l -0.0204,-0.0109 -0.0868,-0.0194 c -0.24483,-0.0709 -0.48966,-0.14111 -0.73661,-0.2085 -0.94509,-0.25752 -2.92946,-0.69603 -4.05165,-0.86606 0,0 1.45415,0.49141 1.79105,0.58561 5.7143,1.45203 10.04994,4.3762 14.22506,8.14458 2.52342,2.27753 4.23333,4.79531 5.22746,7.69761 0.37536,1.09537 0.59337,2.16535 0.66252,3.24802 -6.87917,0.29598 -13.66626,0.53517 -20.48263,0.83432 -0.26035,-6.70454 -0.59267,-13.25209 -0.8502,-19.87021 -0.0699,10e-4 -0.1397,0.003 -0.2099,0.005 -0.51576,9.12778 -0.45614,18.26366 -0.29704,27.41013 0,0 0.21273,4.68454 0.28928,6.18278 0.13441,2.17488 0.14993,4.3621 0.29351,6.68761 -5.1315,1.02729 -12.062882,1.7272 -12.062882,1.7272"
     style="fill:none;stroke:#ffffff;stroke-width:0.35277775;stroke-linecap:butt;stroke-linejoin:miter;stroke-miterlimit:10;stroke-dasharray:none;stroke-opacity:1"
     id="path154" />
  <path
     d="m 32.766727,42.58588 c 4.238977,1.1684 7.927623,1.20615 8.147402,1.21215 0.266348,0.007 0.540809,0.0138 0.838907,0.0138 1.078793,0 2.547056,-0.0861 5.26556,-0.72461 4.519441,-1.24883 7.505701,-3.94899 8.875181,-8.02322 1.17475,-3.35915 -0.49248,-6.40045 -0.55986,-6.5211 -0.63429,-1.21461 -1.47602,-2.29235 -2.5019,-3.20428 -1.97167,-1.75225 -4.382554,-3.02119 -7.588246,-3.99344 -0.632883,-0.19192 -1.281287,-0.36689 -1.908175,-0.53587 -1.002242,-0.27058 -2.039054,-0.54998 -3.023304,-0.90312 -2.591858,-0.93062 -4.536371,-2.24754 -5.944306,-4.02625 -1.340909,-1.69298 -1.882775,-3.30835 -1.65735,-4.93748 0.560564,-4.0453 2.771775,-6.8774 6.572602,-8.41798 2.444398,-0.9906 5.147029,-1.45168 8.504414,-1.45168 0.756002,0 3.308345,-0.0635 6.220175,0.13688 l 0.018,-0.12735 C 50.217946,0.11713 47.2719,0.0441 46.335979,0.0441 c -2.320219,0 -4.4069,0.27728 -6.378575,0.84737 -4.155369,1.20156 -6.94055,3.68441 -8.278635,7.37941 -0.08361,0.23036 -0.15875,0.4639 -0.234244,0.69709 l -0.103013,0.31679 c -0.0032,0.009 -0.0762,0.22437 -0.155575,0.59337 -0.446968,2.0888 -0.03422,4.24956 1.16205,6.08366 0.319617,0.49036 0.707321,1.0608 1.158523,1.57197 2.452511,2.77813 5.829652,4.04919 8.498065,4.84611 0.513996,0.15346 1.030817,0.29951 1.547987,0.44556 1.253067,0.35348 2.548821,0.71931 3.770138,1.19204 2.606675,1.00929 4.541657,2.44828 5.914667,4.39984 1.09185,1.55152 1.52365,2.90548 1.3589,4.26015 -0.13829,1.13206 -0.48895,2.36008 -1.01494,3.55106 -1.21497,2.74849 -3.541533,4.59493 -7.112702,5.64515 -2.014363,0.59302 -4.217106,0.88124 -6.733823,0.88124 -1.165225,0 -4.831292,-0.009 -6.926792,-0.28505 z"
     style="fill:#ffffff;fill-opacity:1;fill-rule:nonzero;stroke:none;stroke-width:0.35277775"
     id="path158" />
  <path
     d="m 32.766727,42.58588 c 4.238977,1.1684 7.927623,1.20615 8.147402,1.21215 0.266348,0.007 0.540809,0.0138 0.838907,0.0138 1.078793,0 2.547056,-0.0861 5.26556,-0.72461 4.519441,-1.24883 7.505701,-3.94899 8.875181,-8.02322 1.17475,-3.35915 -0.49248,-6.40045 -0.55986,-6.5211 -0.63429,-1.21461 -1.47602,-2.29235 -2.5019,-3.20428 -1.97167,-1.75225 -4.382554,-3.02119 -7.588246,-3.99344 -0.632883,-0.19192 -1.281287,-0.36689 -1.908175,-0.53587 -1.002242,-0.27058 -2.039054,-0.54998 -3.023304,-0.90312 -2.591858,-0.93062 -4.536371,-2.24754 -5.944306,-4.02625 -1.340909,-1.69298 -1.882775,-3.30835 -1.65735,-4.93748 0.560564,-4.0453 2.771775,-6.8774 6.572602,-8.41798 2.444398,-0.9906 5.147029,-1.45168 8.504414,-1.45168 0.756002,0 3.308345,-0.0635 6.220175,0.13688 l 0.018,-0.12735 C 50.217946,0.11713 47.2719,0.0441 46.335979,0.0441 c -2.320219,0 -4.4069,0.27728 -6.378575,0.84737 -4.155369,1.20156 -6.94055,3.68441 -8.278635,7.37941 -0.08361,0.23036 -0.15875,0.4639 -0.234244,0.69709 l -0.103013,0.31679 c -0.0032,0.009 -0.0762,0.22437 -0.155575,0.59337 -0.446968,2.0888 -0.03422,4.24956 1.16205,6.08366 0.319617,0.49036 0.707321,1.0608 1.158523,1.57197 2.452511,2.77813 5.829652,4.04919 8.498065,4.84611 0.513996,0.15346 1.030817,0.29951 1.547987,0.44556 1.253067,0.35348 2.548821,0.71931 3.770138,1.19204 2.606675,1.00929 4.541657,2.44828 5.914667,4.39984 1.09185,1.55152 1.52365,2.90548 1.3589,4.26015 -0.13829,1.13206 -0.48895,2.36008 -1.01494,3.55106 -1.21497,2.74849 -3.541533,4.59493 -7.112702,5.64515 -2.014363,0.59302 -4.217106,0.88124 -6.733823,0.88124 -1.165225,0 -4.831292,-0.009 -6.926792,-0.28505 z"
     style="fill:none;stroke:#ffffff;stroke-width:0.08819444;stroke-linecap:butt;stroke-linejoin:miter;stroke-miterlimit:10;stroke-dasharray:none;stroke-opacity:1"
     id="path162" />
  <path
     d="m 28.559395,41.86795 0.01799,0.005 c -0.09137,-0.0437 -0.179213,-0.0709 -0.267406,-0.0977 -2.036939,-0.6096 -3.8735,-1.27248 -5.614458,-2.02601 -1.88842,-0.81703 -3.669595,-1.75154 -5.294842,-2.77671 -1.85949,-1.17371 -3.409243,-2.36116 -4.73851,-3.63152 C 11.140992,31.88792 9.924966,30.34734 8.94495,28.63143 8.077822,27.11307 7.486214,25.5538 7.186352,23.99593 6.873791,22.37492 6.867794,20.7031 7.167652,19.0267 7.465044,17.36512 8.023138,15.82066 8.874038,14.30407 9.640977,12.9367 10.62558,11.63072 11.883586,10.31168 13.396297,8.72594 15.082927,7.34059 17.040491,6.07623 18.794502,4.94381 20.720669,3.9391 22.929058,3.00495 23.897785,2.59572 24.858046,2.2373 25.669435,1.94062 26.015158,1.81432 26.36088,1.68944 26.705896,1.56491 27.075255,1.43156 27.440734,1.2968 27.807269,1.16274 c 0.204965,-0.0723 0.41134,-0.14323 0.614892,-0.2166 -0.0013,0 -0.0092,-0.002 -0.0141,-0.003 0.0046,-0.002 0.0095,-0.004 0.0141,-0.005 l -0.01659,0.005 c -0.01445,-0.003 -0.03562,-0.007 -0.0589,-0.003 -4.183596,0.82445 -8.181273,2.1777 -11.913309,4.25944 -3.260725,1.81857 -6.159147,4.07952 -8.360128,7.13705 -2.989086,4.15325 -3.99415,8.68468 -2.378428,13.62851 1.222022,3.74015 3.66148,6.62552 6.707717,9.02194 4.342341,3.41595 9.327091,5.44301 14.667088,6.67808 0.564092,0.13053 1.134885,0.23495 1.702507,0.35137 -0.06703,-0.0677 -0.138642,-0.1136 -0.212725,-0.14781"
     style="fill:#fffffe;fill-opacity:1;fill-rule:nonzero;stroke:none;stroke-width:0.35277775"
     id="path166" />
  <path
     d="m 30.117084,41.99022 c 0.92216,-13.63663 0.975431,-27.29795 -0.07655,-40.89365 h -0.25894 c -0.666043,12.07029 -0.557389,26.47491 0.02611,40.89365 z"
     style="fill:#fffffe;fill-opacity:1;fill-rule:nonzero;stroke:none;stroke-width:0.35277775"
     id="path170" />
  <path
     d="m 75.307777,25.3873 c -0.99413,2.93087 -2.70404,5.4737 -5.22746,7.77381 -4.15255,3.78495 -9.34438,6.97335 -15.02199,8.45044 0.11854,-6.63893 0.28434,-13.38792 0.40323,-20.06812 6.8072,0.054 13.61475,0.0515 20.5292,0.10054 -0.031,1.25236 -0.25471,2.48109 -0.68298,3.74333 M 42.889969,43.4347 c -0.02752,0.002 -0.211667,0.004 -0.239538,0.006 0.218371,-0.006 0.591256,-0.0145 0.809979,-0.0138 3.151717,0.007 6.291086,-0.11677 9.410697,-0.59619 4.21217,-0.64735 8.28781,-1.75119 12.12709,-3.6322 4.66055,-2.28283 8.55063,-5.41937 11.1566,-10.01078 2.58304,-4.54977 3.00037,-9.2075 0.80045,-14.00492 -1.32433,-2.88744 -3.38914,-5.20483 -5.84694,-7.17475 -3.62232,-2.90371 -7.73465,-4.82388 -12.14861,-6.11504 l -0.0204,-0.0109 -0.0868,-0.0194 c -0.24483,-0.0709 -0.49001,-0.14111 -0.7366,-0.2085 -0.9451,-0.25752 -2.92947,-0.69603 -4.05166,-0.86606 0,0 1.4538,0.49141 1.79106,0.58561 5.71429,1.45203 10.04993,4.3762 14.22505,8.14458 2.52342,2.27753 4.23334,4.79531 5.22746,7.69761 0.37536,1.09537 0.59338,2.16535 0.66252,3.24802 -6.87917,0.29598 -13.66626,0.53517 -20.48298,0.83432 -0.26,-6.70454 -0.59231,-13.25209 -0.84984,-19.87021 -0.0699,10e-4 -0.1397,0.003 -0.20991,0.005 -0.51576,9.12778 -0.45614,18.26366 -0.29704,27.41013 0,0 0.21273,4.68454 0.28928,6.18278 0.13441,2.17488 0.14993,4.3621 0.29351,6.68761 -5.131499,1.02729 -12.062878,1.7272 -12.062878,1.7272"
     style="fill:#ffffff;fill-opacity:1;fill-rule:nonzero;stroke:none;stroke-width:0.35277775"
     id="path174" />
  <path
     d="m 75.307777,25.3873 c -0.99413,2.93087 -2.70404,5.4737 -5.22746,7.77381 -4.15255,3.78495 -9.34438,6.97335 -15.02199,8.45044 0.11854,-6.63893 0.28434,-13.38792 0.40323,-20.06812 6.8072,0.054 13.61475,0.0515 20.5292,0.10054 -0.031,1.25236 -0.25471,2.48109 -0.68298,3.74333 z M 42.889969,43.4347 c -0.02752,0.002 -0.211667,0.004 -0.239538,0.006 0.218371,-0.006 0.591256,-0.0145 0.809979,-0.0138 3.151717,0.007 6.291086,-0.11677 9.410697,-0.59619 4.21217,-0.64735 8.28781,-1.75119 12.12709,-3.6322 4.66055,-2.28283 8.55063,-5.41937 11.1566,-10.01078 2.58304,-4.54977 3.00037,-9.2075 0.80045,-14.00492 -1.32433,-2.88744 -3.38914,-5.20483 -5.84694,-7.17475 -3.62232,-2.90371 -7.73465,-4.82388 -12.14861,-6.11504 l -0.0204,-0.0109 -0.0868,-0.0194 c -0.24483,-0.0709 -0.49001,-0.14111 -0.7366,-0.2085 -0.9451,-0.25752 -2.92947,-0.69603 -4.05166,-0.86606 0,0 1.4538,0.49141 1.79106,0.58561 5.71429,1.45203 10.04993,4.3762 14.22505,8.14458 2.52342,2.27753 4.23334,4.79531 5.22746,7.69761 0.37536,1.09537 0.59338,2.16535 0.66252,3.24802 -6.87917,0.29598 -13.66626,0.53517 -20.48298,0.83432 -0.26,-6.70454 -0.59231,-13.25209 -0.84984,-19.87021 -0.0699,10e-4 -0.1397,0.003 -0.20991,0.005 -0.51576,9.12778 -0.45614,18.26366 -0.29704,27.41013 0,0 0.21273,4.68454 0.28928,6.18278 0.13441,2.17488 0.14993,4.3621 0.29351,6.68761 -5.131499,1.02729 -12.062878,1.7272 -12.062878,1.7272"
     style="fill:none;stroke:#ffffff;stroke-width:0.35277775;stroke-linecap:butt;stroke-linejoin:miter;stroke-miterlimit:10;stroke-dasharray:none;stroke-opacity:1"
     id="path178" />
  <path
     d="m 31.549221,42.58588 c 4.238977,1.1684 7.927623,1.20615 8.147402,1.21215 0.266348,0.007 0.540808,0.0138 0.838554,0.0138 1.079146,0 2.547054,-0.0861 5.265912,-0.72461 4.519084,-1.24883 7.505698,-3.94899 8.874828,-8.02322 1.17511,-3.35915 -0.49212,-6.40045 -0.5595,-6.5211 -0.63465,-1.21461 -1.47638,-2.29235 -2.5019,-3.20428 -1.971678,-1.75225 -4.382913,-3.02119 -7.588253,-3.99344 -0.632883,-0.19192 -1.281287,-0.36689 -1.908175,-0.53587 -1.002241,-0.27058 -2.039054,-0.54998 -3.023304,-0.90312 -2.591858,-0.93062 -4.536723,-2.24754 -5.944658,-4.02625 -1.340556,-1.69298 -1.882775,-3.30835 -1.656998,-4.93748 0.560565,-4.0453 2.771775,-6.8774 6.572602,-8.41798 2.444398,-0.9906 5.146675,-1.45168 8.504415,-1.45168 0.756002,0 3.30835,-0.0635 6.220181,0.13688 l 0.018,-0.12735 C 49.00044,0.11713 46.05404,0.0441 45.118473,0.0441 c -2.320218,0 -4.4069,0.27728 -6.378575,0.84737 -4.155368,1.20156 -6.94055,3.68441 -8.278635,7.37941 -0.08361,0.23036 -0.159102,0.4639 -0.234244,0.69709 l -0.103364,0.31679 c -0.0028,0.009 -0.07585,0.22437 -0.155223,0.59337 -0.446969,2.0888 -0.03422,4.24956 1.16205,6.08366 0.319616,0.49036 0.707321,1.0608 1.158523,1.57197 2.45251,2.77813 5.829652,4.04919 8.49771,4.84611 0.513998,0.15346 1.031171,0.29951 1.548342,0.44556 1.253066,0.35348 2.548821,0.71931 3.770137,1.19204 2.606675,1.00929 4.541663,2.44828 5.914673,4.39984 1.09185,1.55152 1.52365,2.90548 1.3589,4.26015 -0.13829,1.13206 -0.48895,2.36008 -1.01494,3.55106 -1.21497,2.74849 -3.541539,4.59493 -7.112708,5.64515 -2.014714,0.59302 -4.217458,0.88124 -6.733823,0.88124 -1.165577,0 -4.831291,-0.009 -6.926791,-0.28505 z"
     style="fill:#ffffff;fill-opacity:1;fill-rule:nonzero;stroke:none;stroke-width:0.35277775"
     id="path182" />
  <path
     d="m 31.549221,42.58588 c 4.238977,1.1684 7.927623,1.20615 8.147402,1.21215 0.266348,0.007 0.540808,0.0138 0.838554,0.0138 1.079146,0 2.547054,-0.0861 5.265912,-0.72461 4.519084,-1.24883 7.505698,-3.94899 8.874828,-8.02322 1.17511,-3.35915 -0.49212,-6.40045 -0.5595,-6.5211 -0.63465,-1.21461 -1.47638,-2.29235 -2.5019,-3.20428 -1.971678,-1.75225 -4.382913,-3.02119 -7.588253,-3.99344 -0.632883,-0.19192 -1.281287,-0.36689 -1.908175,-0.53587 -1.002241,-0.27058 -2.039054,-0.54998 -3.023304,-0.90312 -2.591858,-0.93062 -4.536723,-2.24754 -5.944658,-4.02625 -1.340556,-1.69298 -1.882775,-3.30835 -1.656998,-4.93748 0.560565,-4.0453 2.771775,-6.8774 6.572602,-8.41798 2.444398,-0.9906 5.146675,-1.45168 8.504415,-1.45168 0.756002,0 3.30835,-0.0635 6.220181,0.13688 l 0.018,-0.12735 C 49.00044,0.11713 46.05404,0.0441 45.118473,0.0441 c -2.320218,0 -4.4069,0.27728 -6.378575,0.84737 -4.155368,1.20156 -6.94055,3.68441 -8.278635,7.37941 -0.08361,0.23036 -0.159102,0.4639 -0.234244,0.69709 l -0.103364,0.31679 c -0.0028,0.009 -0.07585,0.22437 -0.155223,0.59337 -0.446969,2.0888 -0.03422,4.24956 1.16205,6.08366 0.319616,0.49036 0.707321,1.0608 1.158523,1.57197 2.45251,2.77813 5.829652,4.04919 8.49771,4.84611 0.513998,0.15346 1.031171,0.29951 1.548342,0.44556 1.253066,0.35348 2.548821,0.71931 3.770137,1.19204 2.606675,1.00929 4.541663,2.44828 5.914673,4.39984 1.09185,1.55152 1.52365,2.90548 1.3589,4.26015 -0.13829,1.13206 -0.48895,2.36008 -1.01494,3.55106 -1.21497,2.74849 -3.541539,4.59493 -7.112708,5.64515 -2.014714,0.59302 -4.217458,0.88124 -6.733823,0.88124 -1.165577,0 -4.831291,-0.009 -6.926791,-0.28505 z"
     style="fill:none;stroke:#ffffff;stroke-width:0.08819444;stroke-linecap:butt;stroke-linejoin:miter;stroke-miterlimit:10;stroke-dasharray:none;stroke-opacity:1"
     id="path186" />
</svg>
