<?xml version="1.0" encoding="UTF-8" standalone="no"?>
<svg
   xmlns:dc="http://purl.org/dc/elements/1.1/"
   xmlns:cc="http://creativecommons.org/ns#"
   xmlns:rdf="http://www.w3.org/1999/02/22-rdf-syntax-ns#"
   xmlns:svg="http://www.w3.org/2000/svg"
   xmlns="http://www.w3.org/2000/svg"
   id="svg874"
   version="1.1"
   viewBox="0 0 268.08182 201.89685"
   height="201.89685mm"
   width="268.08182mm">
  <defs
     id="defs868" />
  <metadata
     id="metadata871">
    <rdf:RDF>
      <cc:Work
         rdf:about="">
        <dc:format>image/svg+xml</dc:format>
        <dc:type
           rdf:resource="http://purl.org/dc/dcmitype/StillImage" />
        <dc:title></dc:title>
      </cc:Work>
    </rdf:RDF>
  </metadata>
  <g
     transform="translate(24.42781,-46.373004)"
     id="layer1">
    <path
       d="m 228.47928,46.373004 c -8.38059,0 -15.17439,6.793089 -15.17439,15.174383 0,2.624314 0.66605,5.092347 1.83833,7.24535 -1.51095,0.752122 -5.02814,2.517069 -9.95574,5.076119 -1.83445,-3.758494 -5.6829,-6.354586 -10.1466,-6.354586 -6.23958,0 -11.2977,5.057775 -11.2977,11.297709 0,2.08421 0.57467,4.030133 1.55892,5.706179 -2.53365,1.398058 -5.16396,2.865263 -7.86165,4.391379 -1.58644,-2.413706 -4.31412,-4.009673 -7.41786,-4.009673 -4.90114,0 -8.87448,3.972984 -8.87448,8.874832 0,1.451327 0.3549,2.817283 0.97296,4.026252 -2.79223,1.665816 -5.60634,3.372552 -8.42115,5.110692 -1.12925,-0.95568 -2.58692,-1.53494 -4.18289,-1.53494 -3.57964,0 -6.48159,2.90231 -6.48159,6.48194 0,0.57538 0.0826,1.13065 0.22367,1.66158 -11.34781,7.372 -22.20278,15.09748 -30.99365,22.60283 C 102.01339,109.19849 86.8958,84.033796 65.854723,63.54552 c -0.01977,-0.01976 -0.03986,-0.03951 -0.05997,-0.05927 -2.461683,-2.426052 -4.501443,-1.356077 -1.671108,1.665464 0.03492,0.0381 0.07161,0.07796 0.107595,0.116417 17.85902,19.215808 31.88758,47.026339 41.44821,72.384709 -36.268727,30.97036 -76.250441,90.97962 -32.42874,109.83598 6.38034,2.74563 9.28829,-2.50373 6.54226,-4.11949 -0.49318,-0.29023 -20.010258,-10.84048 -7.603416,-43.2519 h 31.229296 c 1.67287,0 3.02895,-1.35643 3.02895,-3.0286 0,-1.67287 -1.35608,-3.02895 -3.02895,-3.02895 H 74.778589 c 1.676051,-3.58386 3.719691,-7.40268 6.180311,-11.46915 h 22.45925 c 1.67357,0 3.0286,-1.35608 3.0286,-3.02895 0,-1.67217 -1.35503,-3.0286 -3.0286,-3.0286 H 84.82006 c 2.3181,-3.46922 4.91984,-7.10001 7.84366,-10.90401 h 10.75443 c 1.67357,0 3.0286,-1.35607 3.0286,-3.02895 0,-1.67216 -1.35503,-3.0286 -3.0286,-3.0286 h -5.94784 c 3.39231,-4.14478 7.13564,-8.47442 11.27866,-13.00409 0.036,-0.0395 0.0716,-0.0787 0.10689,-0.11783 8.2356,23.84884 12.21211,44.18471 11.3404,50.96828 -0.47449,3.69146 -2.8568,5.23416 -3.81459,5.68854 -1.53458,0.72707 -2.16288,2.84445 0.24236,3.55317 7.67327,2.26237 12.39626,-5.35516 13.24645,-11.4688 0.85655,-6.1655 -3.33939,-28.73833 -14.41943,-55.64998 9.25794,-9.20997 19.94146,-18.0079 30.83171,-26.07063 0.9525,0.55033 2.05493,0.8703 3.23427,0.8703 3.57999,0 6.48194,-2.9023 6.48194,-6.48194 0,-0.43568 -0.0445,-0.86113 -0.127,-1.27317 2.89454,-2.01754 5.77674,-3.97828 8.62683,-5.87234 1.51623,1.20897 3.43358,1.93604 5.52379,1.93604 4.90079,0 8.87448,-3.972981 8.87448,-8.874474 0,-0.736955 -0.0995,-1.448859 -0.26882,-2.133248 2.84233,-1.764242 5.60035,-3.443111 8.25077,-5.030965 2.05775,2.152298 4.94947,3.499204 8.16186,3.499204 6.23959,0 11.29771,-5.057775 11.29771,-11.297708 0,-1.098905 -0.16475,-2.157942 -0.4572,-3.1623 4.82247,-2.685346 8.33932,-4.582584 10.05664,-5.562248 2.73191,4.004381 7.3279,6.634692 12.54125,6.634692 8.38059,0 15.17472,-6.793089 15.17472,-15.174736 0,-8.381294 -6.79413,-15.174383 -15.17472,-15.174383"
       style="fill:#ffffff;fill-opacity:0.99545455;fill-rule:nonzero;stroke:none;stroke-width:0.03527778"
       id="path14" />
    <path
       d="m 55.828427,167.82804 c 0.561975,-1.22873 1.03646,-2.54988 1.606198,-4.1589 0.564796,-1.51059 1.132769,-3.40007 1.604079,-5.5753 l 5.768269,-24.95056 c 0.471312,-2.5527 0.844198,-4.44182 0.946504,-5.57389 0.18556,-0.84984 0.18556,-1.79599 0.18556,-3.02401 0,-0.37817 0,-0.75671 0,-1.13488 H 78.98088 l -7.845426,34.68334 c -0.567973,2.45921 -0.940858,4.34657 -1.133123,5.66984 -0.285044,1.41782 -0.285044,2.73932 -0.285044,4.06436 h -13.88886"
       style="fill:#ffffff;fill-opacity:0.99545455;fill-rule:nonzero;stroke:none;stroke-width:0.03527778"
       id="path16" />
    <path
       d="m 20.274073,133.14328 c 0.283279,-0.85019 0.378884,-1.7025 0.378884,-2.2673 0,-0.37571 -0.0956,-0.6604 -0.188384,-0.94615 -0.382413,-0.5648 -1.322564,-0.84702 -2.646539,-0.84702 H -2.2207318 c -1.318507,0 -2.266738,0.28222 -2.834745,0.84702 -0.660647,0.57044 -1.130018,1.60973 -1.3214,3.21345 l -2.363329,10.20445 H 17.90905 Z m 3.024362,34.68476 h -38.653929 c -3.875052,0 -6.516744,-0.84984 -7.940259,-2.64654 -0.750478,-1.03717 -1.132057,-2.45322 -1.132057,-4.25168 0,-1.32327 0.188378,-2.92841 0.660771,-4.82353 l 4.822454,-20.97793 c 1.036426,-4.25238 2.547161,-7.27639 4.628268,-9.0752 2.171523,-1.79282 5.1046592,-2.64266 9.0743962,-2.64266 H 23.298435 c 4.063297,0 6.708775,0.84984 8.030282,2.64266 0.849842,1.0421 1.234017,2.46238 1.234017,4.35116 0,1.42028 -0.191913,2.92805 -0.664282,4.72404 l -3.119967,13.89627 h -38.842878 l -2.080401,9.06921 c -0.18743,0.94086 -0.280317,1.70392 -0.280317,2.17523 0,0.47131 0,0.85019 0.191417,1.0354 0.278236,0.57009 1.129983,0.85408 2.4570622,0.85408 H 18.56945 c 2.744259,0 5.294135,-0.28399 7.375525,-0.75142 l -2.64654,6.42091"
       style="fill:#ffffff;fill-opacity:0.99545455;fill-rule:nonzero;stroke:none;stroke-width:0.03527778"
       id="path18" />
    <path
       d="m 32.93315,167.82804 c 0.599721,-1.37443 1.101725,-2.85856 1.704621,-4.66055 0.603956,-1.69827 1.203679,-3.81459 1.702506,-6.25475 l 9.928225,-45.97929 c 0.600075,-2.86208 1.000477,-4.98193 1.20015,-6.25122 0.102307,-1.16734 0.202494,-2.7552 0.202494,-4.66372 h 13.834181 l -12.330993,56.89423 c -0.598313,2.75625 -1.003655,4.87821 -1.204032,6.36058 -0.299156,1.58856 -0.299156,3.0727 -0.299156,4.55472 H 32.93315"
       style="fill:#ffffff;fill-opacity:0.99545455;fill-rule:nonzero;stroke:none;stroke-width:0.03527778"
       id="path20" />
    <path
       d="m 131.23609,167.82804 c 0.56232,-1.22873 1.03469,-2.54988 1.60161,-4.1589 0.56973,-1.51059 1.13771,-3.40007 1.60619,-5.5753 l 5.76898,-24.95056 c 0.47131,-2.5527 0.84737,-4.44182 0.9398,-5.57389 0.19226,-0.84984 0.19226,-1.79599 0.19226,-3.02401 0,-0.37817 0,-0.75671 0,-1.13488 h 13.03938 l -7.84084,34.68334 c -0.56727,2.45921 -0.94686,4.34657 -1.13207,5.66984 -0.28575,1.41782 -0.28575,2.73932 -0.28575,4.06436 h -13.88956"
       style="fill:#ffffff;fill-opacity:0.99545455;fill-rule:nonzero;stroke:none;stroke-width:0.03527778"
       id="path22" />
    <path
       d="m 192.38764,130.87598 c -1.42063,-0.096 -2.83562,-0.18944 -4.44182,-0.18944 h -6.33307 c -1.22202,0 -2.26342,0.28222 -2.83104,0.75424 -0.75636,0.57009 -1.23049,1.51271 -1.6062,2.93088 l -5.29413,23.72218 c -0.94369,3.68582 -1.32116,6.5218 -1.32116,8.69491 0,0.38065 0,0.75354 0,1.03929 h -13.79855 c 0.56445,-1.41782 1.13207,-2.74497 1.50989,-4.06436 0.37853,-1.22661 0.85267,-3.11961 1.51342,-5.66984 l 5.66773,-24.95056 c 0.66251,-2.45674 0.94756,-4.34587 1.23331,-5.76333 0.18944,-1.32679 0.18944,-2.64548 0.18944,-3.96945 h 11.62121 l -0.47132,4.53425 c 0.75636,-1.50777 1.70074,-2.64231 2.92947,-3.39937 1.22767,-0.75671 2.83492,-1.13488 5.00592,-1.13488 h 11.34533 l 2.73615,4.90996 c -0.56515,0.47695 -1.03647,1.04457 -1.6062,1.79881 -0.65864,0.84949 -1.12995,1.22837 -1.41499,1.22837 -1.70004,-0.18662 -3.2191,-0.37888 -4.63339,-0.47166"
       style="fill:#ffffff;fill-opacity:0.99545455;fill-rule:nonzero;stroke:none;stroke-width:0.03527778"
       id="path24" />
    <path
       d="m 81.16845,107.87628 c 0,3.53095 -2.86244,6.39586 -6.395856,6.39586 -3.533071,0 -6.399038,-2.86491 -6.399038,-6.39586 0,-3.53377 2.865967,-6.39904 6.399038,-6.39904 3.533416,0 6.395856,2.86527 6.395856,6.39904"
       style="fill:#ffffff;fill-opacity:0.99545455;fill-rule:nonzero;stroke:none;stroke-width:0.03527778"
       id="path26" />
    <g
       id="text32"
       style="font-variant:normal;font-weight:normal;font-size:35.27777481px;font-family:'Serpentine Sans ICG';-inkscape-font-specification:SerpentineSansICGOblique;writing-mode:lr-tb;fill:#ffffff;fill-opacity:0.99545455;fill-rule:nonzero;stroke:none;stroke-width:0.35277775"
       aria-label="ITALY">
      <path
         id="path1441"
         style="stroke-width:0.35277775;fill:#ffffff;fill-opacity:0.99545455"
         d="m 103.1779,223.99907 -5.644443,22.57777 h -6.632221 l 5.644444,-22.57777 z" />
      <path
         id="path1443"
         style="stroke-width:0.35277775;fill:#ffffff;fill-opacity:0.99545455"
         d="m 126.00262,223.99907 -0.74083,2.89277 h -6.94972 l -4.90361,19.685 h -6.63223 l 4.90361,-19.685 h -6.94972 l 0.74084,-2.89277 z" />
      <path
         id="path1445"
         style="stroke-width:0.35277775;fill:#ffffff;fill-opacity:0.99545455"
         d="m 142.37116,246.57684 h -7.12611 l -1.23472,-6.42055 h -10.26584 l -4.37444,6.42055 h -3.175 l 15.76917,-22.57777 h 5.78555 z m -8.92528,-9.31333 -1.72861,-8.53722 -5.89139,8.53722 z" />
      <path
         id="path1447"
         style="stroke-width:0.35277775;fill:#ffffff;fill-opacity:0.99545455"
         d="m 164.49005,243.68407 -0.70556,2.89277 h -18.66194 l 5.64444,-22.57777 h 6.63222 l -4.93888,19.685 z" />
      <path
         id="path1449"
         style="stroke-width:0.35277775;fill:#ffffff;fill-opacity:0.99545455"
         d="m 187.24449,223.99907 -11.60639,13.0175 -2.39888,9.56027 h -6.91445 l 2.43417,-9.70138 -5.22111,-12.87639 h 7.72583 l 3.84528,9.73666 8.60778,-9.73666 z" />
    </g>
  </g>
</svg>
