<?xml version="1.0" encoding="UTF-8" standalone="no"?>
<svg
   xmlns:osb="http://www.openswatchbook.org/uri/2009/osb"
   xmlns:dc="http://purl.org/dc/elements/1.1/"
   xmlns:cc="http://creativecommons.org/ns#"
   xmlns:rdf="http://www.w3.org/1999/02/22-rdf-syntax-ns#"
   xmlns:svg="http://www.w3.org/2000/svg"
   xmlns="http://www.w3.org/2000/svg"
   xmlns:xlink="http://www.w3.org/1999/xlink"
   viewBox="0 0 453.54492 302.36246"
   height="302.36246"
   width="453.54492"
   xml:space="preserve"
   id="svg2"
   version="1.1"><metadata
     id="metadata8"><rdf:RDF><cc:Work
         rdf:about=""><dc:format>image/svg+xml</dc:format><dc:type
           rdf:resource="http://purl.org/dc/dcmitype/StillImage" /><dc:title></dc:title></cc:Work></rdf:RDF></metadata><defs
     id="defs6"><linearGradient
       osb:paint="solid"
       id="linearGradient869"><stop
         id="stop867"
         offset="0"
         style="stop-color:#ffffff;stop-opacity:1;" /></linearGradient><linearGradient
       osb:paint="solid"
       id="linearGradient863"><stop
         id="stop861"
         offset="0"
         style="stop-color:#000000;stop-opacity:1;" /></linearGradient><linearGradient
       gradientUnits="userSpaceOnUse"
       y2="122.45507"
       x2="349.229"
       y1="122.45507"
       x1="9.0703096"
       id="linearGradient871"
       xlink:href="#linearGradient869" /></defs><g
     transform="matrix(1.3333333,0,0,-1.3333333,-12.093746,314.45466)"
     id="g10"><path
       d="M 349.229,9.06914 V 235.841 H 9.07031 V 9.06914 H 349.229"
       style="fill:url(#linearGradient871);fill-opacity:1;fill-rule:nonzero;stroke:none;stroke-width:0.1"
       id="path16" /><path
       d="m 108.217,120.967 7.396,5.353 -9.144,0.018 -2.83,8.697 -2.821,-8.697 h -9.1442 l 7.4004,-5.375 -2.8222,-8.699 7.396,5.379 7.399,-5.37 -2.83,8.694"
       style="fill:url(#linearGradient863);fill-opacity:1;fill-rule:nonzero;stroke:none;stroke-width:0.1"
       id="path18" /><path
       d="m 118.385,83.1719 7.396,5.3535 -9.144,0.0184 -2.83,8.6984 -2.821,-8.6984 h -9.144 l 7.4,-5.3758 -2.822,-8.6973 7.394,5.3777 7.401,-5.3711 -2.83,8.6946"
       style="fill:url(#linearGradient863);fill-opacity:1;fill-rule:nonzero;stroke:none;stroke-width:0.1"
       id="path20" /><path
       d="m 146.148,55.4961 7.397,5.3523 -9.145,0.0188 -2.83,8.698 -2.82,-8.698 h -9.145 l 7.401,-5.375 -2.822,-8.6984 7.396,5.3789 7.399,-5.3711 -2.831,8.6945"
       style="fill:url(#linearGradient863);fill-opacity:1;fill-rule:nonzero;stroke:none;stroke-width:0.1"
       id="path22" /><path
       d="m 183.729,196.576 7.394,5.353 -9.144,0.018 -2.829,8.697 -2.822,-8.697 h -9.144 l 7.4,-5.375 -2.82,-8.697 7.394,5.377 7.401,-5.37 -2.83,8.694"
       style="fill:url(#linearGradient863);fill-opacity:1;fill-rule:nonzero;stroke:none;stroke-width:0.1"
       id="path24" /><path
       d="m 145.975,186.408 7.396,5.353 -9.144,0.018 -2.831,8.697 -2.822,-8.697 h -9.142 l 7.4,-5.375 -2.822,-8.697 7.394,5.377 7.401,-5.371 -2.83,8.695"
       style="fill:url(#linearGradient863);fill-opacity:1;fill-rule:nonzero;stroke:none;stroke-width:0.1"
       id="path26" /><path
       d="m 118.316,158.72 7.395,5.352 -9.145,0.019 -2.83,8.698 -2.82,-8.698 h -9.145 l 7.401,-5.375 -2.82,-8.697 7.394,5.377 7.4,-5.371 -2.83,8.695"
       style="fill:url(#linearGradient863);fill-opacity:1;fill-rule:nonzero;stroke:none;stroke-width:0.1"
       id="path28" /><path
       d="m 259.338,121.065 7.397,5.353 -9.146,0.019 -2.83,8.697 -2.82,-8.697 h -9.144 l 7.401,-5.377 -2.823,-8.697 7.396,5.379 7.399,-5.371 -2.83,8.694"
       style="fill:url(#linearGradient863);fill-opacity:1;fill-rule:nonzero;stroke:none;stroke-width:0.1"
       id="path30" /><path
       d="m 183.729,45.3965 7.394,5.3508 -9.143,0.0203 -2.83,8.6965 -2.822,-8.6965 h -9.144 l 7.4,-5.375 -2.82,-8.6992 7.394,5.3789 7.401,-5.3711 -2.83,8.6953"
       style="fill:url(#linearGradient863);fill-opacity:1;fill-rule:nonzero;stroke:none;stroke-width:0.1"
       id="path32" /><path
       d="m 249.293,83.1719 7.395,5.3535 -9.145,0.0184 -2.83,8.6984 -2.82,-8.6984 h -9.145 l 7.4,-5.3758 -2.822,-8.6973 7.396,5.3777 7.399,-5.3711 -2.828,8.6946"
       style="fill:url(#linearGradient863);fill-opacity:1;fill-rule:nonzero;stroke:none;stroke-width:0.1"
       id="path34" /><path
       d="m 249.222,158.72 7.396,5.352 -9.143,0.019 -2.831,8.698 -2.822,-8.698 h -9.145 l 7.402,-5.375 -2.821,-8.697 7.394,5.377 7.4,-5.371 -2.83,8.695"
       style="fill:url(#linearGradient863);fill-opacity:1;fill-rule:nonzero;stroke:none;stroke-width:0.1"
       id="path36" /><path
       d="m 221.648,55.4961 7.397,5.3523 -9.144,0.0188 -2.83,8.698 -2.821,-8.698 h -9.145 l 7.4,-5.375 -2.821,-8.6984 7.396,5.3789 7.399,-5.3711 -2.831,8.6945"
       style="fill:url(#linearGradient863);fill-opacity:1;fill-rule:nonzero;stroke:none;stroke-width:0.1"
       id="path38" /><path
       d="m 221.475,186.408 7.396,5.353 -9.145,0.018 -2.829,8.697 -2.822,-8.697 h -9.144 l 7.401,-5.375 -2.823,-8.697 7.396,5.377 7.4,-5.371 -2.83,8.695"
       style="fill:url(#linearGradient863);fill-opacity:1;fill-rule:nonzero;stroke:none;stroke-width:0.1"
       id="path40" /></g></svg>
