<?xml version="1.0" encoding="UTF-8" standalone="no"?>
<svg
   xmlns:dc="http://purl.org/dc/elements/1.1/"
   xmlns:cc="http://creativecommons.org/ns#"
   xmlns:rdf="http://www.w3.org/1999/02/22-rdf-syntax-ns#"
   xmlns:svg="http://www.w3.org/2000/svg"
   xmlns="http://www.w3.org/2000/svg"
   id="svg1447"
   version="1.1"
   viewBox="0 0 37.550197 22.873717"
   height="22.873716mm"
   width="37.550198mm">
  <defs
     id="defs1441" />
  <metadata
     id="metadata1444">
    <rdf:RDF>
      <cc:Work
         rdf:about="">
        <dc:format>image/svg+xml</dc:format>
        <dc:type
           rdf:resource="http://purl.org/dc/dcmitype/StillImage" />
        <dc:title></dc:title>
      </cc:Work>
    </rdf:RDF>
  </metadata>
  <g
     transform="matrix(5.585508,0,0,5.585508,-563.2915,-427.93275)"
     id="layer1"
     style="fill:#ffffff;fill-opacity:1">
    <path
       id="path5529-0"
       d="m 101.62024,76.61483 v 0.02539 2.597656 h 0.66796 c 0.4506,0 0.78551,-0.10623 1.00196,-0.320312 0.21763,-0.214085 0.32422,-0.5469 0.32422,-0.994141 0,-0.444943 -0.10578,-0.775342 -0.32227,-0.988281 -0.21535,-0.214166 -0.55104,-0.320312 -1.00391,-0.320312 z m 0.36328,0.335938 h 0.35156 c 0.31505,0 0.54152,0.08019 0.68359,0.234375 0.14316,0.15307 0.2168,0.397383 0.2168,0.738281 0,0.343219 -0.0736,0.589938 -0.2168,0.744141 -0.14207,0.15419 -0.36854,0.234375 -0.68359,0.234375 h -0.35156 z"
       style="color:#000000;font-style:normal;font-variant:normal;font-weight:normal;font-stretch:semi-condensed;font-size:3.52777767px;line-height:1.25;font-family:'DejaVu Sans';-inkscape-font-specification:'DejaVu Sans, Semi-Condensed';font-variant-ligatures:normal;font-variant-position:normal;font-variant-caps:normal;font-variant-numeric:normal;font-variant-alternates:normal;font-feature-settings:normal;text-indent:0;text-align:start;text-decoration:none;text-decoration-line:none;text-decoration-style:solid;text-decoration-color:#000000;letter-spacing:0px;word-spacing:0px;text-transform:none;writing-mode:lr-tb;direction:ltr;text-orientation:mixed;dominant-baseline:auto;baseline-shift:baseline;text-anchor:start;white-space:normal;shape-padding:0;clip-rule:nonzero;display:inline;overflow:visible;visibility:visible;opacity:1;isolation:auto;mix-blend-mode:normal;color-interpolation:sRGB;color-interpolation-filters:linearRGB;solid-color:#000000;solid-opacity:1;vector-effect:none;fill:#ffffff;fill-opacity:1;fill-rule:nonzero;stroke:none;stroke-width:0.05;stroke-linecap:butt;stroke-linejoin:miter;stroke-miterlimit:4;stroke-dasharray:none;stroke-dashoffset:0;stroke-opacity:1;color-rendering:auto;image-rendering:auto;shape-rendering:auto;text-rendering:auto;enable-background:accumulate" />
    <path
       style="fill:#ffffff;fill-opacity:1;stroke:none;stroke-width:0.35277781"
       d="m 105.00371,79.238276 h 0.23702 c 0.0496,0 0.0827,0 0.0827,-0.05512 0,-0.03307 -0.0331,-0.03307 -0.0772,-0.03307 h -0.226 c 0.0551,-0.314193 0.0717,-0.424436 0.0937,-0.496094 0.011,-0.05512 0.0661,-0.104731 0.12677,-0.104731 0,0 0.0662,0 0.11576,0.02756 -0.10473,0.03307 -0.11024,0.121267 -0.11024,0.132291 0,0.05512 0.0441,0.09371 0.0992,0.09371 0.0661,0 0.1378,-0.05512 0.1378,-0.148828 0,-0.115755 -0.11575,-0.176389 -0.24253,-0.176389 -0.11025,0 -0.23151,0.06063 -0.29766,0.181901 -0.0496,0.09371 -0.0661,0.20395 -0.12127,0.490582 h -0.19292 c -0.0496,0 -0.0827,0 -0.0827,0.05512 0,0.03307 0.0331,0.03307 0.0772,0.03307 h 0.1819 c 0,0.01654 -0.15434,0.89848 -0.21498,1.163064 -0.011,0.05512 -0.0551,0.237023 -0.17087,0.237023 -0.006,0 -0.0606,0 -0.11025,-0.02756 0.0992,-0.03307 0.11025,-0.121268 0.11025,-0.132292 0,-0.05512 -0.0441,-0.09371 -0.0992,-0.09371 -0.0662,0 -0.13781,0.05512 -0.13781,0.148828 0,0.110243 0.11576,0.176389 0.23703,0.176389 0.15434,0 0.26458,-0.159852 0.29214,-0.214973 0.0882,-0.165366 0.14883,-0.468533 0.15434,-0.496094 z m 0,0"
       id="path4622-91" />
    <path
       style="fill:#ffffff;fill-opacity:1;stroke:none;stroke-width:0.24267395"
       d="m 105.63879,80.220977 c -0.091,-0.193381 -0.12134,-0.345052 -0.12134,-0.561183 0,-0.216132 0.0303,-0.367803 0.12134,-0.561184 h -0.0531 c -0.11754,0.185797 -0.16304,0.34126 -0.16304,0.561184 0,0.219922 0.0455,0.375386 0.16304,0.561183 z m 0,0"
       id="path4618-2" />
    <path
       id="path4610-7"
       d="m 105.755,79.268562 v 0.443359 c 0,0.187065 0.15721,0.339844 0.34766,0.339844 0.17916,0 0.33007,-0.144891 0.33007,-0.328125 v -0.455078 h -0.0937 v 0.443359 c 0,0.135107 -0.11266,0.246094 -0.24804,0.246094 -0.13194,0 -0.23828,-0.102729 -0.23828,-0.234375 v -0.455078 z"
       style="color:#000000;font-style:normal;font-variant:normal;font-weight:normal;font-stretch:normal;font-size:medium;line-height:normal;font-family:sans-serif;font-variant-ligatures:normal;font-variant-position:normal;font-variant-caps:normal;font-variant-numeric:normal;font-variant-alternates:normal;font-feature-settings:normal;text-indent:0;text-align:start;text-decoration:none;text-decoration-line:none;text-decoration-style:solid;text-decoration-color:#000000;letter-spacing:normal;word-spacing:normal;text-transform:none;writing-mode:lr-tb;direction:ltr;text-orientation:mixed;dominant-baseline:auto;baseline-shift:baseline;text-anchor:start;white-space:normal;shape-padding:0;clip-rule:nonzero;display:inline;overflow:visible;visibility:visible;opacity:1;isolation:auto;mix-blend-mode:normal;color-interpolation:sRGB;color-interpolation-filters:linearRGB;solid-color:#000000;solid-opacity:1;vector-effect:none;fill:#ffffff;fill-opacity:1;fill-rule:nonzero;stroke:none;stroke-width:0.03;stroke-linecap:butt;stroke-linejoin:miter;stroke-miterlimit:4;stroke-dasharray:none;stroke-dashoffset:0;stroke-opacity:1;color-rendering:auto;image-rendering:auto;shape-rendering:auto;text-rendering:auto;enable-background:accumulate" />
    <path
       id="path4614-0"
       d="m 106.89562,79.268562 c -0.183,0 -0.33398,0.146533 -0.33398,0.326172 v 0.457031 h 0.0957 v -0.445312 c 0,-0.135387 0.1106,-0.246094 0.25,-0.246094 0.13165,0 0.23828,0.10676 0.23828,0.234375 v 0.457031 h 0.0918 c 0,-0.148439 0,-0.296878 0,-0.445317 0,-0.187065 -0.15496,-0.337891 -0.3418,-0.337891 z"
       style="color:#000000;font-style:normal;font-variant:normal;font-weight:normal;font-stretch:normal;font-size:medium;line-height:normal;font-family:sans-serif;font-variant-ligatures:normal;font-variant-position:normal;font-variant-caps:normal;font-variant-numeric:normal;font-variant-alternates:normal;font-feature-settings:normal;text-indent:0;text-align:start;text-decoration:none;text-decoration-line:none;text-decoration-style:solid;text-decoration-color:#000000;letter-spacing:normal;word-spacing:normal;text-transform:none;writing-mode:lr-tb;direction:ltr;text-orientation:mixed;dominant-baseline:auto;baseline-shift:baseline;text-anchor:start;white-space:normal;shape-padding:0;clip-rule:nonzero;display:inline;overflow:visible;visibility:visible;opacity:1;isolation:auto;mix-blend-mode:normal;color-interpolation:sRGB;color-interpolation-filters:linearRGB;solid-color:#000000;solid-opacity:1;vector-effect:none;fill:#ffffff;fill-opacity:1;fill-rule:nonzero;stroke:none;stroke-width:0.03;stroke-linecap:butt;stroke-linejoin:miter;stroke-miterlimit:4;stroke-dasharray:none;stroke-dashoffset:0;stroke-opacity:1;color-rendering:auto;image-rendering:auto;shape-rendering:auto;text-rendering:auto;enable-background:accumulate" />
    <path
       style="fill:#ffffff;fill-opacity:1;stroke:none;stroke-width:0.24267395"
       d="m 107.57154,79.659794 c 0,-0.219923 -0.0455,-0.375388 -0.16305,-0.561183 h -0.0531 c 0.091,0.19338 0.12134,0.345052 0.12134,0.561183 0,0.21613 -0.0303,0.367801 -0.12134,0.561183 h 0.0531 c 0.11755,-0.185797 0.16305,-0.34126 0.16305,-0.561183 z m 0,0"
       id="path4606-9" />
    <path
       id="path5527-6"
       d="m 100.84875,76.61483 v 0.02539 2.597656 h 0.36328 V 76.61483 Z"
       style="color:#000000;font-style:normal;font-variant:normal;font-weight:normal;font-stretch:semi-condensed;font-size:3.52777767px;line-height:1.25;font-family:'DejaVu Sans';-inkscape-font-specification:'DejaVu Sans, Semi-Condensed';font-variant-ligatures:normal;font-variant-position:normal;font-variant-caps:normal;font-variant-numeric:normal;font-variant-alternates:normal;font-feature-settings:normal;text-indent:0;text-align:start;text-decoration:none;text-decoration-line:none;text-decoration-style:solid;text-decoration-color:#000000;letter-spacing:0px;word-spacing:0px;text-transform:none;writing-mode:lr-tb;direction:ltr;text-orientation:mixed;dominant-baseline:auto;baseline-shift:baseline;text-anchor:start;white-space:normal;shape-padding:0;clip-rule:nonzero;display:inline;overflow:visible;visibility:visible;opacity:1;isolation:auto;mix-blend-mode:normal;color-interpolation:sRGB;color-interpolation-filters:linearRGB;solid-color:#000000;solid-opacity:1;vector-effect:none;fill:#ffffff;fill-opacity:1;fill-rule:nonzero;stroke:none;stroke-width:0.05;stroke-linecap:butt;stroke-linejoin:miter;stroke-miterlimit:4;stroke-dasharray:none;stroke-dashoffset:0;stroke-opacity:1;color-rendering:auto;image-rendering:auto;shape-rendering:auto;text-rendering:auto;enable-background:accumulate" />
    <path
       id="path5531-6"
       d="m 103.93664,76.61483 c 0,0.874349 0,1.748697 0,2.623046 h 0.36328 v -1.033203 h 0.36719 c 0.2637,0 0.46757,-0.06762 0.60547,-0.203125 0.13905,-0.135449 0.20703,-0.333634 0.20703,-0.591796 0,-0.255907 -0.068,-0.454446 -0.20703,-0.589844 -0.13788,-0.136678 -0.34174,-0.205078 -0.60547,-0.205078 z m 0.36328,0.335938 h 0.36719 c 0.14105,0 0.24634,0.04087 0.32031,0.119141 0.0751,0.07832 0.11329,0.190316 0.11329,0.339844 0,0.150708 -0.0382,0.261569 -0.11329,0.339843 -0.074,0.07827 -0.17926,0.119141 -0.32031,0.119141 h -0.36719 z"
       style="color:#000000;font-style:normal;font-variant:normal;font-weight:normal;font-stretch:semi-condensed;font-size:3.52777767px;line-height:1.25;font-family:'DejaVu Sans';-inkscape-font-specification:'DejaVu Sans, Semi-Condensed';font-variant-ligatures:normal;font-variant-position:normal;font-variant-caps:normal;font-variant-numeric:normal;font-variant-alternates:normal;font-feature-settings:normal;text-indent:0;text-align:start;text-decoration:none;text-decoration-line:none;text-decoration-style:solid;text-decoration-color:#000000;letter-spacing:0px;word-spacing:0px;text-transform:none;writing-mode:lr-tb;direction:ltr;text-orientation:mixed;dominant-baseline:auto;baseline-shift:baseline;text-anchor:start;white-space:normal;shape-padding:0;clip-rule:nonzero;display:inline;overflow:visible;visibility:visible;opacity:1;isolation:auto;mix-blend-mode:normal;color-interpolation:sRGB;color-interpolation-filters:linearRGB;solid-color:#000000;solid-opacity:1;vector-effect:none;fill:#ffffff;fill-opacity:1;fill-rule:nonzero;stroke:none;stroke-width:0.05;stroke-linecap:butt;stroke-linejoin:miter;stroke-miterlimit:4;stroke-dasharray:none;stroke-dashoffset:0;stroke-opacity:1;color-rendering:auto;image-rendering:auto;shape-rendering:auto;text-rendering:auto;enable-background:accumulate" />
    <path
       id="path5529-0-0"
       d="m 102.347,78.335456 h 0.14742 c 0.13212,0 0.22708,-0.03363 0.28666,-0.09828 0.0601,-0.06466 0.0909,-0.168125 0.0909,-0.312052 0,-0.142953 -0.0309,-0.245405 -0.0909,-0.309594 -0.0596,-0.06466 -0.15454,-0.09828 -0.28666,-0.09828 H 102.347 Z"
       style="color:#000000;font-style:normal;font-variant:normal;font-weight:normal;font-stretch:semi-condensed;font-size:3.52777767px;line-height:1.25;font-family:'DejaVu Sans';-inkscape-font-specification:'DejaVu Sans, Semi-Condensed';font-variant-ligatures:normal;font-variant-position:normal;font-variant-caps:normal;font-variant-numeric:normal;font-variant-alternates:normal;font-feature-settings:normal;text-indent:0;text-align:start;text-decoration:none;text-decoration-line:none;text-decoration-style:solid;text-decoration-color:#000000;letter-spacing:0px;word-spacing:0px;text-transform:none;writing-mode:lr-tb;direction:ltr;text-orientation:mixed;dominant-baseline:auto;baseline-shift:baseline;text-anchor:start;white-space:normal;shape-padding:0;clip-rule:nonzero;display:inline;overflow:visible;visibility:visible;opacity:1;isolation:auto;mix-blend-mode:normal;color-interpolation:sRGB;color-interpolation-filters:linearRGB;solid-color:#000000;solid-opacity:1;vector-effect:none;fill:#ffffff;fill-opacity:1;fill-rule:nonzero;stroke:none;stroke-width:0.02096724;stroke-linecap:butt;stroke-linejoin:miter;stroke-miterlimit:4;stroke-dasharray:none;stroke-dashoffset:0;stroke-opacity:1;color-rendering:auto;image-rendering:auto;shape-rendering:auto;text-rendering:auto;enable-background:accumulate" />
  </g>
</svg>
