<?xml version="1.0" encoding="UTF-8" standalone="no"?>
<svg
   xmlns:osb="http://www.openswatchbook.org/uri/2009/osb"
   xmlns:dc="http://purl.org/dc/elements/1.1/"
   xmlns:cc="http://creativecommons.org/ns#"
   xmlns:rdf="http://www.w3.org/1999/02/22-rdf-syntax-ns#"
   xmlns:svg="http://www.w3.org/2000/svg"
   xmlns="http://www.w3.org/2000/svg"
   id="svg2271"
   version="1.1"
   viewBox="0 0 10.16407 10.89256"
   height="10.89256mm"
   width="10.16407mm">
  <defs
     id="defs2265">
    <linearGradient
       osb:paint="solid"
       id="linearGradient1656"
       gradientTransform="translate(19.09098,-4.3198786)">
      <stop
         id="stop1654"
         offset="0"
         style="stop-color:#ffffff;stop-opacity:1;" />
    </linearGradient>
  </defs>
  <metadata
     id="metadata2268">
    <rdf:RDF>
      <cc:Work
         rdf:about="">
        <dc:format>image/svg+xml</dc:format>
        <dc:type
           rdf:resource="http://purl.org/dc/dcmitype/StillImage" />
        <dc:title></dc:title>
      </cc:Work>
    </rdf:RDF>
  </metadata>
  <g
     transform="translate(-110.57868,-123.73229)"
     id="layer1">
    <path
       id="path4478-2-0"
       d="m 119.4986,123.73229 -0.52148,0.084 0.041,0.26172 c 0.34408,2.17071 -0.27674,4.3822 -1.70704,6.05078 v 0.002 c -1.42298,1.67185 -3.50772,2.63282 -5.70898,2.63476 h -0.26563 l 0.002,0.52929 h 0.26365 c 2.35508,-0.002 4.58787,-1.03237 6.11133,-2.82227 1.53077,-1.78659 2.19427,-4.15629 1.82617,-6.47852 z m -2.72265,1.64649 -0.46485,0.25 0.125,0.23242 c 0.38383,0.7126 0.4535,1.53788 0.19532,2.31055 v 0.002 c -0.25009,0.76019 -0.81821,1.3816 -1.54883,1.71289 -0.7269,0.33206 -1.57325,0.34745 -2.3125,0.043 -0.7451,-0.31256 -1.32329,-0.91719 -1.60352,-1.67776 l -0.0918,-0.24804 -0.49609,0.18359 0.0918,0.24805 c 0.33052,0.89707 1.01473,1.61338 1.89453,1.98242 h 0.002 c 0.87674,0.36184 1.87205,0.34314 2.73438,-0.0508 0.86268,-0.39117 1.53422,-1.12367 1.83203,-2.02734 v -0.002 c 0.30262,-0.90736 0.22156,-1.88734 -0.23047,-2.72656 z m 1.63672,0.3418 -0.52735,0.0332 0.0176,0.26562 c 0.0907,1.36983 -0.38781,2.72379 -1.32031,3.75 -0.92676,1.01519 -2.23579,1.60538 -3.62109,1.63477 l -0.26368,0.006 0.01,0.52929 0.26562,-0.006 c 1.52826,-0.0324 2.97476,-0.68357 4,-1.80665 1.02868,-1.13129 1.55744,-2.6269 1.45703,-4.14257 z m 1.81054,0 -0.0508,0.25781 c -0.81204,4.16009 -4.12751,7.37593 -8.30078,8.08008 l -0.25976,0.0449 0.0879,0.52148 0.25976,-0.0449 c 4.3886,-0.74048 7.87831,-4.12439 8.73242,-8.5 l 0.0508,-0.25977 z m -7.0664,2.20312 -0.50391,0.16016 0.082,0.25195 c 0.2062,0.64532 0.75843,1.12722 1.43164,1.25391 h 0.002 l 0.002,0.002 c 0.6686,0.11509 1.35167,-0.15434 1.77344,-0.69336 l 0.16406,-0.20703 -0.41797,-0.32617 -0.16211,0.20703 c -0.30266,0.3868 -0.79292,0.57644 -1.26562,0.49609 -0.48402,-0.0922 -0.87803,-0.4375 -1.02344,-0.89258 z"
       style="color:#000000;font-style:normal;font-variant:normal;font-weight:normal;font-stretch:normal;font-size:medium;line-height:normal;font-family:sans-serif;font-variant-ligatures:normal;font-variant-position:normal;font-variant-caps:normal;font-variant-numeric:normal;font-variant-alternates:normal;font-feature-settings:normal;text-indent:0;text-align:start;text-decoration:none;text-decoration-line:none;text-decoration-style:solid;text-decoration-color:#000000;letter-spacing:normal;word-spacing:normal;text-transform:none;writing-mode:lr-tb;direction:ltr;text-orientation:mixed;dominant-baseline:auto;baseline-shift:baseline;text-anchor:start;white-space:normal;shape-padding:0;clip-rule:nonzero;display:inline;overflow:visible;visibility:visible;opacity:1;isolation:auto;mix-blend-mode:normal;color-interpolation:sRGB;color-interpolation-filters:linearRGB;solid-color:#000000;solid-opacity:1;vector-effect:none;fill:url(#linearGradient1656);fill-opacity:1;fill-rule:nonzero;stroke:none;stroke-width:0.52916682;stroke-linecap:square;stroke-linejoin:miter;stroke-miterlimit:3.25;stroke-dasharray:none;stroke-dashoffset:0;stroke-opacity:1;color-rendering:auto;image-rendering:auto;shape-rendering:auto;text-rendering:auto;enable-background:accumulate" />
  </g>
</svg>
