<?xml version="1.0" encoding="UTF-8" standalone="no"?>
<svg
   xmlns:osb="http://www.openswatchbook.org/uri/2009/osb"
   xmlns:dc="http://purl.org/dc/elements/1.1/"
   xmlns:cc="http://creativecommons.org/ns#"
   xmlns:rdf="http://www.w3.org/1999/02/22-rdf-syntax-ns#"
   xmlns:svg="http://www.w3.org/2000/svg"
   xmlns="http://www.w3.org/2000/svg"
   xmlns:xlink="http://www.w3.org/1999/xlink"
   id="svg1678"
   version="1.1"
   viewBox="0 0 11.504134 12.236889"
   height="12.236889mm"
   width="11.504134mm">
  <defs
     id="defs1672">
    <linearGradient
       gradientUnits="userSpaceOnUse"
       y2="433.95288"
       x2="416.03342"
       y1="433.95288"
       x1="372.55231"
       id="linearGradient1658"
       xlink:href="#linearGradient1656"
       gradientTransform="matrix(0.26458333,0,0,0.26458333,7.5576173,24.94519)" />
    <linearGradient
       osb:paint="solid"
       id="linearGradient1656">
      <stop
         id="stop1654"
         offset="0"
         style="stop-color:#ffffff;stop-opacity:1;" />
    </linearGradient>
  </defs>
  <metadata
     id="metadata1675">
    <rdf:RDF>
      <cc:Work
         rdf:about="">
        <dc:format>image/svg+xml</dc:format>
        <dc:type
           rdf:resource="http://purl.org/dc/dcmitype/StillImage" />
        <dc:title></dc:title>
      </cc:Work>
    </rdf:RDF>
  </metadata>
  <g
     transform="translate(-106.12926,-133.64311)"
     id="layer1">
    <path
       id="path5436"
       d="m 115.70037,133.64347 a 0.67694627,0.67694627 0 0 0 -0.10852,0.008 l -0.5116,0.0796 a 0.67694627,0.67694627 0 0 0 -0.54984,0.84439 l 0.0476,0.17725 c 0.0459,0.29466 0.0364,0.58965 0.0439,0.8847 a 0.67694627,0.67694627 0 0 0 -0.009,0 l -0.56484,0.0356 a 0.67694627,0.67694627 0 0 0 -0.34778,0.12402 l -0.005,-0.0212 a 0.67694627,0.67694627 0 0 0 -0.96945,-0.42323 l -0.50229,0.26458 a 0.67694627,0.67694627 0 0 0 -0.24185,0.98444 l 0.12351,0.17777 c 0.24562,0.46385 0.26878,1.01389 0.14004,1.55494 a 0.67694627,0.67694627 0 0 0 -0.8263,0.15399 l -0.17622,0.20309 a 0.67694627,0.67694627 0 0 0 -0.0222,0.0269 c -0.16626,0.21248 -0.36129,0.28786 -0.58085,0.25218 -0.22543,-0.0447 -0.45064,-0.25046 -0.51624,-0.45579 l -0.0687,-0.22221 a 0.67694627,0.67694627 0 0 0 -0.87127,-0.43977 l -0.50281,0.17674 a 0.67694627,0.67694627 0 0 0 -0.42943,0.81442 l 0.0615,0.22841 c -0.10993,-0.15446 -0.23428,-0.29949 -0.30179,-0.48008 l -0.0486,-0.17931 a 0.67694627,0.67694627 0 0 0 -0.87799,-0.46302 l -0.50281,0.17621 a 0.67694627,0.67694627 0 0 0 -0.39946,0.90072 l 0.11473,0.27337 c 0.37419,0.99404 1.10675,1.81085 2.08049,2.26808 a 0.67694627,0.67694627 0 0 0 -0.14986,0.5395 l 0.0786,0.49558 c -0.16336,0.0119 -0.32138,0.0531 -0.48628,0.0532 a 0.67694627,0.67694627 0 0 0 -0.0419,0.001 l -0.28215,0.0176 a 0.67694627,0.67694627 0 0 0 -0.63407,0.65268 l -0.0176,0.52038 a 0.67694627,0.67694627 0 0 0 0.37879,0.63045 0.67694627,0.67694627 0 0 0 -0.0274,0.31678 l 0.0796,0.51159 a 0.67694627,0.67694627 0 0 0 0.84439,0.54984 l 0.21084,-0.0563 c 4.64373,-0.80268 8.35909,-4.40158 9.26455,-9.04027 a 0.67694627,0.67694627 0 0 0 0.008,-0.0548 l 0.0264,-0.23771 a 0.67694627,0.67694627 0 0 0 -0.53747,-0.73846 l -0.52039,-0.10542 a 0.67694627,0.67694627 0 0 0 -0.0868,-0.0119 c -0.009,-0.38984 0.003,-0.7794 -0.0584,-1.1684 a 0.67694627,0.67694627 0 0 0 -0.015,-0.0703 l -0.0615,-0.22893 a 0.67694627,0.67694627 0 0 0 -0.64905,-0.50126 z m 0.004,0.67282 0.0413,0.262 c 0.3681,2.32223 -0.29547,4.69157 -1.82624,6.47816 -1.52346,1.7899 -3.75618,2.82057 -6.11126,2.82257 h -0.26406 l -0.002,-0.52968 h 0.26562 c 2.20126,-0.002 4.28571,-0.96261 5.70869,-2.63447 v -0.002 c 1.4303,-1.66858 2.05095,-3.88008 1.70687,-6.05079 l -0.0408,-0.26148 z m -2.72231,1.64642 0.12661,0.23254 c 0.45203,0.83922 0.53309,1.81909 0.23047,2.72645 v 0.002 c -0.29781,0.90366 -0.96925,1.63609 -1.83193,2.02726 -0.86233,0.39394 -1.85746,0.41248 -2.7342,0.0506 h -0.002 c -0.87979,-0.36904 -1.56393,-1.08523 -1.89445,-1.98231 l -0.092,-0.24804 0.4961,-0.18345 0.092,0.24804 c 0.28023,0.76057 0.85842,1.3654 1.60352,1.67794 0.73925,0.30445 1.58562,0.28865 2.31252,-0.0434 0.73062,-0.33129 1.29865,-0.95237 1.54874,-1.71256 v -0.002 c 0.25818,-0.77267 0.1885,-1.59785 -0.19533,-2.31045 l -0.12506,-0.23254 z m 1.63659,0.34209 0.0176,0.26355 c 0.10041,1.51567 -0.42808,3.0111 -1.45676,4.14239 -1.02524,1.12308 -2.47201,1.7742 -4.00027,1.80661 l -0.26562,0.006 -0.01,-0.52917 0.26355,-0.006 c 1.38531,-0.0294 2.69421,-0.61985 3.62097,-1.63504 0.9325,-1.02621 1.41103,-2.37981 1.32034,-3.74965 l -0.0176,-0.26561 z m 1.81023,0 0.51986,0.0992 -0.0512,0.25994 c -0.85411,4.37561 -4.34368,7.75926 -8.73228,8.49973 l -0.25942,0.045 -0.0884,-0.52141 0.25994,-0.045 c 4.17327,-0.70415 7.48874,-3.92004 8.30078,-8.08013 z m -7.06624,2.20297 0.0822,0.25218 c 0.14541,0.45508 0.53917,0.80025 1.02319,0.89245 0.4727,0.0804 0.96341,-0.10929 1.26607,-0.49609 l 0.16175,-0.20722 0.41806,0.32608 -0.16381,0.20722 c -0.42177,0.53902 -1.10494,0.80858 -1.77354,0.6935 l -0.002,-0.002 h -0.002 c -0.6732,-0.12669 -1.22523,-0.60887 -1.43143,-1.25419 l -0.0822,-0.25166 z"
       style="color:#000000;font-style:normal;font-variant:normal;font-weight:normal;font-stretch:normal;font-size:medium;line-height:normal;font-family:Sans;-inkscape-font-specification:Sans;text-indent:0;text-align:start;text-decoration:none;text-decoration-line:none;letter-spacing:normal;word-spacing:normal;text-transform:none;writing-mode:lr-tb;direction:ltr;baseline-shift:baseline;text-anchor:start;display:inline;overflow:visible;visibility:visible;fill:url(#linearGradient1658);fill-opacity:1;stroke:none;stroke-width:0;marker:none;enable-background:accumulate" />
  </g>
</svg>
