<?xml version="1.0" encoding="UTF-8" standalone="no"?>
<svg
   xmlns:osb="http://www.openswatchbook.org/uri/2009/osb"
   xmlns:dc="http://purl.org/dc/elements/1.1/"
   xmlns:cc="http://creativecommons.org/ns#"
   xmlns:rdf="http://www.w3.org/1999/02/22-rdf-syntax-ns#"
   xmlns:svg="http://www.w3.org/2000/svg"
   xmlns="http://www.w3.org/2000/svg"
   id="svg8170"
   version="1.1"
   viewBox="0 0 232.09697 89.004486"
   height="89.004486mm"
   width="232.09697mm">
  <defs
     id="defs8164">
    <linearGradient
       gradientTransform="matrix(1,0,0,1,0,0)"
       id="linearGradient1734"
       osb:paint="solid">
      <stop
         style="stop-color:#2074a5;stop-opacity:1;"
         offset="0"
         id="stop1732" />
    </linearGradient>
  </defs>
  <metadata
     id="metadata8167">
    <rdf:RDF>
      <cc:Work
         rdf:about="">
        <dc:format>image/svg+xml</dc:format>
        <dc:type
           rdf:resource="http://purl.org/dc/dcmitype/StillImage" />
        <dc:title></dc:title>
      </cc:Work>
    </rdf:RDF>
  </metadata>
  <g
     transform="translate(19.286583,-85.432279)"
     id="layer1">
    <g
       id="g8135"
       transform="translate(-19.287929,-23.352815)">
      <path
         style="color:#000000;font-style:normal;font-variant:normal;font-weight:normal;font-stretch:normal;font-size:medium;line-height:normal;font-family:sans-serif;font-variant-ligatures:normal;font-variant-position:normal;font-variant-caps:normal;font-variant-numeric:normal;font-variant-alternates:normal;font-feature-settings:normal;text-indent:0;text-align:start;text-decoration:none;text-decoration-line:none;text-decoration-style:solid;text-decoration-color:#000000;letter-spacing:normal;word-spacing:normal;text-transform:none;writing-mode:lr-tb;direction:ltr;text-orientation:mixed;dominant-baseline:auto;baseline-shift:baseline;text-anchor:start;white-space:normal;shape-padding:0;clip-rule:nonzero;display:inline;overflow:visible;visibility:visible;opacity:1;isolation:auto;mix-blend-mode:normal;color-interpolation:sRGB;color-interpolation-filters:linearRGB;solid-color:#000000;solid-opacity:1;vector-effect:none;fill:url(#linearGradient1734);fill-opacity:1;fill-rule:evenodd;stroke:none;stroke-width:2.83464575;stroke-linecap:butt;stroke-linejoin:miter;stroke-miterlimit:4;stroke-dasharray:none;stroke-dashoffset:0;stroke-opacity:1;color-rendering:auto;image-rendering:auto;shape-rendering:auto;text-rendering:auto;enable-background:accumulate"
         d="m 156.08203,411.15625 c -5.64768,4.72826 -19.48642,15.90136 -33.11523,29.75 -13.62882,13.84864 -27.21297,30.29247 -32.398441,46.78516 -0.508467,1.61722 -0.997697,3.30548 -1.474609,5.03125 -1.538861,-4.04769 -3.110582,-8.06316 -4.689453,-11.94727 -3.227754,-7.94048 -6.472993,-15.33018 -9.529297,-21.39258 -3.056307,-6.06236 -5.735047,-10.71072 -8.71875,-13.70898 l -5.669922,5.64062 c 1.531056,1.53854 4.338301,5.90984 7.242188,11.66993 2.903886,5.76003 6.089177,12.99332 9.263672,20.80273 3.019396,7.4279 6.026197,15.37509 8.8125,23.11719 -0.525879,2.75585 -0.997686,5.5865 -1.419922,8.46289 -3.994122,-7.11536 -7.827457,-13.6427 -11.076172,-18.80274 -3.48178,-5.5302 -5.7999,-9.20478 -8.4375,-11.49218 l -5.240235,6.04492 c 0.394462,0.34204 3.544253,4.36081 6.910157,9.70703 3.345805,5.31418 7.404059,12.24729 11.630859,19.82031 l -4.582031,5.61914 c 0.982775,0.80145 4.20202,4.66998 7.751953,9.87695 0.338099,0.49592 0.699136,1.04566 1.048828,1.56836 -0.07856,2.5278 -0.121075,5.05842 -0.08984,7.58399 0.217263,17.56968 3.110709,34.89203 10.869141,48.18945 2.191518,11.36169 5.732945,22.10321 11.154294,31.04297 -4.754619,-0.19779 -9.416042,-0.29735 -13.980466,-0.29101 l -2.787109,-6.91407 c -4.387283,1.76988 -8.214233,4.22198 -11.533203,7.12305 -4.589212,0.11996 -9.388224,0.28908 -14.251954,0.51367 -4.383046,-2.24942 -8.481467,-4.73535 -12.166015,-7.35547 -0.88255,-0.62759 -1.731009,-1.26529 -2.5625,-1.9082 0.380625,-1.11258 0.802836,-2.22306 1.279297,-3.32031 4.207993,-9.69067 11.829037,-18.41641 23.15625,-22.07227 l -2.451172,-7.61133 c -13.872786,4.4775 -23.117629,15.15148 -28.042969,26.49414 -0.132123,0.30427 -0.250504,0.61081 -0.376953,0.91602 -5.053656,-4.96854 -8.428916,-9.92266 -9.552734,-13.85352 -1.582438,-6.05487 -0.01187,-16.56456 5.205078,-25.74023 5.223515,-9.18724 13.716812,-17.0266 25.333984,-19.42188 l -1.615234,-7.84179 c -14.2495,2.93805 -24.562061,12.56643 -30.671875,23.3125 -6.109816,10.74606 -8.393899,22.60709 -5.986329,31.75586 l 0.0059,0.0391 0.01563,0.0371 c 1.984103,7.00636 7.22923,13.83679 14.511719,20.15625 -0.658151,2.74663 -1.084695,5.47052 -1.265625,8.12109 -1.331994,0.12282 -2.692165,0.23799 -3.982422,0.3711 -9.073594,0.93603 -16.979481,2.09234 -22.6777346,3.65234 -2.849127,0.78002 -5.1243658,1.55232 -7.09375,2.98242 -0.9846923,0.71505 -2.00693236,1.67674 -2.5605469,3.25586 -0.55112913,1.5721 -0.20151715,3.56963 0.57617188,4.84375 1.32974452,2.20229 3.15053022,3.35323 5.46875002,4.67969 2.32673,1.33138 5.2159256,2.64497 8.6601566,4.0293 6.888459,2.76873 15.988649,5.76979 26.640625,8.96289 5.419332,1.62452 11.244188,3.29873 17.357421,5.00781 0.0205,0.95375 0.06169,1.89845 0.140626,2.82422 -2.864855,0.53984 -5.681457,1.091 -8.375,1.6582 -8.929511,1.88035 -16.667311,3.85488 -22.173829,6.00195 -2.753258,1.07354 -4.945647,2.08343 -6.755859,3.71289 -0.905106,0.81476 -1.820984,1.8733 -2.207031,3.5 -0.384219,1.61896 0.167003,3.5716 1.070312,4.75977 1.55141,2.05648 3.490795,3.01275 5.935547,4.08984 2.453779,1.0811 5.463787,2.08657 9.035156,3.10157 7.142744,2.03006 16.515906,4.05798 27.453125,6.11132 5.062297,0.9504 10.486281,1.90608 16.136719,2.86524 -1.508704,0.39982 -3.030527,0.79802 -4.480469,1.20312 -8.399058,2.34667 -15.661372,4.72161 -20.808593,7.16016 -2.573613,1.21924 -4.623129,2.35704 -6.275391,4.08984 -0.826129,0.86638 -1.639874,1.97794 -1.912109,3.58008 -0.271408,1.59738 0.348699,3.45703 1.285156,4.5918 1.595236,1.94389 3.54022,2.84267 5.949219,3.80078 2.420201,0.96253 5.356979,1.81689 8.822265,2.65039 6.930573,1.66696 15.955593,3.21055 26.470703,4.70313 21.030222,2.98514 47.952392,5.75496 74.882812,8.55468 l 0.83399,-7.95703 c -26.93625,-2.80029 -53.81812,-5.57138 -74.587895,-8.51953 -10.384895,-1.47409 -19.25466,-2.99665 -25.732422,-4.55469 -3.238881,-0.77903 -5.884655,-1.57414 -7.736328,-2.31054 -0.321865,-0.12813 -0.203301,-0.12074 -0.472657,-0.25 0.663515,-0.41836 0.855448,-0.65134 1.896485,-1.14453 4.298608,-2.03653 11.356747,-4.40863 19.541015,-6.69532 6.961065,-1.94491 14.769599,-3.8418 22.597657,-5.59375 2.182685,0.34387 4.479675,0.68875 6.701175,1.03321 6.40664,1.73391 13.12099,2.91281 19.92383,3.33593 0.91777,0.0571 1.84796,0.0976 2.78515,0.12891 4.06865,0.61128 8.11997,1.22238 12.20703,1.83398 l 0.3125,-2.09961 c 22.55369,-1.54741 49.17477,-8.47967 76.42383,-16.1289 2.84022,-0.056 5.68999,-0.10749 8.53711,-0.16016 l 0.74805,14.07617 c 0.0972,1.80359 1.60657,3.15416 3.41015,3.05664 l 283.17774,-15.05664 -87.33985,-9.28906 H 213.44727 c -3.27322,-1.1e-4 -5.94912,-2.68385 -5.94922,-5.95703 v -10.24414 c -5.72954,-0.1276 -11.30113,-0.38338 -16.66211,-0.80859 -1.45618,-0.1155 -2.89005,-0.24828 -4.3125,-0.39063 4.10809,-0.84069 8.24077,-1.70756 12.39453,-2.5957 1.83745,-0.0609 3.68847,-0.13636 5.54687,-0.21875 1.95357,0.0655 3.91149,0.13403 5.86719,0.20117 v 14.05664 c 5e-5,1.7413 1.38173,3.12297 3.12305,3.12305 H 399.75 L 192.56445,662.24414 c -3.236,-0.34182 -5.60225,-3.27422 -5.25586,-6.50976 l 0.16993,-1.58985 c -11.38859,-1.53084 -22.16625,-3.45768 -31.90625,-6.04101 -0.40599,-1.52946 -0.76098,-3.12082 -1.08985,-4.73829 8.53099,-0.68511 17.25187,-1.5433 26.05274,-2.47265 1.58937,0.1149 3.20412,0.20843 4.81054,0.30859 2.08595,0.29098 4.17723,0.58496 6.26563,0.87695 l -1.49024,13.95118 c -0.18317,1.71084 1.035,3.21387 2.7461,3.39453 l 395.5957,42.07031 -2.61328,24.5293 v 0.008 c -0.23906,2.22425 1.76952,3.90182 3.91992,3.28516 l -0.008,0.008 113.94531,-32.73633 c 22.76128,1.41846 45.18066,3.10398 65.0293,6.59375 -0.4868,0.12134 -0.96623,0.24194 -1.45313,0.36328 l 1.9336,7.75977 c 2.77576,-0.69177 5.52481,-1.38317 8.29101,-2.07422 l 0.66211,3.59375 c 5.89568,-1.08923 11.78165,-2.17767 17.59375,-3.26563 10.06182,2.85167 21.08657,6.32824 30.28711,9.82422 6.78648,2.5787 12.60487,5.20125 16.0332,7.34375 0.97376,0.60851 1.17766,0.90112 1.69727,1.35156 -0.3035,0.16405 -0.17005,0.14558 -0.58984,0.31641 -1.55006,0.63062 -3.80574,1.30489 -6.57032,1.94922 -5.52914,1.28867 -13.12244,2.48391 -22.01367,3.56641 -17.78241,2.16495 -40.789,3.92912 -63.85156,5.66211 l 0.59766,7.97851 c 23.07076,-1.73363 46.13841,-3.50339 64.22265,-5.70508 9.04211,-1.10086 16.8238,-2.29991 22.86133,-3.70703 3.01875,-0.70363 5.59905,-1.45064 7.76562,-2.33203 2.16663,-0.88139 3.98756,-1.76545 5.4629,-3.64648 0.85712,-1.09301 1.40402,-2.70257 1.29101,-4.15625 -0.11338,-1.45837 -0.70524,-2.62604 -1.37305,-3.5586 -1.33557,-1.86508 -3.10076,-3.15028 -5.26367,-4.50195 -4.32586,-2.70338 -10.39755,-5.36773 -17.42773,-8.03906 -5.03746,-1.91413 -10.54527,-3.80254 -16.125,-5.58789 10.33747,-2.01681 20.09151,-4.02425 28.66601,-6.01172 8.88318,-2.05901 16.50537,-4.08366 22.36719,-6.14063 2.93091,-1.02848 5.41992,-2.05855 7.48438,-3.18164 2.04967,-1.11511 3.7638,-2.22144 5.01172,-4.25195 0.73281,-1.17377 1.10972,-2.83371 0.83593,-4.25977 -0.27666,-1.44079 -1.00023,-2.5222 -1.76562,-3.36718 -1.53082,-1.68998 -3.40781,-2.75893 -5.69922,-3.85938 -3.22881,-1.55059 -7.35609,-2.99372 -12.03711,-4.37695 -0.99867,-0.63077 -2.0925,-1.16669 -3.30078,-1.69922 -2.1643,-0.9539 -4.71073,-1.83318 -7.54492,-2.66016 3.31291,-4.17467 5.68929,-8.50058 6.81445,-12.88476 v -0.0234 l 0.006,-0.0215 c 1.31654,-5.36021 1.07162,-11.66381 -0.53906,-18.13867 9.06611,-8.59887 15.4044,-17.90147 16.73437,-26.89843 1.36022,-9.28158 -2.07132,-20.80506 -9.01367,-30.88672 -6.94235,-10.08167 -17.75718,-18.70715 -31.67578,-20.33594 l -0.29102,2.48437 c -5.18881,-3.27079 -11.12952,-5.48343 -17.7207,-5.96484 5.90904,-10.02893 11.04202,-18.34164 13.68555,-22.33008 l -6.66602,-4.42187 c -2.38071,3.59187 -6.46049,10.13352 -11.25195,18.14844 -0.59771,-1.47174 -1.22133,-2.94636 -1.88477,-4.42579 2.51093,-6.38596 5.14521,-12.84233 7.74024,-18.93164 3.16342,-7.42314 6.25485,-14.30072 8.93945,-19.79883 2.6846,-5.49811 5.09617,-9.73687 6.2832,-11.27929 l -6.33398,-4.87891 c -2.0826,2.70607 -4.35657,6.97054 -7.13086,12.65235 -2.77433,5.68183 -5.91472,12.66102 -9.11719,20.17578 -1.71012,4.01283 -3.43527,8.17719 -5.13281,12.375 -2.03549,-3.83813 -4.26593,-7.69808 -6.625,-11.57422 0.0874,-0.23633 0.17847,-0.49519 0.26562,-0.73047 3.53832,-9.55174 6.89239,-18.23168 9.60352,-24.74414 1.35556,-3.25625 2.55364,-5.97736 3.50586,-7.94336 0.95225,-1.96596 2.03899,-3.42546 1.60937,-2.98242 l -5.74218,-5.57617 c -1.49632,1.54303 -2.00109,2.87482 -3.06446,5.07031 -0.1048,0.21638 -0.23167,0.50996 -0.33984,0.73828 l -1.29102,-0.89258 c -0.56568,0.81914 -0.57833,1.01781 -0.82812,1.57227 -0.24983,0.55445 -0.53924,1.24554 -0.88477,2.08203 -0.69116,1.67297 -1.59051,3.9266 -2.64257,6.65039 -0.41174,1.06598 -0.94064,2.4893 -1.39649,3.68945 1.21334,-5.01857 2.44374,-9.98874 3.65625,-14.75586 2.47468,-9.72971 4.88412,-18.65072 6.9375,-25.5332 2.05338,-6.88244 4.15134,-12.20349 4.51172,-12.7793 l -6.78516,-4.24414 c -1.90529,3.04415 -3.29174,7.67978 -5.39648,14.73438 -2.10474,7.05464 -4.52731,16.05295 -7.01953,25.85156 -1.87967,7.3903 -3.76989,15.21843 -5.60742,23.01367 -3.19174,-4.64976 -6.50011,-9.31288 -9.875,-13.98437 0.67967,-3.55193 1.36182,-7.14126 2.03125,-10.53516 1.98742,-10.07584 3.8771,-19.23089 5.36718,-26.08008 0.74502,-3.42459 1.38988,-6.2754 1.89063,-8.35547 0.50071,-2.07998 1.08107,-3.82263 0.88476,-3.35937 l -7.35937,-3.12305 c -0.59634,1.40708 -0.76729,2.4317 -1.29102,4.60742 -0.52376,2.17573 -1.18071,5.06467 -1.93359,8.52539 -1.50576,6.92141 -3.40049,16.11744 -5.39649,26.23633 -0.20598,1.04497 -0.41713,2.17912 -0.625,3.24219 -1.55039,-2.11748 -3.094,-4.23378 -4.64648,-6.35156 l -6.45117,4.73242 c 3.0316,4.13552 6.04883,8.27093 9.01758,12.39258 -0.57241,3.02044 -1.11825,6.01574 -1.67774,9.05664 -6.96321,-8.8218 -14.35303,-17.66857 -21.70508,-26.50586 l -6.14843,5.11523 c 8.44081,10.14604 16.78948,20.29689 24.4375,30.28907 l -5.88672,3.43945 c 1.83449,3.14317 3.6609,6.2851 5.4668,9.41992 -0.96226,5.78715 -1.82761,11.28392 -2.50782,16.14258 v 0.008 0.008 c -2.328,17.11767 -2.10019,37.03925 -2.53125,55.27539 -0.43105,18.23615 -1.70638,34.85229 -5.95117,44.28516 l -0.008,0.008 c -4.41487,9.87209 -10.76356,15.15811 -18.64063,18.70508 -0.35943,0.16214 -0.72563,0.31481 -1.09179,0.46875 -0.82678,0.21128 -1.66584,0.41307 -2.50977,0.60938 -0.36744,0.0541 -0.71947,0.0934 -1.08398,0.14453 L 615.55469,612.93359 c -0.38684,-0.15685 -0.80134,-0.23607 -1.21875,-0.22851 v -0.002 c -1.72271,0.0253 -3.07828,1.40015 -3.07813,3.12305 v 17.97656 l 84.60352,45.35938 28.3457,-11.51563 c 3.42029,-0.32114 6.83034,-0.63041 10.2207,-0.92187 3.2084,-0.12083 6.40437,-0.23194 9.58399,-0.32813 -0.84202,1.70857 -1.72227,3.27346 -2.65625,4.63282 v 0.008 c -6.11282,8.92475 -13.60079,13.12015 -22.41797,15.34766 -0.30765,0.0779 -0.62074,0.14618 -0.93164,0.21875 -4.24807,0.36408 -8.6799,0.51989 -13.23828,0.54492 L 600.24414,631.10742 c -1.96789,-1.05513 -4.28237,0.16675 -4.52539,2.38477 v 0.008 l -2.59766,24.4043 -395.61132,-42.07813 c -0.0984,-0.0113 -0.19605,-0.0135 -0.29493,-0.0137 h -0.008 c -1.5938,-0.0105 -2.91472,1.16735 -3.08594,2.75195 l -1.38476,12.96289 c -0.252,0.0273 -0.50366,0.0545 -0.75586,0.082 -13.9875,-2.82975 -27.43759,-5.94565 -39.63672,-9.68165 -0.17387,-10.9775 0.83094,-21.96515 2.50586,-30.81054 2.25387,-11.63482 10.53604,-26.91578 19.31055,-40.20899 8.7745,-13.2932 17.94068,-24.70844 21.88867,-29.66015 l -6.25391,-4.98243 c -3.91868,4.91498 -13.28895,16.56287 -22.31445,30.23633 -9.0255,13.67346 -17.80491,29.26388 -20.48438,43.09571 l -0.008,0.008 v 0.008 c -1.64765,8.69598 -2.67554,19.08144 -2.67773,29.69141 -0.80859,-0.28117 -1.61559,-0.56154 -2.41016,-0.84961 0.37422,-13.96276 2.29314,-28.16322 4.91797,-39.60352 3.305,-14.4048 13.66391,-33.27625 24.4043,-49.79101 10.74038,-16.51484 21.77814,-30.76963 26.47851,-36.94727 l -6.36328,-4.8418 c -1.0378,1.36399 -2.50266,3.27919 -4.125,5.41797 l -5.64844,-5.16015 c -4.21106,4.60584 -14.53466,15.59608 -24.6914,28.69336 -10.15674,13.09731 -20.25469,28.21233 -24.08008,42.14257 v 0.008 0.0156 c -3.31505,12.304 -5.6809,28.14124 -5.66797,43.52735 -0.75452,-1.97508 -1.55871,-3.92626 -2.4668,-5.82227 -0.20024,-0.4181 -0.42766,-0.87166 -0.63476,-1.29883 1.18092,-16.48845 4.62819,-33.62033 8.71679,-46.85156 4.50065,-14.5646 16.4496,-32.88219 28.5918,-48.73633 12.1422,-15.85413 24.39184,-29.33561 29.64453,-35.26172 l -5.98633,-5.30859 c -0.57349,0.64701 -1.53603,1.72851 -2.28125,2.56445 l -0.68554,-0.78515 c -3.42981,3.00104 -10.36646,8.98051 -18.26953,16.55468 0.10343,-0.12497 0.28465,-0.34399 0.38281,-0.46289 l -5.52149,-4.55664 c 0.64289,-0.68854 1.28235,-1.39602 1.92579,-2.07422 13.74085,-14.48318 27.35461,-26.57816 33.20507,-31.89062 l -5.38281,-5.92578 c -5.74953,5.22085 -19.60505,17.52704 -33.63086,32.31054 -14.02581,14.78351 -28.29528,31.9528 -35.09375,47.88672 -5.46085,12.61486 -10.58921,28.56633 -13.70312,44.59375 -0.55961,-9.59044 -1.51507,-19.36026 -4.4043,-28.50195 -0.099,-0.31339 -0.21324,-0.65661 -0.31445,-0.97461 0.0979,-0.51306 0.18909,-1.0477 0.29101,-1.54883 2.94458,-14.41614 13.98291,-31.76554 25.71094,-46.54883 11.72803,-14.78316 23.97214,-27.06026 29.24805,-32.53906 l -5.75782,-5.55273 c -5.12409,5.32116 -17.68384,17.90629 -29.75586,33.12304 -9.62815,12.13634 -19.04103,25.90476 -24.216792,39.56446 -0.853825,-2.48241 -1.729537,-4.99875 -2.644531,-7.56641 1.185509,-5.86832 2.581535,-11.35742 4.109375,-16.2168 4.414528,-14.04068 17.234808,-30.12475 30.472658,-43.57617 13.23784,-13.4513 26.72789,-24.35287 32.54687,-29.22461 z m 29.01758,84.35547 c -5.55547,7.38717 -13.05663,17.61724 -20.58008,29.18555 -10.95961,16.85189 -21.73443,35.97201 -25.49609,52.36718 -1.61858,7.05458 -2.96476,15.0159 -3.88282,23.32813 0.14672,-14.09638 2.36945,-28.77391 5.37305,-39.92188 3.24492,-11.80089 12.81278,-26.61459 22.68555,-39.3457 8.49138,-10.9498 16.89812,-20.16765 21.90039,-25.61328 z m 585.66406,4.28906 c 3.26328,4.65479 6.4165,9.27868 9.41211,13.85742 -0.58439,2.56876 -1.14531,5.07896 -1.69531,7.56446 -2.90411,-4.30269 -6.0161,-8.61879 -9.27149,-12.94336 0.50261,-2.80774 1.0307,-5.64232 1.55469,-8.47852 z m -3.51172,19.66797 c 3.14525,4.41283 6.08263,8.7775 8.76367,13.08008 -0.16264,0.77449 -0.30586,1.48727 -0.46289,2.24414 -2.71677,-4.91144 -5.53118,-9.84397 -8.38867,-14.78711 0.0312,-0.18475 0.0565,-0.35181 0.0879,-0.53711 z m -675.806638,3.73828 c 0.542294,1.63398 1.027771,3.15207 1.53125,4.70703 -0.141869,0.80465 -0.283246,1.61069 -0.416015,2.43555 -0.508569,-0.95789 -1.022196,-1.90015 -1.533203,-2.85352 0.128252,-1.43469 0.25913,-2.86878 0.417968,-4.28906 z m 698.517578,6.35938 c 2.27311,3.98951 4.36807,7.92526 6.22461,11.79101 -0.89987,2.32354 -1.78006,4.62582 -2.62891,6.89063 -1.69349,-4.03677 -3.69301,-8.09487 -5.93554,-12.16797 0.7851,-2.20813 1.55272,-4.33198 2.33984,-6.51367 z m -24.83789,3.125 c 2.79743,5.00528 5.50798,9.97512 8.06445,14.88476 -0.39946,2.65575 -0.75855,5.35395 -1.08203,8.08399 -0.48215,1.65443 -0.90389,3.19621 -1.32812,4.74218 -1.62534,4.86275 -3.16392,9.53744 -4.47266,13.6875 -1.72429,5.3986 -3.18874,11.15276 -4.51758,17.05469 0.38129,-17.8473 0.3037,-36.73157 2.42774,-52.36133 v -0.0156 c 0.26455,-1.88923 0.59221,-4.00607 0.9082,-6.07617 z m -644.09375,8.11328 c -2.74386,9.80109 -4.86918,20.63268 -5.73437,31.24804 -0.14005,1.71822 -0.24763,3.43021 -0.32227,5.13282 -0.0229,-0.0426 -0.0435,-0.0843 -0.0664,-0.12696 -0.009,-6.74063 0.36261,-13.11042 1.04688,-18.73632 v -0.0156 c 0.67954,-5.39903 2.50405,-11.34887 5.07617,-17.50195 z m 662.86719,5.87304 c 2.22475,4.57299 4.05491,9.05042 5.38086,13.40235 -0.11702,0.3368 -0.22375,0.65673 -0.33985,0.99219 -1.81539,-4.01781 -3.76057,-8.06572 -5.83398,-12.14258 0.25723,-0.74403 0.53313,-1.50411 0.79297,-2.25196 z m -693.42969,3.74219 c 0.0054,0.009 0.01021,0.0165 0.01563,0.0254 -0.0029,0.0563 -0.005,0.11362 -0.0078,0.16992 -0.0032,-0.065 -0.0047,-0.13026 -0.0078,-0.19531 z m 710.25586,1.50977 c 0.28996,0.77536 0.5635,1.54613 0.83008,2.31445 -1.23793,2.12511 -2.48989,4.29599 -3.75977,6.51758 -0.0403,-0.15848 -0.072,-0.31605 -0.11328,-0.47461 0.95078,-2.6835 1.9683,-5.47784 3.04297,-8.35742 z m 10.3418,1.96484 -0.21485,2.92383 c -0.15529,-0.56387 -0.34022,-1.13194 -0.50781,-1.69727 0.24302,-0.41393 0.48217,-0.81834 0.72266,-1.22656 z m -31.43946,6.64453 c 2.07037,4.40905 3.96732,8.7464 5.65625,12.9961 -1.11694,4.91782 -1.92972,9.97885 -2.62109,15.04492 -2.14943,4.21355 -4.16157,8.30327 -5.91016,12.10547 -0.1996,0.43183 -0.38543,0.87357 -0.57812,1.31054 0.22986,-2.46967 0.44689,-4.96378 0.65234,-7.49609 0.90982,-11.21415 1.63469,-22.89458 2.80078,-33.96094 z m 32.47657,1.44727 c 9.82798,1.272 18.0719,7.51913 23.88867,15.45508 6.13194,8.36594 9.21124,18.60513 8.67383,24.83984 v 0.0234 0.0137 c -0.22401,2.88694 -1.39344,6.40981 -3.36329,10.20117 -5.7357,-6.67456 -13.36033,-12.03222 -22.82812,-14.19336 l -1.7793,7.80274 c 8.42185,1.92238 15.17106,7.06209 20.125,13.55664 -1.53917,2.10528 -3.2808,4.22564 -5.21289,6.30664 -7.8291,8.43258 -18.5661,16.32855 -30.22851,21.20898 -4.62561,1.93572 -9.85478,3.54932 -15.56055,4.90625 7.40475,-10.85707 13.2297,-22.98814 15.06836,-35.4082 7.9487,-14.05042 13.5562,-29.90537 12.56055,-45.26758 v -0.006 l -0.008,-0.008 c -0.21656,-3.11652 -0.67607,-6.26097 -1.33593,-9.42969 z m -713.841801,1.65234 c 0.168282,3.26268 0.332292,6.53069 0.544922,9.77149 0.388626,5.92323 0.962572,11.80016 2.119139,17.39257 -0.0512,-0.0824 -0.0976,-0.17097 -0.14844,-0.2539 -0.55141,-2.9705 -1.009126,-5.99848 -1.373043,-9.0625 -0.700523,-5.89812 -1.054151,-11.90701 -1.142578,-17.84766 z m 706.277341,1.4961 c 0.44985,2.32191 0.76681,4.6032 0.92188,6.83593 0.54142,8.41814 -1.33182,17.49385 -4.73242,26.41992 -0.45206,-3.25471 -1.09613,-6.55321 -1.92188,-9.89453 0.82758,-4.96329 1.19219,-9.95423 0.96484,-14.89062 1.58732,-2.85511 3.18045,-5.69029 4.76758,-8.4707 z m 34.56055,3.45898 c 6.14415,3.11032 11.2522,7.99735 15.11133,13.60156 5.95763,8.65168 8.59007,19.00242 7.68359,25.1875 -0.77867,5.25342 -4.97821,12.5461 -11.68164,19.61133 -0.73009,-1.70757 -1.53967,-3.40522 -2.44727,-5.07617 -0.39713,-0.73092 -0.81622,-1.45615 -1.25,-2.17578 3.48928,-5.64351 5.69758,-11.33105 6.12305,-16.79688 0.78852,-9.22821 -3.06576,-20.50742 -10.19531,-30.23437 -1.03586,-1.41321 -2.15758,-2.78717 -3.34375,-4.11719 z m -45.64063,38.92969 c 0.0234,0.99379 0.0291,1.9807 -0.002,2.95117 -0.0505,1.20254 -0.16813,2.41578 -0.31641,3.63281 -2.48876,4.27173 -5.22078,8.37976 -8.07031,12.22266 0.21468,-0.84858 0.4185,-1.70626 0.61133,-2.57227 2.9146,-5.11424 5.569,-10.57547 7.77734,-16.23437 z m -688.0332,0.41015 c 0.36327,0.31204 0.71632,0.63135 1.08789,0.9375 1.11086,2.87834 2.49757,5.55033 4.22266,7.95313 l 0.008,0.008 0.006,0.008 c 0.26673,0.36823 0.54396,0.72781 0.82422,1.08399 0.41013,1.68871 0.84574,3.36539 1.31445,5.02539 -2.96239,-4.35692 -5.43587,-9.44511 -7.46289,-15.01563 z m 497.59375,11.85743 c -1.91822,-0.0609 -3.43761,1.49367 -3.33594,3.41015 l 0.25586,4.83594 c 0.55568,0.10796 1.10831,0.29076 1.64063,0.57617 l 6.8418,3.66797 v -10.7793 l -4.44336,-1.5332 c -0.30781,-0.10583 -0.62576,-0.1664 -0.95118,-0.17773 z m -557.996092,4.36523 c 0.774055,0.54939 1.566078,1.09035 2.36914,1.62695 -0.873978,0.0605 -1.719233,0.13312 -2.585937,0.19727 0.05806,-0.6016 0.131014,-1.20956 0.216797,-1.82422 z m 796.339842,2.78906 c 0.99351,1.96634 1.8402,3.97945 2.5332,5.98828 -8.2667,6.99336 -18.72226,13.25575 -29.88086,17.10743 -0.20258,0.0673 -0.41466,0.12879 -0.61914,0.19531 9.2541,-5.13158 17.51498,-11.74005 24.07227,-18.80274 1.37449,-1.48044 2.67049,-2.97912 3.89453,-4.48828 z m -751.761718,5.28321 c 6.684877,-0.0276 13.642988,0.19896 20.802738,0.61132 0.76328,0.86142 1.55228,1.69485 2.36914,2.49805 0.001,10e-4 0.006,-9.8e-4 0.008,0 10e-4,10e-4 -0.001,0.008 0,0.008 0.49435,0.48853 1.00138,0.96668 1.51563,1.4375 -10.31635,-0.22304 -19.734022,-1.08596 -27.855474,-2.86132 -2.052691,-0.45087 -4.088723,-0.98231 -6.107422,-1.56836 3.241769,-0.0654 6.387892,-0.11291 9.267578,-0.125 z m -29.527343,0.83203 c 2.113023,1.03438 4.285402,2.00828 6.5,2.92578 -1.755958,2.9981 -3.20005,6.13296 -4.322266,9.30273 -0.97807,2.76261 -1.736376,5.54949 -2.28125,8.31055 -7.201195,-5.09305 -12.22749,-10.64484 -13.988281,-15.0957 v -0.008 c -0.501565,-1.28469 -0.864964,-2.81171 -1.09375,-4.5 4.969269,-0.36992 10.084082,-0.68461 15.185547,-0.93554 z m -23.248047,1.61328 c 0.327306,2.38843 0.884742,4.65474 1.699219,6.73828 l 0.0078,0.008 v 0.008 c 1.511441,3.83135 4.065327,7.49329 7.423828,10.95118 -0.66939,-0.19858 -1.385754,-0.4026 -2.042969,-0.59961 -10.531359,-3.15693 -19.479086,-6.11662 -25.953124,-8.71875 -3.237024,-1.30107 -5.859673,-2.52278 -7.669922,-3.5586 -0.266011,-0.15231 -0.157372,-0.12377 -0.384766,-0.27343 0.760923,-0.30539 0.991151,-0.51365 2.132812,-0.82618 4.818416,-1.31916 12.532839,-2.49619 21.392579,-3.41015 1.100279,-0.11351 2.260062,-0.21251 3.394531,-0.31836 z m 105.501948,0.97265 c 0.73414,0.0822 1.46074,0.15792 2.19727,0.24219 0.10488,0.0265 0.20931,0.0508 0.31445,0.0762 -0.83361,0.0532 -1.6429,0.0897 -2.4707,0.13868 -0.0137,-0.15232 -0.0278,-0.30433 -0.041,-0.45704 z m -68.136714,3.17383 c 3.44176,1.14059 6.960038,2.12845 10.53711,2.91407 10.905543,2.38399 23.489544,3.25705 37.119144,3.1875 2.8985,5.05781 6.29468,9.61702 10.29687,13.43359 -8.62264,0.34562 -16.99711,0.89602 -24.98828,1.76172 h -0.008 -0.008 c -6.72366,0.75643 -14.560568,1.77303 -22.689448,2.96093 -5.465941,-1.45568 -10.872239,-2.90333 -16.039063,-4.32031 -0.330032,-0.17631 -0.670978,-0.34671 -0.996093,-0.52539 0.398925,-3.35739 1.164649,-6.85634 2.373046,-10.26953 1.124986,-3.17758 2.59058,-6.26797 4.402344,-9.14258 z m 380.240234,1.48438 136.17188,14.48437 1.54492,-14.48437 z m 328.69141,1.10156 c -1.78745,3.04901 -3.7424,6.03918 -5.83203,8.93164 -1.00258,1.38779 -2.04158,2.74304 -3.09571,4.08203 -1.51475,0.25391 -3.05195,0.49508 -4.61133,0.72461 0.13161,-0.44742 0.26835,-0.88882 0.39649,-1.33984 0.89598,-0.63211 1.76383,-1.29389 2.59375,-1.99805 h 0.008 l 0.008,-0.008 c 3.40358,-2.91735 6.97472,-6.42596 10.53321,-10.39258 z m 62.87304,0.11914 c 0.55699,3.91197 0.49196,7.45448 -0.16406,10.13477 -0.94109,3.6384 -3.68783,8.10708 -7.82422,12.63672 -0.4557,-0.10208 -0.88,-0.20974 -1.34375,-0.31055 -8.17882,-1.77801 -17.50588,-3.30189 -26.375,-4.5 2.15996,-0.5723 4.26305,-1.18796 6.28906,-1.86328 l 0.0234,-0.008 0.0137,-0.008 c 10.86948,-3.75192 20.94703,-9.48912 29.38086,-16.08203 z M 756.75,666.11719 c -1.89668,3.71091 -4.07199,6.82639 -6.63867,9.14062 h -0.008 l -0.008,0.008 c -1.40194,1.27557 -2.91048,2.41827 -4.51172,3.44532 0.81166,-0.99931 1.60322,-2.04125 2.36329,-3.15039 1.90961,-2.77936 3.5666,-5.93687 5.03515,-9.39258 1.26593,-0.0254 2.50976,-0.0322 3.76758,-0.0508 z m 18.07031,0.0332 c 10.45554,0.21532 20.46418,0.80555 29.69727,2.04297 l -0.0156,-0.008 c 7.13152,0.98744 15.87242,2.44087 24.64063,4.1582 -0.23808,0.18183 -0.46881,0.3665 -0.71094,0.54687 -9.47735,7.06032 -21.86944,13.10585 -34.77539,15.9668 h -0.006 -0.008 c -13.50939,3.04623 -30.86898,3.21217 -50.06055,2.00586 3.13206,-1.20476 6.09007,-2.69248 8.78906,-4.5293 l 0.008,-0.008 h 0.006 c 7.08973,-4.87418 15.01861,-11.8477 22.43554,-20.17578 z m -637.88086,0.0332 c 0.60524,1.11354 1.24545,2.19845 1.9336,3.24805 -9.1779,0.99361 -17.77113,1.46568 -25.57227,1.23438 -2.83198,-0.73784 -5.65241,-1.47546 -8.4668,-2.21094 1.04566,-0.12466 2.195,-0.27525 3.18555,-0.38672 9.13569,-0.98972 18.83634,-1.57344 28.91992,-1.88477 z m -58.328122,5.86719 c 7.99477,2.91394 16.635559,5.04664 25.472652,6.01953 2.61733,0.28683 5.33319,0.46134 8.10938,0.56836 1.86778,0.48642 3.71475,0.9704 5.58398,1.45703 l 0.34961,-1.34179 c 8.46658,-0.026 17.53834,-0.7368 27.03907,-1.92579 0.44572,0.39879 0.89991,0.79117 1.37109,1.16993 5.71762,4.66756 12.45756,7.98917 19.91211,10.35742 -13.47507,0.88044 -26.4222,2.17906 -38.45508,4.19336 h -0.008 l -0.0137,0.008 c -7.6795,1.3194 -16.85056,3.09114 -26.20704,5.12305 -4.345887,-1.50762 -8.470106,-3.27628 -12.238276,-5.23438 -10.529295,-5.47139 -18.186581,-12.55499 -20.675782,-18.21679 -6.12e-4,-9.9e-4 6.17e-4,-0.008 0,-0.008 -0.07164,-0.16743 -0.133545,-0.35344 -0.201171,-0.52929 3.298511,-0.56711 6.62679,-1.12006 9.960937,-1.64063 z m 82.816402,2.38477 c 1.19322,0.97574 2.44711,1.87299 3.76563,2.68554 -2.01507,-0.67303 -3.88091,-1.46388 -5.58398,-2.38281 0.60429,-0.0987 1.21156,-0.20128 1.81835,-0.30273 z m 677.76758,0.002 c 3.55968,0.79065 7.03236,1.61182 10.27735,2.45898 1.11424,0.29103 2.15307,0.58827 3.21289,0.88477 -0.0586,0.0544 -0.13531,0.11287 -0.34961,0.25195 -1.32813,0.86087 -3.31669,1.88922 -5.80078,2.96094 -4.96831,2.14341 -11.92031,4.50873 -20.10938,6.96875 -6.3461,1.90638 -13.45248,3.87528 -21.00781,5.88086 10.34382,-3.51328 19.90248,-8.66089 27.79297,-14.53906 2.11806,-1.57789 4.11479,-3.20433 5.98437,-4.86719 z M 60.666016,675.127 c 0.256623,0.78113 0.532336,1.54779 0.847656,2.28125 l 0.0078,0.0137 v 0.0156 c 2.815405,6.40954 8.535584,12.2099 16.03711,17.23047 -4.507817,-0.77687 -8.890631,-1.55213 -12.982422,-2.32031 -10.812779,-2.02999 -20.032717,-4.03591 -26.744141,-5.94336 -3.355713,-0.95377 -6.086981,-1.89021 -7.99414,-2.73047 -0.283752,-0.1251 -0.170158,-0.11085 -0.414063,-0.23633 0.725847,-0.38411 0.938929,-0.61758 2.044922,-1.04883 4.655982,-1.81546 12.207242,-3.79457 20.927734,-5.63086 2.648583,-0.55773 5.43609,-1.0981 8.269532,-1.63086 z m 800.460934,5.27344 c 1.98407,0.70447 3.70416,1.39486 5.07813,2.05469 1.01166,0.48582 1.23551,0.73802 1.80078,1.12304 -0.27893,0.19392 -0.14777,0.16222 -0.53906,0.375 -1.46733,0.79831 -3.63105,1.71794 -6.31055,2.65821 -5.35907,1.88054 -12.79185,3.87412 -21.52539,5.89844 -1.08983,0.25247 -2.25743,0.50796 -3.38672,0.76171 5.15112,-1.67516 9.72629,-3.31619 13.4707,-4.93164 2.74088,-1.18246 5.06258,-2.35137 6.98243,-3.5957 1.83246,-1.18779 3.37009,-2.39215 4.42968,-4.34375 z m -678.98828,15.14649 c -19.65165,4.64894 -37.77595,7.74281 -52.4707,7.35546 -2.53454,-0.38091 -5.09399,-0.76218 -7.60742,-1.14257 2.50171,-0.46791 5.00275,-0.93509 7.25586,-1.32227 16.02807,-2.68309 33.99706,-4.06397 52.82226,-4.89062 z m 609.40821,1.88867 c -1.71735,0.43844 -3.41301,0.87403 -5.1543,1.31445 -0.41342,-0.10485 -0.85907,-0.22309 -1.26367,-0.32422 2.19333,-0.27708 4.33069,-0.60915 6.41797,-0.99023 z"
         transform="scale(0.26458334)"
         id="path48-8" />
      <path
         d="m 60.400127,158.95092 v -47.97985 h 15.545994 q 8.83667,0 11.520399,0.72003 4.12378,1.08004 6.905694,4.71289 2.781915,3.60012 2.781915,9.3276 0,4.41833 -1.603692,7.42934 -1.603692,3.01102 -4.091051,4.74562 -2.454631,1.70188 -5.007446,2.25826 -3.469212,0.6873 -10.047622,0.6873 h -6.316582 v 18.09881 z m 9.687609,-39.8632 v 13.61502 h 5.302002 q 5.727471,0 7.658447,-0.75276 1.930976,-0.75275 3.011014,-2.35644 1.112766,-1.60369 1.112766,-3.73104 0,-2.61827 -1.538236,-4.32015 -1.538235,-1.70188 -3.89468,-2.12735 -1.734606,-0.32728 -6.971151,-0.32728 z"
         style="font-variant:normal;font-weight:bold;font-size:medium;font-family:Arial;-inkscape-font-specification:Arial-BoldMT;writing-mode:lr-tb;opacity:1;fill:url(#linearGradient1734);fill-opacity:1;fill-rule:nonzero;stroke:none;stroke-width:0.35277778"
         id="path2990-5" />
      <path
         d="m 105.04063,158.95092 v -47.97985 h 35.57578 v 8.11665 h -25.88817 v 10.63673 h 24.0881 v 8.08392 h -24.0881 V 150.867 h 26.80456 v 8.08392 z"
         style="font-variant:normal;font-weight:bold;font-size:medium;font-family:Arial;-inkscape-font-specification:Arial-BoldMT;writing-mode:lr-tb;opacity:1;fill:url(#linearGradient1734);fill-opacity:1;fill-rule:nonzero;stroke:none;stroke-width:0.35277778"
         id="path2992-09" />
      <path
         d="m 149.6484,110.97107 h 17.70607 q 5.9893,0 9.13123,0.9164 4.22196,1.24368 7.23297,4.41833 3.01102,3.17466 4.58198,7.78937 1.57096,4.58197 1.57096,11.32402 0,5.92385 -1.47277,10.21127 -1.80007,5.23654 -5.13836,8.47665 -2.52009,2.45463 -6.80751,3.82923 -3.20739,1.01458 -8.57485,1.01458 H 149.6484 Z m 9.68761,8.11665 V 150.867 h 7.23298 q 4.05832,0 5.85838,-0.4582 2.35645,-0.58911 3.89468,-1.99643 1.57097,-1.40732 2.55282,-4.6147 0.98185,-3.24012 0.98185,-8.80395 0,-5.56382 -0.98185,-8.54211 -0.98185,-2.97828 -2.74919,-4.64743 -1.76733,-1.66915 -4.48379,-2.25826 -2.02916,-0.4582 -7.953,-0.4582 z"
         style="font-variant:normal;font-weight:bold;font-size:medium;font-family:Arial;-inkscape-font-specification:Arial-BoldMT;writing-mode:lr-tb;opacity:1;fill:url(#linearGradient1734);fill-opacity:1;fill-rule:nonzero;stroke:none;stroke-width:0.35277778"
         id="path2994-63" />
    </g>
  </g>
</svg>
