<svg xmlns="http://www.w3.org/2000/svg" xmlns:ns1="http://www.w3.org/1999/xlink" height="288pt" version="1.1" viewBox="0 0 468 288" width="468pt">
<defs>
<style>.class_ONWEQGHJGK_0 {stroke:#ff0000;} .class_ONWEQGHJGK_1 {stroke:#00ff00;} .class_ONWEQGHJGK_2 {stroke:#0000ff;} .class_ONWEQGHJGK_3 {stroke:#770077;} .class_ONWEQGHJGK_4 {} .class_ONWEQGHJGK_5 {stroke:#000001;fill:#000001;} .class_ONWEQGHJGK_6 {fill:#ffffff;} 
<!-- @media (prefers-color-scheme: dark) {.class_ONWEQGHJGK_0 {stroke:#ff7777;} .class_ONWEQGHJGK_1 {stroke:#77ff77;} .class_ONWEQGHJGK_2 {stroke:#7777ff;} .class_ONWEQGHJGK_3 {stroke:#bb66bb;} .class_ONWEQGHJGK_4 {} .class_ONWEQGHJGK_5 {stroke:#ffffff;fill:#ffffff;} .class_ONWEQGHJGK_6 {fill:#222222;}} -->
</style>
<style type="text/css">
*{stroke-linecap:butt;stroke-linejoin:round;}
</style>
</defs>
<g id="figure_1">
<g id="patch_1">
<path class="class_ONWEQGHJGK_6" d="M 0 288  L 468 288  L 468 0  L 0 0  z " style="" />
</g>
<g id="axes_1">
<g id="patch_2">
<path class="class_ONWEQGHJGK_6" d="M 45.8875 246.84375  L 340.308557 246.84375  L 340.308557 10.8  L 45.8875 10.8  z " style="" />
</g>
<g id="PathCollection_1">
<defs>
<path class="class_ONWEQGHJGK_5" d="M 0 3.535534  C 0.937635 3.535534 1.836992 3.163008 2.5 2.5  C 3.163008 1.836992 3.535534 0.937635 3.535534 0  C 3.535534 -0.937635 3.163008 -1.836992 2.5 -2.5  C 1.836992 -3.163008 0.937635 -3.535534 0 -3.535534  C -0.937635 -3.535534 -1.836992 -3.163008 -2.5 -2.5  C -3.163008 -1.836992 -3.535534 -0.937635 -3.535534 0  C -3.535534 0.937635 -3.163008 1.836992 -2.5 2.5  C -1.836992 3.163008 -0.937635 3.535534 0 3.535534  z " id="mc6ba96eaf5" style="stroke-opacity:0.35;" />
</defs>
<g clip-path="url(#p9858e88cc9)">
<use class="class_ONWEQGHJGK_5" style="fill-opacity:0.35;stroke-opacity:0.35;" x="136.176624" y="145.742958" ns1:href="#mc6ba96eaf5" />
<use class="class_ONWEQGHJGK_5" style="fill-opacity:0.35;stroke-opacity:0.35;" x="136.176624" y="143.301859" ns1:href="#mc6ba96eaf5" />
<use class="class_ONWEQGHJGK_5" style="fill-opacity:0.35;stroke-opacity:0.35;" x="136.176624" y="138.739237" ns1:href="#mc6ba96eaf5" />
<use class="class_ONWEQGHJGK_5" style="fill-opacity:0.35;stroke-opacity:0.35;" x="147.953467" y="182.570579" ns1:href="#mc6ba96eaf5" />
<use class="class_ONWEQGHJGK_5" style="fill-opacity:0.35;stroke-opacity:0.35;" x="147.953467" y="182.632503" ns1:href="#mc6ba96eaf5" />
<use class="class_ONWEQGHJGK_5" style="fill-opacity:0.35;stroke-opacity:0.35;" x="177.395572" y="134.349232" ns1:href="#mc6ba96eaf5" />
<use class="class_ONWEQGHJGK_5" style="fill-opacity:0.35;stroke-opacity:0.35;" x="113.604343" y="172.145763" ns1:href="#mc6ba96eaf5" />
<use class="class_ONWEQGHJGK_5" style="fill-opacity:0.35;stroke-opacity:0.35;" x="180.339783" y="169.289205" ns1:href="#mc6ba96eaf5" />
<use class="class_ONWEQGHJGK_5" style="fill-opacity:0.35;stroke-opacity:0.35;" x="180.339783" y="165.916501" ns1:href="#mc6ba96eaf5" />
<use class="class_ONWEQGHJGK_5" style="fill-opacity:0.35;stroke-opacity:0.35;" x="188.191011" y="146.54652" ns1:href="#mc6ba96eaf5" />
<use class="class_ONWEQGHJGK_5" style="fill-opacity:0.35;stroke-opacity:0.35;" x="855.545408" y="111.359574" ns1:href="#mc6ba96eaf5" />
<use class="class_ONWEQGHJGK_5" style="fill-opacity:0.35;stroke-opacity:0.35;" x="164.637327" y="171.697679" ns1:href="#mc6ba96eaf5" />
<use class="class_ONWEQGHJGK_5" style="fill-opacity:0.35;stroke-opacity:0.35;" x="164.637327" y="154.166323" ns1:href="#mc6ba96eaf5" />
<use class="class_ONWEQGHJGK_5" style="fill-opacity:0.35;stroke-opacity:0.35;" x="164.637327" y="152.673494" ns1:href="#mc6ba96eaf5" />
<use class="class_ONWEQGHJGK_5" style="fill-opacity:0.35;stroke-opacity:0.35;" x="164.637327" y="154.570591" ns1:href="#mc6ba96eaf5" />
<use class="class_ONWEQGHJGK_5" style="fill-opacity:0.35;stroke-opacity:0.35;" x="115.56715" y="177.340161" ns1:href="#mc6ba96eaf5" />
<use class="class_ONWEQGHJGK_5" style="fill-opacity:0.35;stroke-opacity:0.35;" x="855.545408" y="113.044904" ns1:href="#mc6ba96eaf5" />
<use class="class_ONWEQGHJGK_5" style="fill-opacity:0.35;stroke-opacity:0.35;" x="113.604343" y="168.558567" ns1:href="#mc6ba96eaf5" />
<use class="class_ONWEQGHJGK_5" style="fill-opacity:0.35;stroke-opacity:0.35;" x="115.56715" y="169.500725" ns1:href="#mc6ba96eaf5" />
<use class="class_ONWEQGHJGK_5" style="fill-opacity:0.35;stroke-opacity:0.35;" x="136.176624" y="137.552674" ns1:href="#mc6ba96eaf5" />
<use class="class_ONWEQGHJGK_5" style="fill-opacity:0.35;stroke-opacity:0.35;" x="173.469958" y="178.922328" ns1:href="#mc6ba96eaf5" />
<use class="class_ONWEQGHJGK_5" style="fill-opacity:0.35;stroke-opacity:0.35;" x="481.630665" y="159.532187" ns1:href="#mc6ba96eaf5" />
<use class="class_ONWEQGHJGK_5" style="fill-opacity:0.35;stroke-opacity:0.35;" x="136.176624" y="134.818394" ns1:href="#mc6ba96eaf5" />
<use class="class_ONWEQGHJGK_5" style="fill-opacity:0.35;stroke-opacity:0.35;" x="173.469958" y="178.922328" ns1:href="#mc6ba96eaf5" />
<use class="class_ONWEQGHJGK_5" style="fill-opacity:0.35;stroke-opacity:0.35;" x="481.630665" y="159.532187" ns1:href="#mc6ba96eaf5" />
<use class="class_ONWEQGHJGK_5" style="fill-opacity:0.35;stroke-opacity:0.35;" x="136.176624" y="134.297432" ns1:href="#mc6ba96eaf5" />
<use class="class_ONWEQGHJGK_5" style="fill-opacity:0.35;stroke-opacity:0.35;" x="173.469958" y="178.922328" ns1:href="#mc6ba96eaf5" />
<use class="class_ONWEQGHJGK_5" style="fill-opacity:0.35;stroke-opacity:0.35;" x="481.630665" y="159.532187" ns1:href="#mc6ba96eaf5" />
<use class="class_ONWEQGHJGK_5" style="fill-opacity:0.35;stroke-opacity:0.35;" x="115.56715" y="173.950064" ns1:href="#mc6ba96eaf5" />
<use class="class_ONWEQGHJGK_5" style="fill-opacity:0.35;stroke-opacity:0.35;" x="153.841888" y="137.219137" ns1:href="#mc6ba96eaf5" />
<use class="class_ONWEQGHJGK_5" style="fill-opacity:0.35;stroke-opacity:0.35;" x="173.469958" y="124.136154" ns1:href="#mc6ba96eaf5" />
<use class="class_ONWEQGHJGK_5" style="fill-opacity:0.35;stroke-opacity:0.35;" x="173.469958" y="127.228583" ns1:href="#mc6ba96eaf5" />
<use class="class_ONWEQGHJGK_5" style="fill-opacity:0.35;stroke-opacity:0.35;" x="173.469958" y="125.400795" ns1:href="#mc6ba96eaf5" />
<use class="class_ONWEQGHJGK_5" style="fill-opacity:0.35;stroke-opacity:0.35;" x="173.469958" y="124.876955" ns1:href="#mc6ba96eaf5" />
<use class="class_ONWEQGHJGK_5" style="fill-opacity:0.35;stroke-opacity:0.35;" x="173.469958" y="126.48106" ns1:href="#mc6ba96eaf5" />
<use class="class_ONWEQGHJGK_5" style="fill-opacity:0.35;stroke-opacity:0.35;" x="202.912064" y="161.298084" ns1:href="#mc6ba96eaf5" />
<use class="class_ONWEQGHJGK_5" style="fill-opacity:0.35;stroke-opacity:0.35;" x="202.912064" y="167.947193" ns1:href="#mc6ba96eaf5" />
<use class="class_ONWEQGHJGK_5" style="fill-opacity:0.35;stroke-opacity:0.35;" x="175.432765" y="134.028627" ns1:href="#mc6ba96eaf5" />
<use class="class_ONWEQGHJGK_5" style="fill-opacity:0.35;stroke-opacity:0.35;" x="175.432765" y="128.394927" ns1:href="#mc6ba96eaf5" />
<use class="class_ONWEQGHJGK_5" style="fill-opacity:0.35;stroke-opacity:0.35;" x="175.432765" y="126.934207" ns1:href="#mc6ba96eaf5" />
<use class="class_ONWEQGHJGK_5" style="fill-opacity:0.35;stroke-opacity:0.35;" x="175.432765" y="129.490794" ns1:href="#mc6ba96eaf5" />
<use class="class_ONWEQGHJGK_5" style="fill-opacity:0.35;stroke-opacity:0.35;" x="175.432765" y="132.245679" ns1:href="#mc6ba96eaf5" />
<use class="class_ONWEQGHJGK_5" style="fill-opacity:0.35;stroke-opacity:0.35;" x="103.790308" y="178.150585" ns1:href="#mc6ba96eaf5" />
<use class="class_ONWEQGHJGK_5" style="fill-opacity:0.35;stroke-opacity:0.35;" x="103.790308" y="178.692919" ns1:href="#mc6ba96eaf5" />
<use class="class_ONWEQGHJGK_5" style="fill-opacity:0.35;stroke-opacity:0.35;" x="103.790308" y="179.256594" ns1:href="#mc6ba96eaf5" />
<use class="class_ONWEQGHJGK_5" style="fill-opacity:0.35;stroke-opacity:0.35;" x="103.790308" y="179.648056" ns1:href="#mc6ba96eaf5" />
<use class="class_ONWEQGHJGK_5" style="fill-opacity:0.35;stroke-opacity:0.35;" x="103.790308" y="177.801993" ns1:href="#mc6ba96eaf5" />
<use class="class_ONWEQGHJGK_5" style="fill-opacity:0.35;stroke-opacity:0.35;" x="103.790308" y="177.77863" ns1:href="#mc6ba96eaf5" />
<use class="class_ONWEQGHJGK_5" style="fill-opacity:0.35;stroke-opacity:0.35;" x="103.790308" y="179.034896" ns1:href="#mc6ba96eaf5" />
<use class="class_ONWEQGHJGK_5" style="fill-opacity:0.35;stroke-opacity:0.35;" x="103.790308" y="180.430096" ns1:href="#mc6ba96eaf5" />
<use class="class_ONWEQGHJGK_5" style="fill-opacity:0.35;stroke-opacity:0.35;" x="103.790308" y="178.238484" ns1:href="#mc6ba96eaf5" />
<use class="class_ONWEQGHJGK_5" style="fill-opacity:0.35;stroke-opacity:0.35;" x="103.790308" y="180.193984" ns1:href="#mc6ba96eaf5" />
<use class="class_ONWEQGHJGK_5" style="fill-opacity:0.35;stroke-opacity:0.35;" x="103.790308" y="176.856161" ns1:href="#mc6ba96eaf5" />
<use class="class_ONWEQGHJGK_5" style="fill-opacity:0.35;stroke-opacity:0.35;" x="103.790308" y="179.022046" ns1:href="#mc6ba96eaf5" />
<use class="class_ONWEQGHJGK_5" style="fill-opacity:0.35;stroke-opacity:0.35;" x="103.790308" y="179.704013" ns1:href="#mc6ba96eaf5" />
<use class="class_ONWEQGHJGK_5" style="fill-opacity:0.35;stroke-opacity:0.35;" x="136.176624" y="137.514003" ns1:href="#mc6ba96eaf5" />
<use class="class_ONWEQGHJGK_5" style="fill-opacity:0.35;stroke-opacity:0.35;" x="136.176624" y="153.467963" ns1:href="#mc6ba96eaf5" />
<use class="class_ONWEQGHJGK_5" style="fill-opacity:0.35;stroke-opacity:0.35;" x="136.176624" y="132.00372" ns1:href="#mc6ba96eaf5" />
<use class="class_ONWEQGHJGK_5" style="fill-opacity:0.35;stroke-opacity:0.35;" x="183.283994" y="135.986069" ns1:href="#mc6ba96eaf5" />
<use class="class_ONWEQGHJGK_5" style="fill-opacity:0.35;stroke-opacity:0.35;" x="185.246801" y="161.330065" ns1:href="#mc6ba96eaf5" />
<use class="class_ONWEQGHJGK_5" style="fill-opacity:0.35;stroke-opacity:0.35;" x="185.246801" y="148.797533" ns1:href="#mc6ba96eaf5" />
<use class="class_ONWEQGHJGK_5" style="fill-opacity:0.35;stroke-opacity:0.35;" x="150.897677" y="177.337626" ns1:href="#mc6ba96eaf5" />
<use class="class_ONWEQGHJGK_5" style="fill-opacity:0.35;stroke-opacity:0.35;" x="61.589956" y="217.319499" ns1:href="#mc6ba96eaf5" />
<use class="class_ONWEQGHJGK_5" style="fill-opacity:0.35;stroke-opacity:0.35;" x="173.469958" y="189.384157" ns1:href="#mc6ba96eaf5" />
<use class="class_ONWEQGHJGK_5" style="fill-opacity:0.35;stroke-opacity:0.35;" x="61.589956" y="219.435671" ns1:href="#mc6ba96eaf5" />
<use class="class_ONWEQGHJGK_5" style="fill-opacity:0.35;stroke-opacity:0.35;" x="213.707503" y="184.569916" ns1:href="#mc6ba96eaf5" />
<use class="class_ONWEQGHJGK_5" style="fill-opacity:0.35;stroke-opacity:0.35;" x="213.707503" y="180.268207" ns1:href="#mc6ba96eaf5" />
<use class="class_ONWEQGHJGK_5" style="fill-opacity:0.35;stroke-opacity:0.35;" x="200.949257" y="186.034795" ns1:href="#mc6ba96eaf5" />
<use class="class_ONWEQGHJGK_5" style="fill-opacity:0.35;stroke-opacity:0.35;" x="165.61873" y="193.457706" ns1:href="#mc6ba96eaf5" />
<use class="class_ONWEQGHJGK_5" style="fill-opacity:0.35;stroke-opacity:0.35;" x="243.149609" y="170.886199" ns1:href="#mc6ba96eaf5" />
<use class="class_ONWEQGHJGK_5" style="fill-opacity:0.35;stroke-opacity:0.35;" x="139.120835" y="192.234807" ns1:href="#mc6ba96eaf5" />
<use class="class_ONWEQGHJGK_5" style="fill-opacity:0.35;stroke-opacity:0.35;" x="112.62294" y="187.361816" ns1:href="#mc6ba96eaf5" />
<use class="class_ONWEQGHJGK_5" style="fill-opacity:0.35;stroke-opacity:0.35;" x="130.288203" y="198.181808" ns1:href="#mc6ba96eaf5" />
<use class="class_ONWEQGHJGK_5" style="fill-opacity:0.35;stroke-opacity:0.35;" x="185.246801" y="167.846548" ns1:href="#mc6ba96eaf5" />
<use class="class_ONWEQGHJGK_5" style="fill-opacity:0.35;stroke-opacity:0.35;" x="185.246801" y="168.53167" ns1:href="#mc6ba96eaf5" />
<use class="class_ONWEQGHJGK_5" style="fill-opacity:0.35;stroke-opacity:0.35;" x="203.893468" y="152.591706" ns1:href="#mc6ba96eaf5" />
<use class="class_ONWEQGHJGK_5" style="fill-opacity:0.35;stroke-opacity:0.35;" x="203.893468" y="169.368004" ns1:href="#mc6ba96eaf5" />
<use class="class_ONWEQGHJGK_5" style="fill-opacity:0.35;stroke-opacity:0.35;" x="203.893468" y="168.368756" ns1:href="#mc6ba96eaf5" />
<use class="class_ONWEQGHJGK_5" style="fill-opacity:0.35;stroke-opacity:0.35;" x="203.893468" y="168.860898" ns1:href="#mc6ba96eaf5" />
<use class="class_ONWEQGHJGK_5" style="fill-opacity:0.35;stroke-opacity:0.35;" x="142.065045" y="180.553986" ns1:href="#mc6ba96eaf5" />
<use class="class_ONWEQGHJGK_5" style="fill-opacity:0.35;stroke-opacity:0.35;" x="142.065045" y="182.180631" ns1:href="#mc6ba96eaf5" />
<use class="class_ONWEQGHJGK_5" style="fill-opacity:0.35;stroke-opacity:0.35;" x="182.30259" y="186.659293" ns1:href="#mc6ba96eaf5" />
<use class="class_ONWEQGHJGK_5" style="fill-opacity:0.35;stroke-opacity:0.35;" x="61.589956" y="208.733941" ns1:href="#mc6ba96eaf5" />
<use class="class_ONWEQGHJGK_5" style="fill-opacity:0.35;stroke-opacity:0.35;" x="123.418378" y="203.295866" ns1:href="#mc6ba96eaf5" />
<use class="class_ONWEQGHJGK_5" style="fill-opacity:0.35;stroke-opacity:0.35;" x="131.269607" y="193.112535" ns1:href="#mc6ba96eaf5" />
<use class="class_ONWEQGHJGK_5" style="fill-opacity:0.35;stroke-opacity:0.35;" x="130.288203" y="196.439599" ns1:href="#mc6ba96eaf5" />
<use class="class_ONWEQGHJGK_5" style="fill-opacity:0.35;stroke-opacity:0.35;" x="255.907854" y="171.832619" ns1:href="#mc6ba96eaf5" />
<use class="class_ONWEQGHJGK_5" style="fill-opacity:0.35;stroke-opacity:0.35;" x="155.804695" y="192.407111" ns1:href="#mc6ba96eaf5" />
<use class="class_ONWEQGHJGK_5" style="fill-opacity:0.35;stroke-opacity:0.35;" x="151.879081" y="195.7646" ns1:href="#mc6ba96eaf5" />
<use class="class_ONWEQGHJGK_5" style="fill-opacity:0.35;stroke-opacity:0.35;" x="123.418378" y="173.387176" ns1:href="#mc6ba96eaf5" />
<use class="class_ONWEQGHJGK_5" style="fill-opacity:0.35;stroke-opacity:0.35;" x="111.641536" y="182.488977" ns1:href="#mc6ba96eaf5" />
<use class="class_ONWEQGHJGK_5" style="fill-opacity:0.35;stroke-opacity:0.35;" x="111.641536" y="184.529003" ns1:href="#mc6ba96eaf5" />
<use class="class_ONWEQGHJGK_5" style="fill-opacity:0.35;stroke-opacity:0.35;" x="136.176624" y="196.37846" ns1:href="#mc6ba96eaf5" />
<use class="class_ONWEQGHJGK_5" style="fill-opacity:0.35;stroke-opacity:0.35;" x="136.176624" y="196.357111" ns1:href="#mc6ba96eaf5" />
<use class="class_ONWEQGHJGK_5" style="fill-opacity:0.35;stroke-opacity:0.35;" x="67.478378" y="204.919081" ns1:href="#mc6ba96eaf5" />
<use class="class_ONWEQGHJGK_5" style="fill-opacity:0.35;stroke-opacity:0.35;" x="67.478378" y="204.924068" ns1:href="#mc6ba96eaf5" />
<use class="class_ONWEQGHJGK_5" style="fill-opacity:0.35;stroke-opacity:0.35;" x="65.51557" y="203.590873" ns1:href="#mc6ba96eaf5" />
<use class="class_ONWEQGHJGK_5" style="fill-opacity:0.35;stroke-opacity:0.35;" x="164.637327" y="193.719731" ns1:href="#mc6ba96eaf5" />
<use class="class_ONWEQGHJGK_5" style="fill-opacity:0.35;stroke-opacity:0.35;" x="62.57136" y="223.485929" ns1:href="#mc6ba96eaf5" />
<use class="class_ONWEQGHJGK_5" style="fill-opacity:0.35;stroke-opacity:0.35;" x="62.57136" y="219.011437" ns1:href="#mc6ba96eaf5" />
<use class="class_ONWEQGHJGK_5" style="fill-opacity:0.35;stroke-opacity:0.35;" x="62.57136" y="219.752235" ns1:href="#mc6ba96eaf5" />
<use class="class_ONWEQGHJGK_5" style="fill-opacity:0.35;stroke-opacity:0.35;" x="133.232414" y="197.989649" ns1:href="#mc6ba96eaf5" />
<use class="class_ONWEQGHJGK_5" style="fill-opacity:0.35;stroke-opacity:0.35;" x="62.57136" y="215.993832" ns1:href="#mc6ba96eaf5" />
<use class="class_ONWEQGHJGK_5" style="fill-opacity:0.35;stroke-opacity:0.35;" x="133.232414" y="198.806585" ns1:href="#mc6ba96eaf5" />
<use class="class_ONWEQGHJGK_5" style="fill-opacity:0.35;stroke-opacity:0.35;" x="62.57136" y="213.627448" ns1:href="#mc6ba96eaf5" />
<use class="class_ONWEQGHJGK_5" style="fill-opacity:0.35;stroke-opacity:0.35;" x="50.794518" y="233.129773" ns1:href="#mc6ba96eaf5" />
<use class="class_ONWEQGHJGK_5" style="fill-opacity:0.35;stroke-opacity:0.35;" x="50.794518" y="232.55533" ns1:href="#mc6ba96eaf5" />
<use class="class_ONWEQGHJGK_5" style="fill-opacity:0.35;stroke-opacity:0.35;" x="262.777679" y="156.45713" ns1:href="#mc6ba96eaf5" />
<use class="class_ONWEQGHJGK_5" style="fill-opacity:0.35;stroke-opacity:0.35;" x="262.777679" y="154.919602" ns1:href="#mc6ba96eaf5" />
<use class="class_ONWEQGHJGK_5" style="fill-opacity:0.35;stroke-opacity:0.35;" x="58.645746" y="217.667077" ns1:href="#mc6ba96eaf5" />
<use class="class_ONWEQGHJGK_5" style="fill-opacity:0.35;stroke-opacity:0.35;" x="131.269607" y="185.489134" ns1:href="#mc6ba96eaf5" />
<use class="class_ONWEQGHJGK_5" style="fill-opacity:0.35;stroke-opacity:0.35;" x="183.283994" y="166.010577" ns1:href="#mc6ba96eaf5" />
<use class="class_ONWEQGHJGK_5" style="fill-opacity:0.35;stroke-opacity:0.35;" x="183.283994" y="168.241289" ns1:href="#mc6ba96eaf5" />
<use class="class_ONWEQGHJGK_5" style="fill-opacity:0.35;stroke-opacity:0.35;" x="168.562941" y="183.28461" ns1:href="#mc6ba96eaf5" />
<use class="class_ONWEQGHJGK_5" style="fill-opacity:0.35;stroke-opacity:0.35;" x="168.562941" y="183.738449" ns1:href="#mc6ba96eaf5" />
<use class="class_ONWEQGHJGK_5" style="fill-opacity:0.35;stroke-opacity:0.35;" x="203.893468" y="167.62329" ns1:href="#mc6ba96eaf5" />
<use class="class_ONWEQGHJGK_5" style="fill-opacity:0.35;stroke-opacity:0.35;" x="120.474168" y="204.540709" ns1:href="#mc6ba96eaf5" />
<use class="class_ONWEQGHJGK_5" style="fill-opacity:0.35;stroke-opacity:0.35;" x="115.56715" y="207.257569" ns1:href="#mc6ba96eaf5" />
<use class="class_ONWEQGHJGK_5" style="fill-opacity:0.35;stroke-opacity:0.35;" x="120.474168" y="205.19014" ns1:href="#mc6ba96eaf5" />
<use class="class_ONWEQGHJGK_5" style="fill-opacity:0.35;stroke-opacity:0.35;" x="108.697326" y="163.682441" ns1:href="#mc6ba96eaf5" />
<use class="class_ONWEQGHJGK_5" style="fill-opacity:0.35;stroke-opacity:0.35;" x="108.697326" y="171.082106" ns1:href="#mc6ba96eaf5" />
<use class="class_ONWEQGHJGK_5" style="fill-opacity:0.35;stroke-opacity:0.35;" x="108.697326" y="162.984253" ns1:href="#mc6ba96eaf5" />
<use class="class_ONWEQGHJGK_5" style="fill-opacity:0.35;stroke-opacity:0.35;" x="108.697326" y="170.053968" ns1:href="#mc6ba96eaf5" />
<use class="class_ONWEQGHJGK_5" style="fill-opacity:0.35;stroke-opacity:0.35;" x="158.748905" y="188.714701" ns1:href="#mc6ba96eaf5" />
<use class="class_ONWEQGHJGK_5" style="fill-opacity:0.35;stroke-opacity:0.35;" x="65.51557" y="194.216206" ns1:href="#mc6ba96eaf5" />
<use class="class_ONWEQGHJGK_5" style="fill-opacity:0.35;stroke-opacity:0.35;" x="158.748905" y="189.831592" ns1:href="#mc6ba96eaf5" />
<use class="class_ONWEQGHJGK_5" style="fill-opacity:0.35;stroke-opacity:0.35;" x="158.748905" y="188.88429" ns1:href="#mc6ba96eaf5" />
<use class="class_ONWEQGHJGK_5" style="fill-opacity:0.35;stroke-opacity:0.35;" x="59.627149" y="219.483844" ns1:href="#mc6ba96eaf5" />
<use class="class_ONWEQGHJGK_5" style="fill-opacity:0.35;stroke-opacity:0.35;" x="158.748905" y="189.465477" ns1:href="#mc6ba96eaf5" />
<use class="class_ONWEQGHJGK_5" style="fill-opacity:0.35;stroke-opacity:0.35;" x="72.385395" y="190.63788" ns1:href="#mc6ba96eaf5" />
<use class="class_ONWEQGHJGK_5" style="fill-opacity:0.35;stroke-opacity:0.35;" x="136.176624" y="184.553813" ns1:href="#mc6ba96eaf5" />
<use class="class_ONWEQGHJGK_5" style="fill-opacity:0.35;stroke-opacity:0.35;" x="136.176624" y="188.174022" ns1:href="#mc6ba96eaf5" />
<use class="class_ONWEQGHJGK_5" style="fill-opacity:0.35;stroke-opacity:0.35;" x="136.176624" y="185.905206" ns1:href="#mc6ba96eaf5" />
<use class="class_ONWEQGHJGK_5" style="fill-opacity:0.35;stroke-opacity:0.35;" x="158.748905" y="190.360538" ns1:href="#mc6ba96eaf5" />
<use class="class_ONWEQGHJGK_5" style="fill-opacity:0.35;stroke-opacity:0.35;" x="60.608553" y="208.364974" ns1:href="#mc6ba96eaf5" />
<use class="class_ONWEQGHJGK_5" style="fill-opacity:0.35;stroke-opacity:0.35;" x="66.496974" y="218.427238" ns1:href="#mc6ba96eaf5" />
<use class="class_ONWEQGHJGK_5" style="fill-opacity:0.35;stroke-opacity:0.35;" x="75.329606" y="203.359609" ns1:href="#mc6ba96eaf5" />
<use class="class_ONWEQGHJGK_5" style="fill-opacity:0.35;stroke-opacity:0.35;" x="66.496974" y="218.427238" ns1:href="#mc6ba96eaf5" />
<use class="class_ONWEQGHJGK_5" style="fill-opacity:0.35;stroke-opacity:0.35;" x="75.329606" y="203.359609" ns1:href="#mc6ba96eaf5" />
<use class="class_ONWEQGHJGK_5" style="fill-opacity:0.35;stroke-opacity:0.35;" x="66.496974" y="218.427238" ns1:href="#mc6ba96eaf5" />
<use class="class_ONWEQGHJGK_5" style="fill-opacity:0.35;stroke-opacity:0.35;" x="75.329606" y="203.359609" ns1:href="#mc6ba96eaf5" />
<use class="class_ONWEQGHJGK_5" style="fill-opacity:0.35;stroke-opacity:0.35;" x="66.496974" y="217.851632" ns1:href="#mc6ba96eaf5" />
<use class="class_ONWEQGHJGK_5" style="fill-opacity:0.35;stroke-opacity:0.35;" x="75.329606" y="208.367328" ns1:href="#mc6ba96eaf5" />
<use class="class_ONWEQGHJGK_5" style="fill-opacity:0.35;stroke-opacity:0.35;" x="158.748905" y="189.460905" ns1:href="#mc6ba96eaf5" />
<use class="class_ONWEQGHJGK_5" style="fill-opacity:0.35;stroke-opacity:0.35;" x="58.645746" y="222.781792" ns1:href="#mc6ba96eaf5" />
<use class="class_ONWEQGHJGK_5" style="fill-opacity:0.35;stroke-opacity:0.35;" x="158.748905" y="189.460905" ns1:href="#mc6ba96eaf5" />
<use class="class_ONWEQGHJGK_5" style="fill-opacity:0.35;stroke-opacity:0.35;" x="58.645746" y="222.781792" ns1:href="#mc6ba96eaf5" />
<use class="class_ONWEQGHJGK_5" style="fill-opacity:0.35;stroke-opacity:0.35;" x="158.748905" y="190.275854" ns1:href="#mc6ba96eaf5" />
<use class="class_ONWEQGHJGK_5" style="fill-opacity:0.35;stroke-opacity:0.35;" x="69.441185" y="203.451242" ns1:href="#mc6ba96eaf5" />
<use class="class_ONWEQGHJGK_5" style="fill-opacity:0.35;stroke-opacity:0.35;" x="158.748905" y="190.275854" ns1:href="#mc6ba96eaf5" />
<use class="class_ONWEQGHJGK_5" style="fill-opacity:0.35;stroke-opacity:0.35;" x="69.441185" y="203.451242" ns1:href="#mc6ba96eaf5" />
<use class="class_ONWEQGHJGK_5" style="fill-opacity:0.35;stroke-opacity:0.35;" x="66.496974" y="217.284613" ns1:href="#mc6ba96eaf5" />
<use class="class_ONWEQGHJGK_5" style="fill-opacity:0.35;stroke-opacity:0.35;" x="74.348202" y="210.4969" ns1:href="#mc6ba96eaf5" />
<use class="class_ONWEQGHJGK_5" style="fill-opacity:0.35;stroke-opacity:0.35;" x="66.496974" y="217.441971" ns1:href="#mc6ba96eaf5" />
<use class="class_ONWEQGHJGK_5" style="fill-opacity:0.35;stroke-opacity:0.35;" x="75.329606" y="207.374541" ns1:href="#mc6ba96eaf5" />
<use class="class_ONWEQGHJGK_5" style="fill-opacity:0.35;stroke-opacity:0.35;" x="66.496974" y="216.803594" ns1:href="#mc6ba96eaf5" />
<use class="class_ONWEQGHJGK_5" style="fill-opacity:0.35;stroke-opacity:0.35;" x="75.329606" y="209.977916" ns1:href="#mc6ba96eaf5" />
<use class="class_ONWEQGHJGK_5" style="fill-opacity:0.35;stroke-opacity:0.35;" x="66.496974" y="217.606342" ns1:href="#mc6ba96eaf5" />
<use class="class_ONWEQGHJGK_5" style="fill-opacity:0.35;stroke-opacity:0.35;" x="77.292413" y="209.323538" ns1:href="#mc6ba96eaf5" />
<use class="class_ONWEQGHJGK_5" style="fill-opacity:0.35;stroke-opacity:0.35;" x="79.25522" y="208.006298" ns1:href="#mc6ba96eaf5" />
<use class="class_ONWEQGHJGK_5" style="fill-opacity:0.35;stroke-opacity:0.35;" x="79.25522" y="209.487399" ns1:href="#mc6ba96eaf5" />
<use class="class_ONWEQGHJGK_5" style="fill-opacity:0.35;stroke-opacity:0.35;" x="215.67031" y="185.586609" ns1:href="#mc6ba96eaf5" />
<use class="class_ONWEQGHJGK_5" style="fill-opacity:0.35;stroke-opacity:0.35;" x="204.874871" y="160.042152" ns1:href="#mc6ba96eaf5" />
<use class="class_ONWEQGHJGK_5" style="fill-opacity:0.35;stroke-opacity:0.35;" x="215.67031" y="185.796067" ns1:href="#mc6ba96eaf5" />
<use class="class_ONWEQGHJGK_5" style="fill-opacity:0.35;stroke-opacity:0.35;" x="76.311009" y="203.894734" ns1:href="#mc6ba96eaf5" />
<use class="class_ONWEQGHJGK_5" style="fill-opacity:0.35;stroke-opacity:0.35;" x="215.67031" y="185.595068" ns1:href="#mc6ba96eaf5" />
<use class="class_ONWEQGHJGK_5" style="fill-opacity:0.35;stroke-opacity:0.35;" x="215.67031" y="185.485205" ns1:href="#mc6ba96eaf5" />
<use class="class_ONWEQGHJGK_5" style="fill-opacity:0.35;stroke-opacity:0.35;" x="101.827501" y="188.519505" ns1:href="#mc6ba96eaf5" />
<use class="class_ONWEQGHJGK_5" style="fill-opacity:0.35;stroke-opacity:0.35;" x="68.459781" y="209.086405" ns1:href="#mc6ba96eaf5" />
<use class="class_ONWEQGHJGK_5" style="fill-opacity:0.35;stroke-opacity:0.35;" x="76.311009" y="194.583857" ns1:href="#mc6ba96eaf5" />
<use class="class_ONWEQGHJGK_5" style="fill-opacity:0.35;stroke-opacity:0.35;" x="68.459781" y="219.093621" ns1:href="#mc6ba96eaf5" />
<use class="class_ONWEQGHJGK_5" style="fill-opacity:0.35;stroke-opacity:0.35;" x="76.311009" y="195.82547" ns1:href="#mc6ba96eaf5" />
<use class="class_ONWEQGHJGK_5" style="fill-opacity:0.35;stroke-opacity:0.35;" x="123.418378" y="184.849522" ns1:href="#mc6ba96eaf5" />
<use class="class_ONWEQGHJGK_5" style="fill-opacity:0.35;stroke-opacity:0.35;" x="123.418378" y="183.095292" ns1:href="#mc6ba96eaf5" />
<use class="class_ONWEQGHJGK_5" style="fill-opacity:0.35;stroke-opacity:0.35;" x="87.106448" y="197.115722" ns1:href="#mc6ba96eaf5" />
<use class="class_ONWEQGHJGK_5" style="fill-opacity:0.35;stroke-opacity:0.35;" x="66.496974" y="211.731915" ns1:href="#mc6ba96eaf5" />
<use class="class_ONWEQGHJGK_5" style="fill-opacity:0.35;stroke-opacity:0.35;" x="65.51557" y="212.016147" ns1:href="#mc6ba96eaf5" />
<use class="class_ONWEQGHJGK_5" style="fill-opacity:0.35;stroke-opacity:0.35;" x="78.273816" y="193.537859" ns1:href="#mc6ba96eaf5" />
<use class="class_ONWEQGHJGK_5" style="fill-opacity:0.35;stroke-opacity:0.35;" x="78.273816" y="193.537859" ns1:href="#mc6ba96eaf5" />
<use class="class_ONWEQGHJGK_5" style="fill-opacity:0.35;stroke-opacity:0.35;" x="120.474168" y="204.070296" ns1:href="#mc6ba96eaf5" />
<use class="class_ONWEQGHJGK_5" style="fill-opacity:0.35;stroke-opacity:0.35;" x="120.474168" y="204.122017" ns1:href="#mc6ba96eaf5" />
<use class="class_ONWEQGHJGK_5" style="fill-opacity:0.35;stroke-opacity:0.35;" x="58.645746" y="220.819248" ns1:href="#mc6ba96eaf5" />
<use class="class_ONWEQGHJGK_5" style="fill-opacity:0.35;stroke-opacity:0.35;" x="58.645746" y="224.420831" ns1:href="#mc6ba96eaf5" />
<use class="class_ONWEQGHJGK_5" style="fill-opacity:0.35;stroke-opacity:0.35;" x="55.701535" y="219.468704" ns1:href="#mc6ba96eaf5" />
<use class="class_ONWEQGHJGK_5" style="fill-opacity:0.35;stroke-opacity:0.35;" x="70.422588" y="192.621264" ns1:href="#mc6ba96eaf5" />
<use class="class_ONWEQGHJGK_5" style="fill-opacity:0.35;stroke-opacity:0.35;" x="191.135222" y="166.882374" ns1:href="#mc6ba96eaf5" />
<use class="class_ONWEQGHJGK_5" style="fill-opacity:0.35;stroke-opacity:0.35;" x="65.51557" y="212.879183" ns1:href="#mc6ba96eaf5" />
<use class="class_ONWEQGHJGK_5" style="fill-opacity:0.35;stroke-opacity:0.35;" x="191.135222" y="173.228432" ns1:href="#mc6ba96eaf5" />
<use class="class_ONWEQGHJGK_5" style="fill-opacity:0.35;stroke-opacity:0.35;" x="191.135222" y="163.386532" ns1:href="#mc6ba96eaf5" />
<use class="class_ONWEQGHJGK_5" style="fill-opacity:0.35;stroke-opacity:0.35;" x="71.403992" y="215.814343" ns1:href="#mc6ba96eaf5" />
<use class="class_ONWEQGHJGK_5" style="fill-opacity:0.35;stroke-opacity:0.35;" x="191.135222" y="172.486967" ns1:href="#mc6ba96eaf5" />
<use class="class_ONWEQGHJGK_5" style="fill-opacity:0.35;stroke-opacity:0.35;" x="71.403992" y="216.076954" ns1:href="#mc6ba96eaf5" />
<use class="class_ONWEQGHJGK_5" style="fill-opacity:0.35;stroke-opacity:0.35;" x="198.005046" y="120.477207" ns1:href="#mc6ba96eaf5" />
<use class="class_ONWEQGHJGK_5" style="fill-opacity:0.35;stroke-opacity:0.35;" x="185.246801" y="108.69773" ns1:href="#mc6ba96eaf5" />
<use class="class_ONWEQGHJGK_5" style="fill-opacity:0.35;stroke-opacity:0.35;" x="187.209608" y="124.382908" ns1:href="#mc6ba96eaf5" />
<use class="class_ONWEQGHJGK_5" style="fill-opacity:0.35;stroke-opacity:0.35;" x="163.655923" y="115.642136" ns1:href="#mc6ba96eaf5" />
<use class="class_ONWEQGHJGK_5" style="fill-opacity:0.35;stroke-opacity:0.35;" x="163.655923" y="118.110314" ns1:href="#mc6ba96eaf5" />
<use class="class_ONWEQGHJGK_5" style="fill-opacity:0.35;stroke-opacity:0.35;" x="163.655923" y="111.039943" ns1:href="#mc6ba96eaf5" />
<use class="class_ONWEQGHJGK_5" style="fill-opacity:0.35;stroke-opacity:0.35;" x="163.655923" y="121.007473" ns1:href="#mc6ba96eaf5" />
<use class="class_ONWEQGHJGK_5" style="fill-opacity:0.35;stroke-opacity:0.35;" x="163.655923" y="116.432884" ns1:href="#mc6ba96eaf5" />
<use class="class_ONWEQGHJGK_5" style="fill-opacity:0.35;stroke-opacity:0.35;" x="163.655923" y="113.686104" ns1:href="#mc6ba96eaf5" />
<use class="class_ONWEQGHJGK_5" style="fill-opacity:0.35;stroke-opacity:0.35;" x="163.655923" y="121.439769" ns1:href="#mc6ba96eaf5" />
<use class="class_ONWEQGHJGK_5" style="fill-opacity:0.35;stroke-opacity:0.35;" x="163.655923" y="117.228134" ns1:href="#mc6ba96eaf5" />
<use class="class_ONWEQGHJGK_5" style="fill-opacity:0.35;stroke-opacity:0.35;" x="163.655923" y="115.3692" ns1:href="#mc6ba96eaf5" />
<use class="class_ONWEQGHJGK_5" style="fill-opacity:0.35;stroke-opacity:0.35;" x="163.655923" y="118.840572" ns1:href="#mc6ba96eaf5" />
<use class="class_ONWEQGHJGK_5" style="fill-opacity:0.35;stroke-opacity:0.35;" x="144.027852" y="128.876106" ns1:href="#mc6ba96eaf5" />
<use class="class_ONWEQGHJGK_5" style="fill-opacity:0.35;stroke-opacity:0.35;" x="144.027852" y="126.551736" ns1:href="#mc6ba96eaf5" />
<use class="class_ONWEQGHJGK_5" style="fill-opacity:0.35;stroke-opacity:0.35;" x="144.027852" y="128.117769" ns1:href="#mc6ba96eaf5" />
<use class="class_ONWEQGHJGK_5" style="fill-opacity:0.35;stroke-opacity:0.35;" x="144.027852" y="127.658614" ns1:href="#mc6ba96eaf5" />
<use class="class_ONWEQGHJGK_5" style="fill-opacity:0.35;stroke-opacity:0.35;" x="144.027852" y="123.622606" ns1:href="#mc6ba96eaf5" />
<use class="class_ONWEQGHJGK_5" style="fill-opacity:0.35;stroke-opacity:0.35;" x="120.474168" y="149.694351" ns1:href="#mc6ba96eaf5" />
<use class="class_ONWEQGHJGK_5" style="fill-opacity:0.35;stroke-opacity:0.35;" x="120.474168" y="151.572636" ns1:href="#mc6ba96eaf5" />
<use class="class_ONWEQGHJGK_5" style="fill-opacity:0.35;stroke-opacity:0.35;" x="120.474168" y="150.461507" ns1:href="#mc6ba96eaf5" />
<use class="class_ONWEQGHJGK_5" style="fill-opacity:0.35;stroke-opacity:0.35;" x="120.474168" y="148.325257" ns1:href="#mc6ba96eaf5" />
<use class="class_ONWEQGHJGK_5" style="fill-opacity:0.35;stroke-opacity:0.35;" x="120.474168" y="154.911558" ns1:href="#mc6ba96eaf5" />
</g>
</g>
<g id="matplotlib.axis_1">
<g id="xtick_1">
<g id="line2d_1">
<defs>
<path class="class_ONWEQGHJGK_5" d="M 0 0  L 0 3.5  " id="m6dde8f4cb8" style="stroke-width:0.8;" />
</defs>
<g>
<use class="class_ONWEQGHJGK_5" style="stroke-width:0.8;" x="45.8875" y="246.84375" ns1:href="#m6dde8f4cb8" />
</g>
</g>
<g id="text_1">

<defs>
<path d="M 31.78125 66.40625  Q 24.171875 66.40625 20.328125 58.90625  Q 16.5 51.421875 16.5 36.375  Q 16.5 21.390625 20.328125 13.890625  Q 24.171875 6.390625 31.78125 6.390625  Q 39.453125 6.390625 43.28125 13.890625  Q 47.125 21.390625 47.125 36.375  Q 47.125 51.421875 43.28125 58.90625  Q 39.453125 66.40625 31.78125 66.40625  z M 31.78125 74.21875  Q 44.046875 74.21875 50.515625 64.515625  Q 56.984375 54.828125 56.984375 36.375  Q 56.984375 17.96875 50.515625 8.265625  Q 44.046875 -1.421875 31.78125 -1.421875  Q 19.53125 -1.421875 13.0625 8.265625  Q 6.59375 17.96875 6.59375 36.375  Q 6.59375 54.828125 13.0625 64.515625  Q 19.53125 74.21875 31.78125 74.21875  z " id="DejaVuSans-48" />
</defs>
<g class="class_ONWEQGHJGK_5" style="" transform="translate(42.70625 261.442187)scale(0.1 -0.1)">
<use ns1:href="#DejaVuSans-48" />
</g>
</g>
</g>
<g id="xtick_2">
<g id="line2d_2">
<g>
<use class="class_ONWEQGHJGK_5" style="stroke-width:0.8;" x="94.957676" y="246.84375" ns1:href="#m6dde8f4cb8" />
</g>
</g>
<g id="text_2">

<defs>
<path d="M 10.796875 72.90625  L 49.515625 72.90625  L 49.515625 64.59375  L 19.828125 64.59375  L 19.828125 46.734375  Q 21.96875 47.46875 24.109375 47.828125  Q 26.265625 48.1875 28.421875 48.1875  Q 40.625 48.1875 47.75 41.5  Q 54.890625 34.8125 54.890625 23.390625  Q 54.890625 11.625 47.5625 5.09375  Q 40.234375 -1.421875 26.90625 -1.421875  Q 22.3125 -1.421875 17.546875 -0.640625  Q 12.796875 0.140625 7.71875 1.703125  L 7.71875 11.625  Q 12.109375 9.234375 16.796875 8.0625  Q 21.484375 6.890625 26.703125 6.890625  Q 35.15625 6.890625 40.078125 11.328125  Q 45.015625 15.765625 45.015625 23.390625  Q 45.015625 31 40.078125 35.4375  Q 35.15625 39.890625 26.703125 39.890625  Q 22.75 39.890625 18.8125 39.015625  Q 14.890625 38.140625 10.796875 36.28125  z " id="DejaVuSans-53" />
</defs>
<g class="class_ONWEQGHJGK_5" style="" transform="translate(88.595176 261.442187)scale(0.1 -0.1)">
<use ns1:href="#DejaVuSans-53" />
<use x="63.623047" ns1:href="#DejaVuSans-48" />
</g>
</g>
</g>
<g id="xtick_3">
<g id="line2d_3">
<g>
<use class="class_ONWEQGHJGK_5" style="stroke-width:0.8;" x="144.027852" y="246.84375" ns1:href="#m6dde8f4cb8" />
</g>
</g>
<g id="text_3">

<defs>
<path d="M 12.40625 8.296875  L 28.515625 8.296875  L 28.515625 63.921875  L 10.984375 60.40625  L 10.984375 69.390625  L 28.421875 72.90625  L 38.28125 72.90625  L 38.28125 8.296875  L 54.390625 8.296875  L 54.390625 0  L 12.40625 0  z " id="DejaVuSans-49" />
</defs>
<g class="class_ONWEQGHJGK_5" style="" transform="translate(134.484103 261.442187)scale(0.1 -0.1)">
<use ns1:href="#DejaVuSans-49" />
<use x="63.623047" ns1:href="#DejaVuSans-48" />
<use x="127.246094" ns1:href="#DejaVuSans-48" />
</g>
</g>
</g>
<g id="xtick_4">
<g id="line2d_4">
<g>
<use class="class_ONWEQGHJGK_5" style="stroke-width:0.8;" x="193.098029" y="246.84375" ns1:href="#m6dde8f4cb8" />
</g>
</g>
<g id="text_4">

<g class="class_ONWEQGHJGK_5" style="" transform="translate(183.554279 261.442187)scale(0.1 -0.1)">
<use ns1:href="#DejaVuSans-49" />
<use x="63.623047" ns1:href="#DejaVuSans-53" />
<use x="127.246094" ns1:href="#DejaVuSans-48" />
</g>
</g>
</g>
<g id="xtick_5">
<g id="line2d_5">
<g>
<use class="class_ONWEQGHJGK_5" style="stroke-width:0.8;" x="242.168205" y="246.84375" ns1:href="#m6dde8f4cb8" />
</g>
</g>
<g id="text_5">

<defs>
<path d="M 19.1875 8.296875  L 53.609375 8.296875  L 53.609375 0  L 7.328125 0  L 7.328125 8.296875  Q 12.9375 14.109375 22.625 23.890625  Q 32.328125 33.6875 34.8125 36.53125  Q 39.546875 41.84375 41.421875 45.53125  Q 43.3125 49.21875 43.3125 52.78125  Q 43.3125 58.59375 39.234375 62.25  Q 35.15625 65.921875 28.609375 65.921875  Q 23.96875 65.921875 18.8125 64.3125  Q 13.671875 62.703125 7.8125 59.421875  L 7.8125 69.390625  Q 13.765625 71.78125 18.9375 73  Q 24.125 74.21875 28.421875 74.21875  Q 39.75 74.21875 46.484375 68.546875  Q 53.21875 62.890625 53.21875 53.421875  Q 53.21875 48.921875 51.53125 44.890625  Q 49.859375 40.875 45.40625 35.40625  Q 44.1875 33.984375 37.640625 27.21875  Q 31.109375 20.453125 19.1875 8.296875  z " id="DejaVuSans-50" />
</defs>
<g class="class_ONWEQGHJGK_5" style="" transform="translate(232.624455 261.442187)scale(0.1 -0.1)">
<use ns1:href="#DejaVuSans-50" />
<use x="63.623047" ns1:href="#DejaVuSans-48" />
<use x="127.246094" ns1:href="#DejaVuSans-48" />
</g>
</g>
</g>
<g id="xtick_6">
<g id="line2d_6">
<g>
<use class="class_ONWEQGHJGK_5" style="stroke-width:0.8;" x="291.238381" y="246.84375" ns1:href="#m6dde8f4cb8" />
</g>
</g>
<g id="text_6">

<g class="class_ONWEQGHJGK_5" style="" transform="translate(281.694631 261.442187)scale(0.1 -0.1)">
<use ns1:href="#DejaVuSans-50" />
<use x="63.623047" ns1:href="#DejaVuSans-53" />
<use x="127.246094" ns1:href="#DejaVuSans-48" />
</g>
</g>
</g>
<g id="xtick_7">
<g id="line2d_7">
<g>
<use class="class_ONWEQGHJGK_5" style="stroke-width:0.8;" x="340.308557" y="246.84375" ns1:href="#m6dde8f4cb8" />
</g>
</g>
<g id="text_7">

<defs>
<path d="M 40.578125 39.3125  Q 47.65625 37.796875 51.625 33  Q 55.609375 28.21875 55.609375 21.1875  Q 55.609375 10.40625 48.1875 4.484375  Q 40.765625 -1.421875 27.09375 -1.421875  Q 22.515625 -1.421875 17.65625 -0.515625  Q 12.796875 0.390625 7.625 2.203125  L 7.625 11.71875  Q 11.71875 9.328125 16.59375 8.109375  Q 21.484375 6.890625 26.8125 6.890625  Q 36.078125 6.890625 40.9375 10.546875  Q 45.796875 14.203125 45.796875 21.1875  Q 45.796875 27.640625 41.28125 31.265625  Q 36.765625 34.90625 28.71875 34.90625  L 20.21875 34.90625  L 20.21875 43.015625  L 29.109375 43.015625  Q 36.375 43.015625 40.234375 45.921875  Q 44.09375 48.828125 44.09375 54.296875  Q 44.09375 59.90625 40.109375 62.90625  Q 36.140625 65.921875 28.71875 65.921875  Q 24.65625 65.921875 20.015625 65.03125  Q 15.375 64.15625 9.8125 62.3125  L 9.8125 71.09375  Q 15.4375 72.65625 20.34375 73.4375  Q 25.25 74.21875 29.59375 74.21875  Q 40.828125 74.21875 47.359375 69.109375  Q 53.90625 64.015625 53.90625 55.328125  Q 53.90625 49.265625 50.4375 45.09375  Q 46.96875 40.921875 40.578125 39.3125  z " id="DejaVuSans-51" />
</defs>
<g class="class_ONWEQGHJGK_5" style="" transform="translate(330.764807 261.442187)scale(0.1 -0.1)">
<use ns1:href="#DejaVuSans-51" />
<use x="63.623047" ns1:href="#DejaVuSans-48" />
<use x="127.246094" ns1:href="#DejaVuSans-48" />
</g>
</g>
</g>
<g id="text_8">

<defs>
<path d="M 64.40625 67.28125  L 64.40625 56.890625  Q 59.421875 61.53125 53.78125 63.8125  Q 48.140625 66.109375 41.796875 66.109375  Q 29.296875 66.109375 22.65625 58.46875  Q 16.015625 50.828125 16.015625 36.375  Q 16.015625 21.96875 22.65625 14.328125  Q 29.296875 6.6875 41.796875 6.6875  Q 48.140625 6.6875 53.78125 8.984375  Q 59.421875 11.28125 64.40625 15.921875  L 64.40625 5.609375  Q 59.234375 2.09375 53.4375 0.328125  Q 47.65625 -1.421875 41.21875 -1.421875  Q 24.65625 -1.421875 15.125 8.703125  Q 5.609375 18.84375 5.609375 36.375  Q 5.609375 53.953125 15.125 64.078125  Q 24.65625 74.21875 41.21875 74.21875  Q 47.75 74.21875 53.53125 72.484375  Q 59.328125 70.75 64.40625 67.28125  z " id="DejaVuSans-67" />
<path d="M 54.890625 33.015625  L 54.890625 0  L 45.90625 0  L 45.90625 32.71875  Q 45.90625 40.484375 42.875 44.328125  Q 39.84375 48.1875 33.796875 48.1875  Q 26.515625 48.1875 22.3125 43.546875  Q 18.109375 38.921875 18.109375 30.90625  L 18.109375 0  L 9.078125 0  L 9.078125 75.984375  L 18.109375 75.984375  L 18.109375 46.1875  Q 21.34375 51.125 25.703125 53.5625  Q 30.078125 56 35.796875 56  Q 45.21875 56 50.046875 50.171875  Q 54.890625 44.34375 54.890625 33.015625  z " id="DejaVuSans-104" />
<path d="M 34.28125 27.484375  Q 23.390625 27.484375 19.1875 25  Q 14.984375 22.515625 14.984375 16.5  Q 14.984375 11.71875 18.140625 8.90625  Q 21.296875 6.109375 26.703125 6.109375  Q 34.1875 6.109375 38.703125 11.40625  Q 43.21875 16.703125 43.21875 25.484375  L 43.21875 27.484375  z M 52.203125 31.203125  L 52.203125 0  L 43.21875 0  L 43.21875 8.296875  Q 40.140625 3.328125 35.546875 0.953125  Q 30.953125 -1.421875 24.3125 -1.421875  Q 15.921875 -1.421875 10.953125 3.296875  Q 6 8.015625 6 15.921875  Q 6 25.140625 12.171875 29.828125  Q 18.359375 34.515625 30.609375 34.515625  L 43.21875 34.515625  L 43.21875 35.40625  Q 43.21875 41.609375 39.140625 45  Q 35.0625 48.390625 27.6875 48.390625  Q 23 48.390625 18.546875 47.265625  Q 14.109375 46.140625 10.015625 43.890625  L 10.015625 52.203125  Q 14.9375 54.109375 19.578125 55.046875  Q 24.21875 56 28.609375 56  Q 40.484375 56 46.34375 49.84375  Q 52.203125 43.703125 52.203125 31.203125  z " id="DejaVuSans-97" />
<path d="M 9.421875 54.6875  L 18.40625 54.6875  L 18.40625 0  L 9.421875 0  z M 9.421875 75.984375  L 18.40625 75.984375  L 18.40625 64.59375  L 9.421875 64.59375  z " id="DejaVuSans-105" />
<path d="M 54.890625 33.015625  L 54.890625 0  L 45.90625 0  L 45.90625 32.71875  Q 45.90625 40.484375 42.875 44.328125  Q 39.84375 48.1875 33.796875 48.1875  Q 26.515625 48.1875 22.3125 43.546875  Q 18.109375 38.921875 18.109375 30.90625  L 18.109375 0  L 9.078125 0  L 9.078125 54.6875  L 18.109375 54.6875  L 18.109375 46.1875  Q 21.34375 51.125 25.703125 53.5625  Q 30.078125 56 35.796875 56  Q 45.21875 56 50.046875 50.171875  Q 54.890625 44.34375 54.890625 33.015625  z " id="DejaVuSans-110" />
<path id="DejaVuSans-32" />
<path d="M 9.8125 72.90625  L 19.671875 72.90625  L 19.671875 8.296875  L 55.171875 8.296875  L 55.171875 0  L 9.8125 0  z " id="DejaVuSans-76" />
<path d="M 56.203125 29.59375  L 56.203125 25.203125  L 14.890625 25.203125  Q 15.484375 15.921875 20.484375 11.0625  Q 25.484375 6.203125 34.421875 6.203125  Q 39.59375 6.203125 44.453125 7.46875  Q 49.3125 8.734375 54.109375 11.28125  L 54.109375 2.78125  Q 49.265625 0.734375 44.1875 -0.34375  Q 39.109375 -1.421875 33.890625 -1.421875  Q 20.796875 -1.421875 13.15625 6.1875  Q 5.515625 13.8125 5.515625 26.8125  Q 5.515625 40.234375 12.765625 48.109375  Q 20.015625 56 32.328125 56  Q 43.359375 56 49.78125 48.890625  Q 56.203125 41.796875 56.203125 29.59375  z M 47.21875 32.234375  Q 47.125 39.59375 43.09375 43.984375  Q 39.0625 48.390625 32.421875 48.390625  Q 24.90625 48.390625 20.390625 44.140625  Q 15.875 39.890625 15.1875 32.171875  z " id="DejaVuSans-101" />
<path d="M 45.40625 27.984375  Q 45.40625 37.75 41.375 43.109375  Q 37.359375 48.484375 30.078125 48.484375  Q 22.859375 48.484375 18.828125 43.109375  Q 14.796875 37.75 14.796875 27.984375  Q 14.796875 18.265625 18.828125 12.890625  Q 22.859375 7.515625 30.078125 7.515625  Q 37.359375 7.515625 41.375 12.890625  Q 45.40625 18.265625 45.40625 27.984375  z M 54.390625 6.78125  Q 54.390625 -7.171875 48.1875 -13.984375  Q 42 -20.796875 29.203125 -20.796875  Q 24.46875 -20.796875 20.265625 -20.09375  Q 16.0625 -19.390625 12.109375 -17.921875  L 12.109375 -9.1875  Q 16.0625 -11.328125 19.921875 -12.34375  Q 23.78125 -13.375 27.78125 -13.375  Q 36.625 -13.375 41.015625 -8.765625  Q 45.40625 -4.15625 45.40625 5.171875  L 45.40625 9.625  Q 42.625 4.78125 38.28125 2.390625  Q 33.9375 0 27.875 0  Q 17.828125 0 11.671875 7.65625  Q 5.515625 15.328125 5.515625 27.984375  Q 5.515625 40.671875 11.671875 48.328125  Q 17.828125 56 27.875 56  Q 33.9375 56 38.28125 53.609375  Q 42.625 51.21875 45.40625 46.390625  L 45.40625 54.6875  L 54.390625 54.6875  z " id="DejaVuSans-103" />
<path d="M 18.3125 70.21875  L 18.3125 54.6875  L 36.8125 54.6875  L 36.8125 47.703125  L 18.3125 47.703125  L 18.3125 18.015625  Q 18.3125 11.328125 20.140625 9.421875  Q 21.96875 7.515625 27.59375 7.515625  L 36.8125 7.515625  L 36.8125 0  L 27.59375 0  Q 17.1875 0 13.234375 3.875  Q 9.28125 7.765625 9.28125 18.015625  L 9.28125 47.703125  L 2.6875 47.703125  L 2.6875 54.6875  L 9.28125 54.6875  L 9.28125 70.21875  z " id="DejaVuSans-116" />
<path d="M 31 75.875  Q 24.46875 64.65625 21.28125 53.65625  Q 18.109375 42.671875 18.109375 31.390625  Q 18.109375 20.125 21.3125 9.0625  Q 24.515625 -2 31 -13.1875  L 23.1875 -13.1875  Q 15.875 -1.703125 12.234375 9.375  Q 8.59375 20.453125 8.59375 31.390625  Q 8.59375 42.28125 12.203125 53.3125  Q 15.828125 64.359375 23.1875 75.875  z " id="DejaVuSans-40" />
<path d="M 41.109375 46.296875  Q 39.59375 47.171875 37.8125 47.578125  Q 36.03125 48 33.890625 48  Q 26.265625 48 22.1875 43.046875  Q 18.109375 38.09375 18.109375 28.8125  L 18.109375 0  L 9.078125 0  L 9.078125 54.6875  L 18.109375 54.6875  L 18.109375 46.1875  Q 20.953125 51.171875 25.484375 53.578125  Q 30.03125 56 36.53125 56  Q 37.453125 56 38.578125 55.875  Q 39.703125 55.765625 41.0625 55.515625  z " id="DejaVuSans-114" />
<path d="M 44.28125 53.078125  L 44.28125 44.578125  Q 40.484375 46.53125 36.375 47.5  Q 32.28125 48.484375 27.875 48.484375  Q 21.1875 48.484375 17.84375 46.4375  Q 14.5 44.390625 14.5 40.28125  Q 14.5 37.15625 16.890625 35.375  Q 19.28125 33.59375 26.515625 31.984375  L 29.59375 31.296875  Q 39.15625 29.25 43.1875 25.515625  Q 47.21875 21.78125 47.21875 15.09375  Q 47.21875 7.46875 41.1875 3.015625  Q 35.15625 -1.421875 24.609375 -1.421875  Q 20.21875 -1.421875 15.453125 -0.5625  Q 10.6875 0.296875 5.421875 2  L 5.421875 11.28125  Q 10.40625 8.6875 15.234375 7.390625  Q 20.0625 6.109375 24.8125 6.109375  Q 31.15625 6.109375 34.5625 8.28125  Q 37.984375 10.453125 37.984375 14.40625  Q 37.984375 18.0625 35.515625 20.015625  Q 33.0625 21.96875 24.703125 23.78125  L 21.578125 24.515625  Q 13.234375 26.265625 9.515625 29.90625  Q 5.8125 33.546875 5.8125 39.890625  Q 5.8125 47.609375 11.28125 51.796875  Q 16.75 56 26.8125 56  Q 31.78125 56 36.171875 55.265625  Q 40.578125 54.546875 44.28125 53.078125  z " id="DejaVuSans-115" />
<path d="M 45.40625 46.390625  L 45.40625 75.984375  L 54.390625 75.984375  L 54.390625 0  L 45.40625 0  L 45.40625 8.203125  Q 42.578125 3.328125 38.25 0.953125  Q 33.9375 -1.421875 27.875 -1.421875  Q 17.96875 -1.421875 11.734375 6.484375  Q 5.515625 14.40625 5.515625 27.296875  Q 5.515625 40.1875 11.734375 48.09375  Q 17.96875 56 27.875 56  Q 33.9375 56 38.25 53.625  Q 42.578125 51.265625 45.40625 46.390625  z M 14.796875 27.296875  Q 14.796875 17.390625 18.875 11.75  Q 22.953125 6.109375 30.078125 6.109375  Q 37.203125 6.109375 41.296875 11.75  Q 45.40625 17.390625 45.40625 27.296875  Q 45.40625 37.203125 41.296875 42.84375  Q 37.203125 48.484375 30.078125 48.484375  Q 22.953125 48.484375 18.875 42.84375  Q 14.796875 37.203125 14.796875 27.296875  z " id="DejaVuSans-100" />
<path d="M 8.5 21.578125  L 8.5 54.6875  L 17.484375 54.6875  L 17.484375 21.921875  Q 17.484375 14.15625 20.5 10.265625  Q 23.53125 6.390625 29.59375 6.390625  Q 36.859375 6.390625 41.078125 11.03125  Q 45.3125 15.671875 45.3125 23.6875  L 45.3125 54.6875  L 54.296875 54.6875  L 54.296875 0  L 45.3125 0  L 45.3125 8.40625  Q 42.046875 3.421875 37.71875 1  Q 33.40625 -1.421875 27.6875 -1.421875  Q 18.265625 -1.421875 13.375 4.4375  Q 8.5 10.296875 8.5 21.578125  z M 31.109375 56  z " id="DejaVuSans-117" />
<path d="M 8.015625 75.875  L 15.828125 75.875  Q 23.140625 64.359375 26.78125 53.3125  Q 30.421875 42.28125 30.421875 31.390625  Q 30.421875 20.453125 26.78125 9.375  Q 23.140625 -1.703125 15.828125 -13.1875  L 8.015625 -13.1875  Q 14.5 -2 17.703125 9.0625  Q 20.90625 20.125 20.90625 31.390625  Q 20.90625 42.671875 17.703125 53.65625  Q 14.5 64.65625 8.015625 75.875  z " id="DejaVuSans-41" />
</defs>
<g class="class_ONWEQGHJGK_5" style="" transform="translate(133.254279 275.120313)scale(0.1 -0.1)">
<use ns1:href="#DejaVuSans-67" />
<use x="69.824219" ns1:href="#DejaVuSans-104" />
<use x="133.203125" ns1:href="#DejaVuSans-97" />
<use x="194.482422" ns1:href="#DejaVuSans-105" />
<use x="222.265625" ns1:href="#DejaVuSans-110" />
<use x="285.644531" ns1:href="#DejaVuSans-32" />
<use x="317.431641" ns1:href="#DejaVuSans-76" />
<use x="373.128906" ns1:href="#DejaVuSans-101" />
<use x="434.652344" ns1:href="#DejaVuSans-110" />
<use x="498.03125" ns1:href="#DejaVuSans-103" />
<use x="561.507812" ns1:href="#DejaVuSans-116" />
<use x="600.716797" ns1:href="#DejaVuSans-104" />
<use x="664.095703" ns1:href="#DejaVuSans-32" />
<use x="695.882812" ns1:href="#DejaVuSans-40" />
<use x="734.896484" ns1:href="#DejaVuSans-114" />
<use x="775.978516" ns1:href="#DejaVuSans-101" />
<use x="837.501953" ns1:href="#DejaVuSans-115" />
<use x="889.601562" ns1:href="#DejaVuSans-105" />
<use x="917.384766" ns1:href="#DejaVuSans-100" />
<use x="980.861328" ns1:href="#DejaVuSans-117" />
<use x="1044.240234" ns1:href="#DejaVuSans-101" />
<use x="1105.763672" ns1:href="#DejaVuSans-115" />
<use x="1157.863281" ns1:href="#DejaVuSans-41" />
</g>
</g>
</g>
<g id="matplotlib.axis_2">
<g id="ytick_1">
<g id="line2d_8">
<defs>
<path class="class_ONWEQGHJGK_5" d="M 0 0  L -3.5 0  " id="m80c507f50c" style="stroke-width:0.8;" />
</defs>
<g>
<use class="class_ONWEQGHJGK_5" style="stroke-width:0.8;" x="45.8875" y="246.84375" ns1:href="#m80c507f50c" />
</g>
</g>
<g id="text_9">

<g class="class_ONWEQGHJGK_5" style="" transform="translate(32.525 250.642969)scale(0.1 -0.1)">
<use ns1:href="#DejaVuSans-48" />
</g>
</g>
</g>
<g id="ytick_2">
<g id="line2d_9">
<g>
<use class="class_ONWEQGHJGK_5" style="stroke-width:0.8;" x="45.8875" y="209.769763" ns1:href="#m80c507f50c" />
</g>
</g>
<g id="text_10">

<g class="class_ONWEQGHJGK_5" style="" transform="translate(26.1625 213.568982)scale(0.1 -0.1)">
<use ns1:href="#DejaVuSans-49" />
<use x="63.623047" ns1:href="#DejaVuSans-48" />
</g>
</g>
</g>
<g id="ytick_3">
<g id="line2d_10">
<g>
<use class="class_ONWEQGHJGK_5" style="stroke-width:0.8;" x="45.8875" y="172.695776" ns1:href="#m80c507f50c" />
</g>
</g>
<g id="text_11">

<g class="class_ONWEQGHJGK_5" style="" transform="translate(26.1625 176.494995)scale(0.1 -0.1)">
<use ns1:href="#DejaVuSans-50" />
<use x="63.623047" ns1:href="#DejaVuSans-48" />
</g>
</g>
</g>
<g id="ytick_4">
<g id="line2d_11">
<g>
<use class="class_ONWEQGHJGK_5" style="stroke-width:0.8;" x="45.8875" y="135.62179" ns1:href="#m80c507f50c" />
</g>
</g>
<g id="text_12">

<g class="class_ONWEQGHJGK_5" style="" transform="translate(26.1625 139.421008)scale(0.1 -0.1)">
<use ns1:href="#DejaVuSans-51" />
<use x="63.623047" ns1:href="#DejaVuSans-48" />
</g>
</g>
</g>
<g id="ytick_5">
<g id="line2d_12">
<g>
<use class="class_ONWEQGHJGK_5" style="stroke-width:0.8;" x="45.8875" y="98.547803" ns1:href="#m80c507f50c" />
</g>
</g>
<g id="text_13">

<defs>
<path d="M 37.796875 64.3125  L 12.890625 25.390625  L 37.796875 25.390625  z M 35.203125 72.90625  L 47.609375 72.90625  L 47.609375 25.390625  L 58.015625 25.390625  L 58.015625 17.1875  L 47.609375 17.1875  L 47.609375 0  L 37.796875 0  L 37.796875 17.1875  L 4.890625 17.1875  L 4.890625 26.703125  z " id="DejaVuSans-52" />
</defs>
<g class="class_ONWEQGHJGK_5" style="" transform="translate(26.1625 102.347022)scale(0.1 -0.1)">
<use ns1:href="#DejaVuSans-52" />
<use x="63.623047" ns1:href="#DejaVuSans-48" />
</g>
</g>
</g>
<g id="ytick_6">
<g id="line2d_13">
<g>
<use class="class_ONWEQGHJGK_5" style="stroke-width:0.8;" x="45.8875" y="61.473816" ns1:href="#m80c507f50c" />
</g>
</g>
<g id="text_14">

<g class="class_ONWEQGHJGK_5" style="" transform="translate(26.1625 65.273035)scale(0.1 -0.1)">
<use ns1:href="#DejaVuSans-53" />
<use x="63.623047" ns1:href="#DejaVuSans-48" />
</g>
</g>
</g>
<g id="ytick_7">
<g id="line2d_14">
<g>
<use class="class_ONWEQGHJGK_5" style="stroke-width:0.8;" x="45.8875" y="24.399829" ns1:href="#m80c507f50c" />
</g>
</g>
<g id="text_15">

<defs>
<path d="M 33.015625 40.375  Q 26.375 40.375 22.484375 35.828125  Q 18.609375 31.296875 18.609375 23.390625  Q 18.609375 15.53125 22.484375 10.953125  Q 26.375 6.390625 33.015625 6.390625  Q 39.65625 6.390625 43.53125 10.953125  Q 47.40625 15.53125 47.40625 23.390625  Q 47.40625 31.296875 43.53125 35.828125  Q 39.65625 40.375 33.015625 40.375  z M 52.59375 71.296875  L 52.59375 62.3125  Q 48.875 64.0625 45.09375 64.984375  Q 41.3125 65.921875 37.59375 65.921875  Q 27.828125 65.921875 22.671875 59.328125  Q 17.53125 52.734375 16.796875 39.40625  Q 19.671875 43.65625 24.015625 45.921875  Q 28.375 48.1875 33.59375 48.1875  Q 44.578125 48.1875 50.953125 41.515625  Q 57.328125 34.859375 57.328125 23.390625  Q 57.328125 12.15625 50.6875 5.359375  Q 44.046875 -1.421875 33.015625 -1.421875  Q 20.359375 -1.421875 13.671875 8.265625  Q 6.984375 17.96875 6.984375 36.375  Q 6.984375 53.65625 15.1875 63.9375  Q 23.390625 74.21875 37.203125 74.21875  Q 40.921875 74.21875 44.703125 73.484375  Q 48.484375 72.75 52.59375 71.296875  z " id="DejaVuSans-54" />
</defs>
<g class="class_ONWEQGHJGK_5" style="" transform="translate(26.1625 28.199048)scale(0.1 -0.1)">
<use ns1:href="#DejaVuSans-54" />
<use x="63.623047" ns1:href="#DejaVuSans-48" />
</g>
</g>
</g>
<g id="text_16">

<defs>
<path d="M 44.390625 34.1875  Q 47.5625 33.109375 50.5625 29.59375  Q 53.5625 26.078125 56.59375 19.921875  L 66.609375 0  L 56 0  L 46.6875 18.703125  Q 43.0625 26.03125 39.671875 28.421875  Q 36.28125 30.8125 30.421875 30.8125  L 19.671875 30.8125  L 19.671875 0  L 9.8125 0  L 9.8125 72.90625  L 32.078125 72.90625  Q 44.578125 72.90625 50.734375 67.671875  Q 56.890625 62.453125 56.890625 51.90625  Q 56.890625 45.015625 53.6875 40.46875  Q 50.484375 35.9375 44.390625 34.1875  z M 19.671875 64.796875  L 19.671875 38.921875  L 32.078125 38.921875  Q 39.203125 38.921875 42.84375 42.21875  Q 46.484375 45.515625 46.484375 51.90625  Q 46.484375 58.296875 42.84375 61.546875  Q 39.203125 64.796875 32.078125 64.796875  z " id="DejaVuSans-82" />
<path d="M 30.609375 48.390625  Q 23.390625 48.390625 19.1875 42.75  Q 14.984375 37.109375 14.984375 27.296875  Q 14.984375 17.484375 19.15625 11.84375  Q 23.34375 6.203125 30.609375 6.203125  Q 37.796875 6.203125 41.984375 11.859375  Q 46.1875 17.53125 46.1875 27.296875  Q 46.1875 37.015625 41.984375 42.703125  Q 37.796875 48.390625 30.609375 48.390625  z M 30.609375 56  Q 42.328125 56 49.015625 48.375  Q 55.71875 40.765625 55.71875 27.296875  Q 55.71875 13.875 49.015625 6.21875  Q 42.328125 -1.421875 30.609375 -1.421875  Q 18.84375 -1.421875 12.171875 6.21875  Q 5.515625 13.875 5.515625 27.296875  Q 5.515625 40.765625 12.171875 48.375  Q 18.84375 56 30.609375 56  z " id="DejaVuSans-111" />
<path d="M 37.109375 75.984375  L 37.109375 68.5  L 28.515625 68.5  Q 23.6875 68.5 21.796875 66.546875  Q 19.921875 64.59375 19.921875 59.515625  L 19.921875 54.6875  L 34.71875 54.6875  L 34.71875 47.703125  L 19.921875 47.703125  L 19.921875 0  L 10.890625 0  L 10.890625 47.703125  L 2.296875 47.703125  L 2.296875 54.6875  L 10.890625 54.6875  L 10.890625 58.5  Q 10.890625 67.625 15.140625 71.796875  Q 19.390625 75.984375 28.609375 75.984375  z " id="DejaVuSans-102" />
<path d="M 32.171875 -5.078125  Q 28.375 -14.84375 24.75 -17.8125  Q 21.140625 -20.796875 15.09375 -20.796875  L 7.90625 -20.796875  L 7.90625 -13.28125  L 13.1875 -13.28125  Q 16.890625 -13.28125 18.9375 -11.515625  Q 21 -9.765625 23.484375 -3.21875  L 25.09375 0.875  L 2.984375 54.6875  L 12.5 54.6875  L 29.59375 11.921875  L 46.6875 54.6875  L 56.203125 54.6875  z " id="DejaVuSans-121" />
<path d="M 41.609375 79.390625  Q 41.609375 82.46875 39.421875 84.640625  Q 37.25 86.8125 34.1875 86.8125  Q 31.0625 86.8125 28.9375 84.6875  Q 26.8125 82.5625 26.8125 79.390625  Q 26.8125 76.3125 28.953125 74.15625  Q 31.109375 72.015625 34.1875 72.015625  Q 37.25 72.015625 39.421875 74.15625  Q 41.609375 76.3125 41.609375 79.390625  z M 34.1875 63.1875  L 20.90625 26.90625  L 47.515625 26.90625  z M 26.8125 68.21875  Q 23.828125 70.21875 22.3125 73.015625  Q 20.796875 75.828125 20.796875 79.390625  Q 20.796875 85.015625 24.671875 88.921875  Q 28.5625 92.828125 34.1875 92.828125  Q 39.75 92.828125 43.671875 88.890625  Q 47.609375 84.96875 47.609375 79.390625  Q 47.609375 75.984375 46.0625 73.09375  Q 44.53125 70.21875 41.609375 68.21875  L 67.578125 0  L 57.328125 0  L 50.6875 18.703125  L 17.828125 18.703125  L 11.1875 0  L 0.78125 0  z " id="DejaVuSans-197" />
</defs>
<g class="class_ONWEQGHJGK_5" style="" transform="translate(20.082812 183.434375)rotate(-90)scale(0.1 -0.1)">
<use ns1:href="#DejaVuSans-82" />
<use x="69.451172" ns1:href="#DejaVuSans-97" />
<use x="130.730469" ns1:href="#DejaVuSans-100" />
<use x="194.207031" ns1:href="#DejaVuSans-105" />
<use x="221.990234" ns1:href="#DejaVuSans-117" />
<use x="285.369141" ns1:href="#DejaVuSans-115" />
<use x="337.46875" ns1:href="#DejaVuSans-32" />
<use x="369.255859" ns1:href="#DejaVuSans-111" />
<use x="430.4375" ns1:href="#DejaVuSans-102" />
<use x="465.642578" ns1:href="#DejaVuSans-32" />
<use x="497.429688" ns1:href="#DejaVuSans-103" />
<use x="560.90625" ns1:href="#DejaVuSans-121" />
<use x="620.085938" ns1:href="#DejaVuSans-114" />
<use x="661.199219" ns1:href="#DejaVuSans-97" />
<use x="722.478516" ns1:href="#DejaVuSans-116" />
<use x="761.6875" ns1:href="#DejaVuSans-105" />
<use x="789.470703" ns1:href="#DejaVuSans-111" />
<use x="850.652344" ns1:href="#DejaVuSans-110" />
<use x="914.03125" ns1:href="#DejaVuSans-32" />
<use x="945.818359" ns1:href="#DejaVuSans-40" />
<use x="984.832031" ns1:href="#DejaVuSans-197" />
<use x="1053.240234" ns1:href="#DejaVuSans-41" />
</g>
</g>
</g>
<g id="line2d_15">
<path class="class_ONWEQGHJGK_0" clip-path="url(#p9858e88cc9)" d="M 45.8875 246.84375  L 105.696057 -1  L 105.696057 -1  " style="fill:none;stroke-linecap:square;stroke-opacity:0.7;stroke-width:1.5;" />
</g>
<g id="line2d_16">
<path class="class_ONWEQGHJGK_1" clip-path="url(#p9858e88cc9)" d="M 45.8875 246.84375  L 46.868904 239.139688  L 47.850307 235.166576  L 48.831711 231.950396  L 50.794518 226.608818  L 52.757325 222.082157  L 54.720132 218.052186  L 57.664342 212.627808  L 60.608553 207.725942  L 63.552763 203.203899  L 67.478378 197.620151  L 71.403992 192.430613  L 76.311009 186.374195  L 81.218027 180.698105  L 86.125045 175.329915  L 92.013466 169.222887  L 97.901887 163.420852  L 104.771712 156.974627  L 111.641536 150.823102  L 119.492764 144.09974  L 127.343993 137.657837  L 136.176624 130.700908  L 145.009256 124.011452  L 154.823291 116.852674  L 165.61873 109.269976  L 176.414169 101.956311  L 188.191011 94.248662  L 200.949257 86.181441  L 213.707503 78.37575  L 227.447152 70.2307  L 242.168205 61.773015  L 256.889258 53.565569  L 272.591714 45.059651  L 289.275574 36.276531  L 306.940838 27.235458  L 325.587505 17.953829  L 339.327154 11.272403  L 339.327154 11.272403  " style="fill:none;stroke-linecap:square;stroke-opacity:0.7;stroke-width:1.5;" />
</g>
<g id="line2d_17">
<path class="class_ONWEQGHJGK_2" clip-path="url(#p9858e88cc9)" d="M 45.8875 246.84375  L 46.868904 239.6167  L 47.850307 236.623157  L 48.831711 234.326131  L 50.794518 230.683574  L 52.757325 227.722772  L 54.720132 225.162599  L 57.664342 221.808513  L 60.608553 218.853504  L 63.552763 216.181972  L 67.478378 212.945878  L 71.403992 209.992879  L 76.311009 206.605236  L 81.218027 203.481447  L 87.106448 200.00711  L 93.976273 196.254397  L 100.846097 192.761456  L 108.697326 189.027346  L 117.529957 185.095804  L 126.362589 181.400024  L 136.176624 177.524317  L 146.972063 173.497198  L 158.748905 169.342268  L 171.507151 165.079007  L 185.246801 160.723504  L 199.967853 156.289067  L 215.67031 151.786742  L 233.335573 146.963925  L 251.98224 142.113839  L 271.610311 137.240103  L 293.201188 132.11788  L 315.773469 126.996676  L 339.327154 121.876365  L 339.327154 121.876365  " style="fill:none;stroke-linecap:square;stroke-opacity:0.7;stroke-width:1.5;" />
</g>
<g id="line2d_18">
<path class="class_ONWEQGHJGK_3" clip-path="url(#p9858e88cc9)" d="M 45.8875 246.84375  L 46.868904 235.75476  L 47.850307 232.807788  L 48.831711 230.733095  L 49.813114 229.077639  L 51.775921 226.451582  L 53.738728 224.356177  L 55.701535 222.583684  L 58.645746 220.320135  L 61.589956 218.379957  L 65.51557 216.136411  L 69.441185 214.172646  L 74.348202 212.001411  L 79.25522 210.065182  L 85.143641 207.975733  L 92.013466 205.785044  L 99.864694 203.531046  L 108.697326 201.240775  L 118.511361 198.933243  L 129.3068 196.621702  L 142.065045 194.131828  L 155.804695 191.683515  L 171.507151 189.121484  L 189.172415 186.480592  L 208.800485 183.787414  L 230.391363 181.061965  L 253.945047 178.319203  L 279.461539 175.57024  L 307.922241 172.728801  L 339.327154 169.820793  L 339.327154 169.820793  " style="fill:none;stroke-linecap:square;stroke-opacity:0.7;stroke-width:1.5;" />
</g>
<g id="patch_3">
<path class="class_ONWEQGHJGK_5" d="M 45.8875 246.84375  L 45.8875 10.8  " style="fill:none;stroke-linecap:square;stroke-linejoin:miter;stroke-width:0.8;" />
</g>
<g id="patch_4">
<path class="class_ONWEQGHJGK_5" d="M 340.308557 246.84375  L 340.308557 10.8  " style="fill:none;stroke-linecap:square;stroke-linejoin:miter;stroke-width:0.8;" />
</g>
<g id="patch_5">
<path class="class_ONWEQGHJGK_5" d="M 45.8875 246.84375  L 340.308557 246.84375  " style="fill:none;stroke-linecap:square;stroke-linejoin:miter;stroke-width:0.8;" />
</g>
<g id="patch_6">
<path class="class_ONWEQGHJGK_5" d="M 45.8875 10.8  L 340.308557 10.8  " style="fill:none;stroke-linecap:square;stroke-linejoin:miter;stroke-width:0.8;" />
</g>
<g id="legend_1">
<g id="line2d_19">
<path class="class_ONWEQGHJGK_0" d="M 361.0854 23.898438  L 371.0854 23.898438  " style="fill:none;stroke-linecap:square;stroke-opacity:0.7;stroke-width:6;" />
</g>
<g id="line2d_20" />
<g id="text_17">

<defs>
<path d="M 9.8125 72.90625  L 51.703125 72.90625  L 51.703125 64.59375  L 19.671875 64.59375  L 19.671875 43.109375  L 48.578125 43.109375  L 48.578125 34.8125  L 19.671875 34.8125  L 19.671875 0  L 9.8125 0  z " id="DejaVuSans-70" />
<path d="M 9.421875 75.984375  L 18.40625 75.984375  L 18.40625 0  L 9.421875 0  z " id="DejaVuSans-108" />
<path d="M 9.8125 72.90625  L 55.90625 72.90625  L 55.90625 64.59375  L 19.671875 64.59375  L 19.671875 43.015625  L 54.390625 43.015625  L 54.390625 34.71875  L 19.671875 34.71875  L 19.671875 8.296875  L 56.78125 8.296875  L 56.78125 0  L 9.8125 0  z " id="DejaVuSans-69" />
<path d="M 54.890625 54.6875  L 35.109375 28.078125  L 55.90625 0  L 45.3125 0  L 29.390625 21.484375  L 13.484375 0  L 2.875 0  L 24.125 28.609375  L 4.6875 54.6875  L 15.28125 54.6875  L 29.78125 35.203125  L 44.28125 54.6875  z " id="DejaVuSans-120" />
</defs>
<g class="class_ONWEQGHJGK_5" style="" transform="translate(379.0854 27.398438)scale(0.1 -0.1)">
<use ns1:href="#DejaVuSans-70" />
<use x="57.441406" ns1:href="#DejaVuSans-117" />
<use x="120.820312" ns1:href="#DejaVuSans-108" />
<use x="148.603516" ns1:href="#DejaVuSans-108" />
<use x="176.386719" ns1:href="#DejaVuSans-121" />
<use x="235.566406" ns1:href="#DejaVuSans-32" />
<use x="267.353516" ns1:href="#DejaVuSans-69" />
<use x="330.537109" ns1:href="#DejaVuSans-120" />
<use x="389.716797" ns1:href="#DejaVuSans-116" />
<use x="428.925781" ns1:href="#DejaVuSans-101" />
<use x="490.449219" ns1:href="#DejaVuSans-110" />
<use x="553.828125" ns1:href="#DejaVuSans-100" />
<use x="617.304688" ns1:href="#DejaVuSans-101" />
<use x="678.828125" ns1:href="#DejaVuSans-100" />
</g>
</g>
<g id="line2d_21">
<path class="class_ONWEQGHJGK_1" d="M 361.0854 38.576562  L 371.0854 38.576562  " style="fill:none;stroke-linecap:square;stroke-opacity:0.7;stroke-width:6;" />
</g>
<g id="line2d_22" />
<g id="text_18">

<defs>
<path d="M 19.671875 64.796875  L 19.671875 8.109375  L 31.59375 8.109375  Q 46.6875 8.109375 53.6875 14.9375  Q 60.6875 21.78125 60.6875 36.53125  Q 60.6875 51.171875 53.6875 57.984375  Q 46.6875 64.796875 31.59375 64.796875  z M 9.8125 72.90625  L 30.078125 72.90625  Q 51.265625 72.90625 61.171875 64.09375  Q 71.09375 55.28125 71.09375 36.53125  Q 71.09375 17.671875 61.125 8.828125  Q 51.171875 0 30.078125 0  L 9.8125 0  z " id="DejaVuSans-68" />
</defs>
<g class="class_ONWEQGHJGK_5" style="" transform="translate(379.0854 42.076562)scale(0.1 -0.1)">
<use ns1:href="#DejaVuSans-68" />
<use x="77.001953" ns1:href="#DejaVuSans-101" />
<use x="138.525391" ns1:href="#DejaVuSans-110" />
<use x="201.904297" ns1:href="#DejaVuSans-97" />
<use x="263.183594" ns1:href="#DejaVuSans-116" />
<use x="302.392578" ns1:href="#DejaVuSans-117" />
<use x="365.771484" ns1:href="#DejaVuSans-114" />
<use x="406.853516" ns1:href="#DejaVuSans-101" />
<use x="468.376953" ns1:href="#DejaVuSans-100" />
</g>
</g>
<g id="line2d_23">
<path class="class_ONWEQGHJGK_2" d="M 361.0854 53.254687  L 371.0854 53.254687  " style="fill:none;stroke-linecap:square;stroke-opacity:0.7;stroke-width:6;" />
</g>
<g id="line2d_24" />
<g id="text_19">

<g class="class_ONWEQGHJGK_5" style="" transform="translate(379.0854 56.754687)scale(0.1 -0.1)">
<use ns1:href="#DejaVuSans-67" />
<use x="69.824219" ns1:href="#DejaVuSans-111" />
<use x="131.005859" ns1:href="#DejaVuSans-105" />
<use x="158.789062" ns1:href="#DejaVuSans-108" />
</g>
</g>
<g id="line2d_25">
<path class="class_ONWEQGHJGK_3" d="M 361.0854 67.932813  L 371.0854 67.932813  " style="fill:none;stroke-linecap:square;stroke-opacity:0.7;stroke-width:6;" />
</g>
<g id="line2d_26" />
<g id="text_20">

<g class="class_ONWEQGHJGK_5" style="" transform="translate(379.0854 71.432813)scale(0.1 -0.1)">
<use ns1:href="#DejaVuSans-70" />
<use x="57.472656" ns1:href="#DejaVuSans-111" />
<use x="118.654297" ns1:href="#DejaVuSans-108" />
<use x="146.4375" ns1:href="#DejaVuSans-100" />
<use x="209.914062" ns1:href="#DejaVuSans-101" />
<use x="271.4375" ns1:href="#DejaVuSans-100" />
</g>
</g>
</g>
</g>
</g>
<defs>
<clipPath id="p9858e88cc9">
<rect height="236.04375" width="294.421057" x="45.8875" y="10.8" />
</clipPath>
</defs>
</svg>
