<svg height='100px' width='100px'  fill="#146c56" xmlns="http://www.w3.org/2000/svg" xmlns:xlink="http://www.w3.org/1999/xlink" version="1.1" x="0px" y="0px" viewBox="0 0 100 100" enable-background="new 0 0 100 100" xml:space="preserve"><path d="M75.143,67.3L63.532,55.69c-1.729,2.69-4.018,4.98-6.71,6.711l11.61,11.608c1.853,1.855,4.859,1.855,6.71,0  C76.995,72.163,76.995,69.154,75.143,67.3"></path><path d="M63.881,43.775c0-10.48-8.499-18.979-18.978-18.979c-10.475,0-18.974,8.499-18.974,18.979  c0,10.477,8.499,18.973,18.974,18.973C55.382,62.748,63.881,54.252,63.881,43.775 M44.903,58.007  c-7.845,0-14.232-6.385-14.232-14.232c0-7.85,6.387-14.235,14.232-14.235c7.851,0,14.232,6.385,14.232,14.235  C59.136,51.622,52.754,58.007,44.903,58.007"></path><polygon points="38.44,47.565 42.301,43.777 38.482,39.888 41.146,37.273 44.963,41.162 48.824,37.375 51.369,39.968 47.509,43.756   51.337,47.656 48.672,50.27 44.846,46.37 40.987,50.159 "></polygon><rect fill="none" width="100" height="100"></rect></svg>